<?xml version="1.0" standalone="no"?>
<!DOCTYPE svg PUBLIC "-//W3C//DTD SVG 1.1//EN" "http://www.w3.org/Graphics/SVG/1.1/DTD/svg11.dtd" >
<svg xmlns="http://www.w3.org/2000/svg" xmlns:xlink="http://www.w3.org/1999/xlink" version="1.1">
<metadata></metadata>
<defs>
<font id="shimes_one_personal_useRg" horiz-adv-x="2105" >
<font-face units-per-em="2048" ascent="1536" descent="-512" />
<missing-glyph horiz-adv-x="401" />
<glyph unicode="&#xfb01;" horiz-adv-x="860" d="M31 834q-4 12 3 21t20.5 17.5t27.5 13.5t22 9q33 16 58.5 41t48.5 53q-14 127 -16 254t8 254q2 29 5 77t14 95t32.5 84t60.5 43q45 8 68 -31t32 -93t8 -110.5t-3 -80.5q-6 -111 -34 -217.5t-83 -202.5q-12 -23 -24.5 -43.5t-26.5 -40.5q2 -25 4 -49.5t6 -48.5 q109 2 200 8t156.5 9t102.5 -2t37 -24q0 -29 -4 -50t-4 -50q-1 -64 22 -125q6 -16 12.5 -36.5t-2.5 -37.5q-4 -10 -14 -12t-18 6q-18 16 -18.5 46t-4.5 53q-16 66 -16 127q0 27 -4.5 43t-43 22t-130 0t-265.5 -22q18 -121 48 -234t77 -225q6 -18 3 -29.5t-12 -14.5t-20.5 3 t-17.5 22q-6 14 -10 28.5t-10 29.5q-18 63 -35 124.5t-31 127.5q-8 41 -15 81.5t-14 83.5q-12 0 -44.5 -7t-66.5 -10t-60.5 -1t-28.5 21zM137 866l68 6q14 0 18 2l-8 62q-35 -39 -78 -70zM231.5 1305.5q1.5 -136.5 14.5 -269.5q53 84 83.5 178.5t47.5 194.5q8 59 9 117.5 t-7 118.5q-4 31 -14.5 65.5t-40.5 48.5h-2q-20 -2 -34 -25.5t-21 -54t-11 -60.5t-6 -44q-20 -133 -18.5 -269.5zM426 1069q6 16 21.5 28.5t35 21.5t40 16.5t32.5 11.5q53 16 106.5 22.5t106.5 -4.5q-35 -2 -79 -8t-87 -18.5t-80 -32t-61 -47.5q20 -14 49 -14.5t60.5 7 t60 17.5t49.5 18q53 23 111.5 52.5t99.5 70.5q-72 18 -141.5 1t-135.5 -42q-6 -2 -16 -3t-18.5 1t-12.5 7.5t0 15.5q6 23 30 31t42 12q31 6 61.5 13t65.5 11q12 2 41 4.5t58.5 1.5t52 -11t22.5 -33q0 -20 -14.5 -38t-34 -32t-41 -25.5t-35.5 -17.5q-59 -35 -123.5 -60.5 t-130.5 -31.5q-14 0 -39.5 -1t-49 3t-39 16t-7.5 37z" />
<glyph unicode="&#xfb02;" horiz-adv-x="679" d="M31 696q-4 12 3 21.5t20.5 16.5t27.5 12.5t22 9.5q33 16 58.5 41.5t48.5 52.5q-14 129 -16 255t8 255q2 27 5 76t14 96t32.5 84t60.5 43q45 8 68 -31t32 -94t8 -110.5t-3 -80.5q-6 -111 -34 -217t-83 -204q-12 -20 -24.5 -42t-26.5 -40q2 -25 4 -49.5t6 -51.5 q96 23 170 94.5t103 178.5l12 192q4 88 8 175t-2 173q-2 25 -5 51.5t-9 55.5q-4 18 -15.5 36.5t-9.5 39.5q0 12 9 18t20 4q20 -10 30.5 -39.5t14.5 -66.5t4 -71v-50q6 -119 0 -237.5t-14.5 -237.5t-16.5 -238t-8 -237q0 -47 2 -96.5t12 -96.5q2 -23 12.5 -47.5t4.5 -46.5 q-6 -23 -22.5 -15.5t-24.5 23.5q-6 14 -7.5 30.5t-1.5 33.5q-4 35 -8 70.5t-4 72.5q-4 100 -1 199.5t9 197.5q-29 -66 -89 -121t-167 -84q18 -121 48 -235.5t77 -226.5q6 -18 3 -29.5t-12 -15t-20.5 2t-17.5 21.5t-10 29.5t-10 29.5q-18 61 -35 124t-31 126q-8 41 -16 85 t-15 87q-14 0 -45.5 -7t-64.5 -12t-59.5 -3t-28.5 20zM137 729l68 6q14 0 18 2l-8 62q-35 -39 -78 -70zM231.5 1167.5q1.5 -135.5 14.5 -270.5q53 84 83.5 179t47.5 196q8 57 9 115.5t-7 117.5q-4 33 -14.5 68t-40.5 49h-2q-20 -2 -34 -26.5t-21 -55.5t-11 -60.5t-6 -41.5 q-20 -135 -18.5 -270.5z" />
<glyph horiz-adv-x="0" />
<glyph unicode="&#xd;" horiz-adv-x="401" />
<glyph horiz-adv-x="0" />
<glyph horiz-adv-x="0" />
<glyph unicode=" "  horiz-adv-x="401" />
<glyph unicode="&#x09;" horiz-adv-x="401" />
<glyph unicode="&#xa0;" horiz-adv-x="401" />
<glyph unicode="!" horiz-adv-x="483" d="M33 459q-6 27 0 56.5t19.5 58t30.5 54t36 46.5q8 12 32.5 36.5t54.5 48t60.5 36t50.5 -1.5q8 8 32 25.5t47.5 27.5t41 5t15.5 -40q0 -31 -11.5 -63.5t-29 -63.5t-37 -60.5t-37.5 -54.5q-20 -27 -44 -54.5t-51.5 -51t-58 -40.5t-65.5 -20q-31 -4 -53.5 9.5t-32.5 46.5z M74 475q-2 -25 30.5 -25.5t63.5 17.5q51 27 90 72t72 90q12 18 28.5 41.5t30.5 49t22.5 51.5t6.5 48q-23 2 -48.5 -15.5t-49 -41t-44 -49t-32.5 -39.5q-23 -29 -42.5 -54.5t-37.5 -54.5q20 47 44.5 89t59.5 83q-70 -29 -122 -95t-68 -136q0 -10 -2 -17.5t-2 -13.5z M207 910.5q2 35.5 6 70.5q8 100 28.5 199.5t53.5 195.5q2 8 8 33t15.5 49.5t22.5 41t30 9.5q14 -6 13 -25.5t-10 -43t-20.5 -46t-15.5 -32.5q-41 -129 -73 -263t-54 -268v9q-6 35 -4 70.5z" />
<glyph unicode="&#x22;" horiz-adv-x="307" d="M27.5 1197.5q5.5 31.5 9.5 55.5q2 39 4 75t6 73q0 8 -1 26.5t0 37t6 32.5t22 14q16 0 21 -12t4 -28.5t-5 -32t-6 -21.5q-10 -41 -15 -93t1 -91q0 -4 1 -24.5t0 -40t-8.5 -30.5t-21.5 5q-23 23 -17.5 54.5zM193 1249q-2 43 0 86t12 88q6 25 10 51.5t23 45.5q4 2 8 5t6 3 q29 4 24 -25q0 -23 -14 -43t-18 -43q-6 -25 -9.5 -51.5t-5.5 -52.5q0 -25 1 -49.5t8 -46.5q6 -23 11 -40.5t-9 -37.5q-12 -16 -21.5 -3t-15.5 36.5t-8 48t-2 28.5z" />
<glyph unicode="#" d="M178 1059q70 37 137.5 67.5t145.5 53.5q4 0 8 20.5t8 45t8 48t9 31.5q23 35 67.5 53.5t77.5 34.5q88 35 179 61.5t183 51.5q94 23 188.5 39t190.5 24q33 4 80 8.5t95.5 3t92.5 -12.5t70 -38q2 -4 -2 -28.5t-6 -32.5l-6 -98q0 -4 4 -5q78 -23 152.5 -58.5t124.5 -102.5v-2 q-16 4 -37 -3.5t-41.5 -20.5t-38 -27.5t-27.5 -26.5q31 -16 50.5 -47t27.5 -67t6 -72.5t-12 -67.5q-16 43 -50 66.5t-75 35t-85 14.5t-83 5q-45 4 -94 2t-92 14q-16 6 -22.5 25.5t-7.5 43t2 46l5 37.5q-184 -14 -363.5 -56.5t-351.5 -101.5q-8 -2 -8 -6q2 -10 8 -34 t10.5 -50.5t6.5 -49t-6 -28.5q-23 -18 -59 -21.5t-64 -7.5q-39 -6 -79 -12t-79 -12q-35 -8 -66.5 -17.5t-62.5 -21.5q-14 -8 -28.5 -13.5t-28.5 -15.5q-8 -8 -18.5 -20.5t-16.5 -16.5q10 35 24.5 68t26.5 63q2 6 13.5 25.5t21.5 41t18 39t6 21.5q-25 35 -58.5 68t-78.5 37z M229 113h47q4 -41 7.5 -83t11.5 -83q4 41 10 83t14 83h37l25 -166q4 41 9 83t9 83h43l-43 -224h-43q-6 37 -11 74t-9 74q-4 -37 -11.5 -74t-13.5 -74h-43zM233 1065q68 -37 109 -109q2 -2 -4 -15t-14.5 -28.5t-15.5 -29t-9 -19.5q-25 -45 -41 -94q51 27 104.5 39t108.5 20.5 t109.5 15.5t107.5 23q-18 18 -47 25.5t-61.5 8.5t-65.5 -2l-55 -5v131t4 131q-59 -16 -116.5 -39.5t-113.5 -52.5zM449 113h45q4 -41 8 -83t10 -83q4 41 10 83t15 83h38l23 -166q4 41 9 83t9 83h43l-43 -224h-41q-8 37 -13 74t-9 74q-4 -37 -10 -74t-13 -74h-45zM485 954 q8 0 22.5 6.5t29 15.5t28 18.5t23.5 13.5q37 16 74.5 29.5t76.5 27.5q78 23 156 43t160 39q78 16 154.5 31.5t156.5 21.5q72 8 154.5 11.5t152.5 -29.5q6 55 6 112.5t4 110.5q0 29 2.5 57.5t6.5 57.5q2 14 -6.5 22t-20.5 13.5t-26.5 7.5t-26.5 4q-119 18 -246 0.5 t-246 -41.5q-129 -27 -255 -60.5t-249 -87.5q-23 -12 -46 -24.5t-44 -28.5q-20 -16 -24 -49t-8 -55q-8 -66 -8.5 -132.5t-0.5 -134.5zM510 1071q0 23 15.5 38t35.5 19q6 2 15.5 -2t5.5 -14q-12 -8 -23 -8q-12 -4 -16 -16.5t2 -22.5q4 -4 8 -5t8 -3q20 -2 33.5 11t23 33.5 t13.5 41t8 35.5q-27 -27 -61 -35q-27 -4 -43 12q-16 8 -17 37q0 27 12 51q27 61 86 98q12 6 25.5 12.5t28.5 10.5q10 4 21 12t22 10q12 0 6 -12q12 0 20 -2q16 -2 27.5 -15.5t13.5 -31.5q6 -43 -23.5 -83t-66.5 -62q-18 -12 -27.5 -32t-18.5 -39t-20.5 -37.5t-33.5 -29.5 q-23 -16 -53 -10q-12 4 -20.5 14.5t-6.5 24.5zM549 1182.5q2 -15.5 22 -15.5q31 0 49.5 19.5t31 47.5t18.5 58.5t10 50.5q-29 -6 -52.5 -23t-43.5 -38q-6 -6 -15.5 -25.5t-15.5 -39t-4 -35zM666 113h45q4 -41 9 -83t9 -83q4 41 10 83t15 83h39l24 -166q2 41 7 83t12 83h41 l-41 -224h-43q-8 37 -12.5 74t-10.5 74q-4 -37 -10 -74l-12 -74h-43zM674 1196q14 4 29.5 19.5t25.5 35t14.5 40t-0.5 34.5q-6 23 -32 23q-14 -37 -20.5 -75t-16.5 -77zM725 384q2 34 2 60q0 20 -1 39t1 39q0 49 26.5 67.5t73.5 18.5q37 0 54.5 -20.5t23.5 -50t4 -63.5 t-2 -60v-80q0 -47 -26.5 -66.5t-71.5 -17.5q-39 0 -56.5 20.5t-23.5 50t-4 63.5zM771 1198.5q-5 20.5 6 46t31.5 46t43.5 22.5q12 0 16 -10q8 -12 2 -29q-6 -23 -27.5 -40t-43.5 -22q2 -12 10 -13t17.5 3t17.5 10.5t12 10.5q25 20 36 45.5t21 52.5q2 2 -1 9t-8 15.5t-8 17.5 t-1 15q10 27 35 23q12 0 16 -12q4 -10 2 -22.5t-2 -25.5q20 2 28.5 -1t-3.5 -27q-8 -16 -17.5 -33.5t-11.5 -36.5q0 -10 6 -10q20 0 34.5 20.5t26 46t22.5 51t26 33.5q8 2 16 -2q2 -4 2 -12q-4 -12 -10 -21.5t-2 -23.5q6 -12 13 -25.5t5 -27.5h2q20 25 32.5 60.5t45.5 51.5 q37 14 49 -20q10 -14 6 -25.5t-2 -27.5q8 2 15 10q16 12 18 34.5t8 41.5q4 4 11.5 5t11.5 -1q10 -2 8 -12v-3q10 10 25 17q10 6 17 2t11 -14q4 -12 1 -22.5t-8 -22t-10 -22.5t-3 -24q14 12 24.5 26.5t18.5 30t17.5 29t25.5 23.5q20 10 51 0q4 6 17.5 8t9.5 -14 q-4 -18 -14.5 -39t-10.5 -41q0 -14 8 -2q20 20 30.5 48t20 55.5t23.5 53t43 42.5q14 8 25 -9q12 -23 4 -48t-25 -42q-14 -18 -42.5 -43.5t-24.5 -52.5q4 -16 22 -12q14 6 21.5 19.5t15.5 25.5q4 2 12 2t8 -10l-4 -13q-16 -39 -53 -53q-25 -14 -43 14q-4 5 -4 11 q-10 -8 -16 -15.5t-19 -11.5q-10 -4 -16 0l-12 8q-4 -4 -12.5 -8t-16.5 -6q-31 -6 -43 20v2q-8 -10 -17.5 -17t-23.5 -11q-14 -8 -25 12q-6 12 -3 23.5t8.5 21.5t9.5 21.5t2 23.5q-18 -8 -25.5 -19.5t-11.5 -25.5t-6 -28.5t-8 -28.5q-6 -16 -25 -8q-8 2 -8 10q0 4 1 9t1 7 q-14 -4 -19.5 -4t-15.5 -10t-24.5 -18.5t-30.5 -8.5q-10 2 -16.5 8.5t-10.5 14.5q-16 -16 -39.5 -32.5t-50.5 -12.5q-16 2 -25 18q-25 -29 -51 -37q-29 -12 -33 21q-4 27 8.5 44t22.5 38q2 4 -3 5t-7 -3q-8 -20 -18.5 -44t-26 -45.5t-35.5 -34.5t-47 -11q-31 2 -36 22.5z M781 408.5q-1 -37.5 1 -74.5q0 -16 9.5 -26.5t21.5 -14.5t23.5 1t15.5 23q2 12 2 27.5v30.5v147q0 16 -10 27.5t-22.5 15.5t-24 -2t-15.5 -22q-2 -14 -1 -29.5t1 -28.5q0 -37 -1 -74.5zM797 662q12 14 15 36.5t2 48t-4 49t-3 42.5v125q0 16 1 30.5t-11 28.5h75 q-14 -12 -12 -32.5t2 -37.5v-141q0 -16 -2 -49t10 -47q14 -23 38 -8.5t28 32.5q8 27 3 54.5t-9 54.5q-4 14 -10.5 37.5t-8.5 48t2.5 46t20.5 34.5q10 10 31.5 10t29.5 -16q6 -16 -2 -21.5t-18 -4.5t-17.5 8t0.5 16q-16 -8 -17 -29t6 -44.5t17.5 -46t14.5 -34.5 q12 -37 17 -87t-21 -85q-10 -14 -33.5 -19.5t-50.5 -5.5t-53.5 3.5t-40.5 3.5zM799 1233q12 -2 28.5 15.5t18.5 27.5q4 8 -2 12t-13 -2q-10 -10 -18 -24.5t-14 -28.5zM858 -82q0 14 9.5 22.5t21.5 8.5t21.5 -8.5t9.5 -22.5q0 -16 -9.5 -23.5t-21.5 -7.5t-21.5 7.5t-9.5 23.5 zM920 1370q-2 -8 4 -20h4q0 8 1 13t-1 13q-6 0 -8 -6zM924 250q10 14 13 34.5t2 44t-4 46t-3 39.5v172q0 10 -8 22h57q29 -12 51.5 -50t34.5 -66q0 25 2 59.5t-12 56.5h73q-12 -10 -11 -24.5t1 -28.5v-246q0 -14 -1 -31.5t11 -27.5h-206zM940 -111l59 224h64l59 -224h-51 l-14 52h-53l-11 -52h-53zM987 293q0 -14 11.5 -23.5t25.5 -11.5t27.5 3.5t15.5 19.5q-4 63 -21.5 127.5t-58.5 115.5v-231zM1009 752.5q-3 19.5 7 31.5t32.5 13.5t26.5 -21.5q0 -10 -7 -15t-15.5 -5t-14.5 4t-6 14q-12 -4 -12 -14t7 -20.5t17.5 -19.5t16.5 -11 q14 -4 34.5 -4t30.5 10q20 20 16.5 40.5t-19 38t-36 32t-30.5 24.5q-18 16 -30.5 42t-12.5 52.5t13 48t44 27.5q27 6 54.5 4t52.5 -2l-7 -10q0 -14 7.5 -29.5t13.5 -31t5 -30t-15 -26.5q-14 -10 -34 -9t-22 21q0 12 7.5 17.5t15.5 5.5t14 -5t4 -14q14 2 14.5 12.5t-8 21.5 t-18.5 20.5t-18 11.5q-14 4 -33 1t-25 -20q-12 -25 -4 -43t24.5 -32.5t37 -27.5t32.5 -28q14 -20 22.5 -46.5t4.5 -52.5t-20.5 -44t-47.5 -22q-27 -2 -53 -1t-55 1q8 4 5 19t-8 33.5t-8 38zM1010 -20h41q-4 23 -9.5 46t-11.5 46zM1018 1260q4 -12 16.5 -10.5t14.5 14.5 q1 18 -11 43q-6 -8 -14 -22.5t-6 -24.5zM1135 1305l4 -15q10 -14 24 -6q16 4 23.5 21.5t3.5 33.5q-2 10 -9 16.5t-22 -3.5q-20 -14 -24 -47zM1141 250q12 14 15 36.5t2 47t-4 48.5t-3 40v127q0 16 1 29.5t-11 29.5h76q-10 -10 -13.5 -30.5t-2.5 -42t3 -43t2 -35.5v-166h105 q23 0 55.5 -3t54.5 13q-4 -8 -7 -29.5t-13 -21.5h-260zM1149 -111v222q29 4 64.5 6t62.5 -15q31 -23 23 -57.5t-37 -48.5q14 -6 21 -19.5t10 -29t5 -30.5t9 -28h-52q-6 12 -8 27.5t-6 29t-12 22.5t-27 7v-86h-53zM1200 49.5q2 -24.5 2 -35.5h12q18 0 26.5 10.5t6.5 22.5 t-11 21.5t-28 7.5q-10 -2 -8 -26.5zM1208 662q10 12 11.5 25t1.5 28v248q0 14 -1 30.5t-12 28.5h127q25 -25 26 -59.5t-9 -67.5q-4 -8 -15.5 -29.5t-20.5 -45t-11 -45t10 -27.5q-6 12 4 13t21.5 -4t14.5 -14.5t-18 -17.5q-25 -10 -35 9.5t-8 35.5q0 16 6.5 32.5t8.5 31 t-4.5 22.5t-28.5 6v-155q16 0 41.5 -3.5t44.5 11.5q-6 -14 -8 -26.5t-6 -26.5h-140zM1241 608h78q-12 -29 2 -65.5t27 -61.5q12 29 22 63t0 64h80q-23 -12 -27 -38.5t-10 -47.5q-6 -20 -23.5 -48t-17.5 -48q0 -23 -3 -56.5t13 -52.5h-75q18 18 14 54t-4 59 q-12 23 -21.5 46.5t-17.5 45.5q-10 23 -14 46.5t-23 39.5zM1276 907q20 0 46 2t28 33q0 16 -7.5 23.5t-18.5 10.5t-24.5 3h-23.5v-72zM1335 -111v224h54v-224h-54zM1389 1337q-4 -10 1 -27.5t21 -2.5q12 12 21.5 32.5t11.5 38.5q-2 8 -4 13.5t-13 1.5q-16 -8 -25 -23.5 t-13 -32.5zM1417 -82q0 14 9.5 22.5t21.5 8.5t21.5 -8.5t9.5 -22.5q0 -16 -9.5 -23.5t-21.5 -7.5t-21.5 7.5t-9.5 23.5zM1438 1059q-8 -6 4 -8q27 -10 57.5 -13.5t62 -3.5h62.5t59 -2q29 -2 57.5 -5t57.5 -13q29 -8 51.5 -23.5t48.5 -27.5q0 61 -21.5 106t-80.5 68 q35 31 70 58.5t76 43.5q-49 47 -111 77t-127 46q-2 -57 -3 -112.5t-5 -112.5l-2 2v-6q-27 -2 -65 -4.5t-74.5 -9.5t-68.5 -21.5t-48 -38.5zM1507 -111v224h58l67 -152q-4 39 -4 77v75h47v-224h-51q-20 39 -36.5 79t-35.5 77q2 -39 2 -78v-78h-47zM1536 1403q16 20 31.5 39.5 t19.5 46.5h-2q-37 -37 -49 -86zM1706 -22.5q-8 36.5 14 79.5q12 29 40 43.5t63 14.5h10t17.5 -2t16.5 -4.5t7 -4.5l-8 -41q-27 12 -48.5 8.5t-37 -18t-20.5 -37t3 -47.5q16 -47 62 -41q10 2 8 21.5t-2 27.5h-27v41h76v-120q-41 -16 -79 -9t-62.5 29.5t-32.5 59z" />
<glyph unicode="$" horiz-adv-x="608" d="M31 950q-4 31 10 54.5t36.5 42t51.5 31t51 20.5q8 2 16.5 5t16.5 3q0 10 -5 39t-9 59.5t-2 55t14 28.5q18 4 27.5 -17.5t11.5 -51t2 -58v-37.5v-10q14 2 29.5 3t31.5 1q-4 39 -7 77t-13 73q-4 16 -7 34.5t7 32.5q8 10 20.5 6t18.5 -14q20 -33 19 -82t3 -88q2 -10 2 -20.5 v-20.5q23 -2 49.5 -5t38.5 -26q10 -20 0 -26t-27.5 -4t-36 7t-24.5 7q2 -43 1 -88t-3 -88q18 -2 54 -3t72 -7t64.5 -19.5t33.5 -38.5q10 -37 -16.5 -70.5t-67.5 -61t-84 -48t-68 -29.5q-2 -39 -3 -74.5t-1 -70.5v-93t12 -91q-25 41 -31 88t-10 94q-4 35 -5 66.5t-1 66.5 q-31 -14 -59 -16q0 -8 3 -35t3 -55.5t-6 -48t-25 -13.5q-14 4 -18 23.5t-3 42t4 45t3 33.5q-37 -6 -76 0q-16 2 -34.5 7t-31.5 17q-8 10 -8 25q0 23 13.5 45t33 41.5t41 36t37.5 28.5q-10 -12 -25.5 -30.5t-30.5 -39t-26.5 -42t-11.5 -37.5v-4h2q25 -12 57.5 -12.5t61.5 3.5 q6 123 6 248q-20 2 -49 6t-56.5 13.5t-49 25t-27.5 41.5zM78 956q6 -14 24.5 -21t39 -12t41 -7.5t32.5 -4.5v150q-12 -4 -36.5 -12.5t-47 -20.5t-39 -28.5t-14.5 -34.5v-9zM246 625q29 6 57 18q0 53 2 104.5t4 102.5l-57 8q-2 -57 -4 -116.5t-2 -116.5zM252 905l57 -8 q4 45 4 88v90q-16 0 -30.5 -2t-30.5 -4q4 -84 0 -164zM342 659q20 8 52 23.5t62.5 35t53 42t27.5 49.5v6q-23 14 -54.5 16.5t-54.5 6.5l-74 8z" />
<glyph unicode="%" horiz-adv-x="727" d="M33 562q10 22 29.5 44.5t39 43t25.5 26.5q92 104 192.5 201.5t217.5 175.5l41 24q-47 -2 -95.5 1t-95.5 16l-22 6q10 -39 4 -76q-4 -25 -30 -56.5t-58.5 -55t-68.5 -32t-62 12.5q-25 18 -26 50t9 66.5t27.5 65.5t29.5 49q8 12 20.5 31t29 36t34 28.5t33.5 9.5 q14 -2 17.5 -9.5t-2 -16.5t-13.5 -18t-16 -14q18 4 41.5 -10t38.5 -22q29 -12 62.5 -16.5t64.5 -6.5q29 -2 58.5 -1t59.5 7q6 2 18.5 5t25 3t22.5 -4t12 -16q4 -10 -1 -17.5t-14 -13.5t-19.5 -10t-16.5 -6q-29 -10 -52.5 -22.5t-45.5 -26.5q-51 -35 -97.5 -73t-91.5 -79 q-98 -92 -184 -190q-8 -10 -26.5 -37t-39 -52.5t-40 -43t-31.5 -7.5q-14 8 -4 30zM165 967q-5 -31 9 -47q20 -4 45 5t47.5 24.5t40 36t23.5 38.5q0 2 1 2t1 2v2v2q4 45 -19 70q-10 10 -26.5 23.5t-7.5 29.5q0 2 2 4t2 4q-74 -53 -107 -147q-6 -18 -11 -49zM348 610 q-4 45 14 86q6 16 19.5 36t31 36t37 27.5t42.5 11.5q23 -2 25.5 -10.5t-3.5 -17.5t-18.5 -17t-20.5 -10q-25 -10 -44 -24.5t-30 -39.5q-12 -29 -14 -61.5t16 -57.5q14 -25 39 -36t52.5 -12t55.5 8.5t48 23.5q49 37 51 90t-26 102q-25 41 -54 58q-16 10 -33.5 15t-31.5 16 q-10 10 -8 20t12 16q4 2 14 2q29 0 54.5 -17t46 -42t36 -53.5t21.5 -52.5q8 -31 8 -65t-16 -62q-27 -49 -77 -73t-102.5 -22t-94.5 33t-50 92z" />
<glyph unicode="&#x26;" horiz-adv-x="450" d="M30 501.5q3 18.5 9 37t14 36t13 29.5l67 141q-6 10 -12 20.5t-10 20.5q-37 80 -39 164t20 168q18 53 44 101.5t67 89.5q14 14 32.5 30.5t41 29.5t46 19.5t46.5 2.5q33 -8 44 -31t9 -52.5t-11.5 -59t-17.5 -50.5q-41 -119 -97 -232.5t-114 -226.5q6 -10 12.5 -19t16.5 -20 q4 16 7 34t13 34q10 14 26.5 13t18.5 -21q2 -25 -10 -49.5t-22 -44.5q27 -29 55.5 -55.5t56.5 -47.5q-37 8 -68.5 24.5t-60.5 41.5q-45 -86 -114 -150q-14 -12 -39 -23.5t-41 13.5q-6 14 -3 32.5zM78 508q39 29 66.5 69.5t48.5 86.5l-29 34q-16 -31 -31.5 -61.5t-30.5 -65.5 zM113 989q-2 -53 8 -103t31 -95q39 74 75.5 148.5t71.5 147.5q16 41 31.5 80t27.5 78q8 16 16.5 46t-1.5 46q-2 0 -3 1t-5 1q-23 8 -45.5 0t-44 -24.5t-39 -35.5t-29.5 -34q-43 -53 -68.5 -121.5t-25.5 -134.5z" />
<glyph unicode="'" horiz-adv-x="135" d="M37 947.5q0 15.5 3 30.5t5 28q0 18 4 58t9 84t9.5 84t6.5 58q2 8 1 26.5t0 37t6 33t21 14.5q14 0 19.5 -12.5t4.5 -29t-4 -31.5t-5 -21q-6 -20 -13.5 -65.5t-13.5 -96.5t-9 -96t1 -66q0 -4 1 -23.5t0 -39t-8.5 -30.5t-21.5 5q-10 10 -13 23.5t-3 29z" />
<glyph unicode="(" horiz-adv-x="235" d="M30.5 914.5q0.5 129.5 47.5 246.5l15 40t22.5 46.5t30 39t36.5 18.5q27 4 23 -25q-4 -27 -31 -51.5t-39 -46.5q-12 -23 -20.5 -48.5t-14.5 -50.5q-16 -70 -21 -140.5t-1 -141.5q2 -51 8 -108.5t18.5 -114t31 -109.5t48.5 -96q-37 31 -58.5 70.5t-37.5 82.5v4 q-12 31 -20.5 65t-14.5 69q-23 121 -22.5 250.5z" />
<glyph unicode=")" horiz-adv-x="227" d="M29 1368q2 10 12 14q27 8 47.5 -8t35.5 -42.5t24.5 -54.5t15.5 -44q25 -84 31 -174t-0.5 -181.5t-23.5 -180.5t-42 -171q-14 -47 -31.5 -91t-42.5 -85q35 113 57.5 227.5t30.5 231.5q4 70 5.5 137.5t-5.5 136.5q-6 53 -16 112.5t-45 104.5q-10 16 -24.5 26t-24.5 26 q-6 6 -4 16z" />
<glyph unicode="*" horiz-adv-x="440" d="M31 1076.5q0 13.5 5 23.5t19 10q8 4 16.5 -3t10.5 -24q8 -23 9 -44t11 -40q14 -29 36 -53t46 -45l29 137q4 25 1 52.5t7 52.5q4 10 14.5 13t18.5 -3l8 -14q10 -29 2 -56.5t-12 -52.5l-29 -129q51 31 94 80q12 14 30 46t42 34q27 0 20.5 -19.5t-24.5 -44t-39.5 -46 l-23.5 -23.5q-45 -39 -91 -66l31 -24q29 -23 49.5 -44.5t38.5 -50.5q-25 18 -52.5 35t-51.5 33l-31 20q-2 -12 2 -30.5t7 -39t2 -36.5t-11 -25q-18 -12 -27.5 3.5t-12.5 40t-2 49t1 30.5h2v8q-18 -10 -49 -23t-53 1q-12 8 -18.5 28.5t-8.5 43t-1 45t1 35.5q-2 16 -3 33.5 t-5 33.5q-2 6 -5 20.5t-3 28zM86 944q0 -25 1 -52.5t9 -49.5q16 4 33.5 10t34.5 14q-12 10 -24.5 20.5t-22.5 22.5q-20 16 -31 35z" />
<glyph unicode="+" horiz-adv-x="567" d="M33 791q6 12 22.5 13t37 -4t39 -11.5t28.5 -6.5q47 -4 92 -2t90 6q4 35 8 69t4 67q-4 23 -10 45t-10 45q-2 20 13 26t30 -10q16 -23 13 -50.5t-1 -51.5q4 -35 0 -67t-8 -66l158 26q-31 -18 -58.5 -31.5t-62.5 -23.5l-39 -8q0 -9 -2 -11q0 -6 2 -28.5t0 -44t-8 -36.5 t-25 -7q-14 8 -17 23.5t-1 32.5t7 34.5t5 28.5q-47 -8 -93 -11.5t-91 0.5q-8 0 -32 1t-47.5 6.5t-38.5 15.5t-5 31z" />
<glyph unicode="," horiz-adv-x="159" d="M27 395q14 70 26.5 139.5t20.5 141.5q2 8 1 29.5t2 43t10 35t26 2.5q14 -8 17 -23t0 -31.5t-9 -34t-8 -29.5q-6 -41 -17.5 -82t-23.5 -80q-6 -20 -12.5 -37.5t-14.5 -34.5z" />
<glyph unicode="-" horiz-adv-x="473" d="M66 748q0 27 37.5 41t86 22t93.5 10t59 2q20 0 47 1t43 -17q10 -16 -1 -24.5t-25 -8.5q-25 -4 -50.5 3t-52.5 7q-29 0 -56.5 -4t-56.5 -10q-6 0 -25.5 -10t-41 -19.5t-38.5 -10.5t-19 18z" />
<glyph unicode="." horiz-adv-x="223" d="M85 696q-5 18 3 41q10 18 27.5 27.5t34.5 -0.5q14 -6 19 -24.5t-3 -41.5q-10 -18 -27.5 -27t-34.5 1q-14 6 -19 24z" />
<glyph unicode="/" horiz-adv-x="522" d="M33 289q-10 47 0 97t22 93q53 193 155.5 371t233.5 321q27 29 51.5 57.5t51.5 53.5q8 8 22.5 14.5t26.5 6.5t16 -8.5t-6 -26.5q-10 -16 -25.5 -26.5t-27.5 -22.5q-23 -16 -40 -36l-34 -40q-88 -98 -160.5 -209t-136.5 -227q-25 -47 -49 -99.5t-45.5 -108t-36 -110.5 t-14.5 -110q-2 0 -2 2q-2 2 -2 8z" />
<glyph unicode="0" d="M178 1059q70 37 137.5 67.5t145.5 53.5q4 0 8 20.5t8 45t8 48t9 31.5q23 35 67.5 53.5t77.5 34.5q88 35 179 61.5t183 51.5q94 23 188.5 39t190.5 24q33 4 80 8.5t95.5 3t92.5 -12.5t70 -38q2 -4 -2 -28.5t-6 -32.5l-6 -98q0 -4 4 -5q78 -23 152.5 -58.5t124.5 -102.5v-2 q-16 4 -37 -3.5t-41.5 -20.5t-38 -27.5t-27.5 -26.5q31 -16 50.5 -47t27.5 -67t6 -72.5t-12 -67.5q-16 43 -50 66.5t-75 35t-85 14.5t-83 5q-45 4 -94 2t-92 14q-16 6 -22.5 25.5t-7.5 43t2 46l5 37.5q-184 -14 -363.5 -56.5t-351.5 -101.5q-8 -2 -8 -6q2 -10 8 -34 t10.5 -50.5t6.5 -49t-6 -28.5q-23 -18 -59 -21.5t-64 -7.5q-39 -6 -79 -12t-79 -12q-35 -8 -66.5 -17.5t-62.5 -21.5q-14 -8 -28.5 -13.5t-28.5 -15.5q-8 -8 -18.5 -20.5t-16.5 -16.5q10 35 24.5 68t26.5 63q2 6 13.5 25.5t21.5 41t18 39t6 21.5q-25 35 -58.5 68t-78.5 37z M229 113h47q4 -41 7.5 -83t11.5 -83q4 41 10 83t14 83h37l25 -166q4 41 9 83t9 83h43l-43 -224h-43q-6 37 -11 74t-9 74q-4 -37 -11.5 -74t-13.5 -74h-43zM233 1065q68 -37 109 -109q2 -2 -4 -15t-14.5 -28.5t-15.5 -29t-9 -19.5q-25 -45 -41 -94q51 27 104.5 39t108.5 20.5 t109.5 15.5t107.5 23q-18 18 -47 25.5t-61.5 8.5t-65.5 -2l-55 -5v131t4 131q-59 -16 -116.5 -39.5t-113.5 -52.5zM449 113h45q4 -41 8 -83t10 -83q4 41 10 83t15 83h38l23 -166q4 41 9 83t9 83h43l-43 -224h-41q-8 37 -13 74t-9 74q-4 -37 -10 -74t-13 -74h-45zM485 954 q8 0 22.5 6.5t29 15.5t28 18.5t23.5 13.5q37 16 74.5 29.5t76.5 27.5q78 23 156 43t160 39q78 16 154.5 31.5t156.5 21.5q72 8 154.5 11.5t152.5 -29.5q6 55 6 112.5t4 110.5q0 29 2.5 57.5t6.5 57.5q2 14 -6.5 22t-20.5 13.5t-26.5 7.5t-26.5 4q-119 18 -246 0.5 t-246 -41.5q-129 -27 -255 -60.5t-249 -87.5q-23 -12 -46 -24.5t-44 -28.5q-20 -16 -24 -49t-8 -55q-8 -66 -8.5 -132.5t-0.5 -134.5zM510 1071q0 23 15.5 38t35.5 19q6 2 15.5 -2t5.5 -14q-12 -8 -23 -8q-12 -4 -16 -16.5t2 -22.5q4 -4 8 -5t8 -3q20 -2 33.5 11t23 33.5 t13.5 41t8 35.5q-27 -27 -61 -35q-27 -4 -43 12q-16 8 -17 37q0 27 12 51q27 61 86 98q12 6 25.5 12.5t28.5 10.5q10 4 21 12t22 10q12 0 6 -12q12 0 20 -2q16 -2 27.5 -15.5t13.5 -31.5q6 -43 -23.5 -83t-66.5 -62q-18 -12 -27.5 -32t-18.5 -39t-20.5 -37.5t-33.5 -29.5 q-23 -16 -53 -10q-12 4 -20.5 14.5t-6.5 24.5zM549 1182.5q2 -15.5 22 -15.5q31 0 49.5 19.5t31 47.5t18.5 58.5t10 50.5q-29 -6 -52.5 -23t-43.5 -38q-6 -6 -15.5 -25.5t-15.5 -39t-4 -35zM666 113h45q4 -41 9 -83t9 -83q4 41 10 83t15 83h39l24 -166q2 41 7 83t12 83h41 l-41 -224h-43q-8 37 -12.5 74t-10.5 74q-4 -37 -10 -74l-12 -74h-43zM674 1196q14 4 29.5 19.5t25.5 35t14.5 40t-0.5 34.5q-6 23 -32 23q-14 -37 -20.5 -75t-16.5 -77zM725 384q2 34 2 60q0 20 -1 39t1 39q0 49 26.5 67.5t73.5 18.5q37 0 54.5 -20.5t23.5 -50t4 -63.5 t-2 -60v-80q0 -47 -26.5 -66.5t-71.5 -17.5q-39 0 -56.5 20.5t-23.5 50t-4 63.5zM771 1198.5q-5 20.5 6 46t31.5 46t43.5 22.5q12 0 16 -10q8 -12 2 -29q-6 -23 -27.5 -40t-43.5 -22q2 -12 10 -13t17.5 3t17.5 10.5t12 10.5q25 20 36 45.5t21 52.5q2 2 -1 9t-8 15.5t-8 17.5 t-1 15q10 27 35 23q12 0 16 -12q4 -10 2 -22.5t-2 -25.5q20 2 28.5 -1t-3.5 -27q-8 -16 -17.5 -33.5t-11.5 -36.5q0 -10 6 -10q20 0 34.5 20.5t26 46t22.5 51t26 33.5q8 2 16 -2q2 -4 2 -12q-4 -12 -10 -21.5t-2 -23.5q6 -12 13 -25.5t5 -27.5h2q20 25 32.5 60.5t45.5 51.5 q37 14 49 -20q10 -14 6 -25.5t-2 -27.5q8 2 15 10q16 12 18 34.5t8 41.5q4 4 11.5 5t11.5 -1q10 -2 8 -12v-3q10 10 25 17q10 6 17 2t11 -14q4 -12 1 -22.5t-8 -22t-10 -22.5t-3 -24q14 12 24.5 26.5t18.5 30t17.5 29t25.5 23.5q20 10 51 0q4 6 17.5 8t9.5 -14 q-4 -18 -14.5 -39t-10.5 -41q0 -14 8 -2q20 20 30.5 48t20 55.5t23.5 53t43 42.5q14 8 25 -9q12 -23 4 -48t-25 -42q-14 -18 -42.5 -43.5t-24.5 -52.5q4 -16 22 -12q14 6 21.5 19.5t15.5 25.5q4 2 12 2t8 -10l-4 -13q-16 -39 -53 -53q-25 -14 -43 14q-4 5 -4 11 q-10 -8 -16 -15.5t-19 -11.5q-10 -4 -16 0l-12 8q-4 -4 -12.5 -8t-16.5 -6q-31 -6 -43 20v2q-8 -10 -17.5 -17t-23.5 -11q-14 -8 -25 12q-6 12 -3 23.5t8.5 21.5t9.5 21.5t2 23.5q-18 -8 -25.5 -19.5t-11.5 -25.5t-6 -28.5t-8 -28.5q-6 -16 -25 -8q-8 2 -8 10q0 4 1 9t1 7 q-14 -4 -19.5 -4t-15.5 -10t-24.5 -18.5t-30.5 -8.5q-10 2 -16.5 8.5t-10.5 14.5q-16 -16 -39.5 -32.5t-50.5 -12.5q-16 2 -25 18q-25 -29 -51 -37q-29 -12 -33 21q-4 27 8.5 44t22.5 38q2 4 -3 5t-7 -3q-8 -20 -18.5 -44t-26 -45.5t-35.5 -34.5t-47 -11q-31 2 -36 22.5z M781 408.5q-1 -37.5 1 -74.5q0 -16 9.5 -26.5t21.5 -14.5t23.5 1t15.5 23q2 12 2 27.5v30.5v147q0 16 -10 27.5t-22.5 15.5t-24 -2t-15.5 -22q-2 -14 -1 -29.5t1 -28.5q0 -37 -1 -74.5zM797 662q12 14 15 36.5t2 48t-4 49t-3 42.5v125q0 16 1 30.5t-11 28.5h75 q-14 -12 -12 -32.5t2 -37.5v-141q0 -16 -2 -49t10 -47q14 -23 38 -8.5t28 32.5q8 27 3 54.5t-9 54.5q-4 14 -10.5 37.5t-8.5 48t2.5 46t20.5 34.5q10 10 31.5 10t29.5 -16q6 -16 -2 -21.5t-18 -4.5t-17.5 8t0.5 16q-16 -8 -17 -29t6 -44.5t17.5 -46t14.5 -34.5 q12 -37 17 -87t-21 -85q-10 -14 -33.5 -19.5t-50.5 -5.5t-53.5 3.5t-40.5 3.5zM799 1233q12 -2 28.5 15.5t18.5 27.5q4 8 -2 12t-13 -2q-10 -10 -18 -24.5t-14 -28.5zM858 -82q0 14 9.5 22.5t21.5 8.5t21.5 -8.5t9.5 -22.5q0 -16 -9.5 -23.5t-21.5 -7.5t-21.5 7.5t-9.5 23.5 zM920 1370q-2 -8 4 -20h4q0 8 1 13t-1 13q-6 0 -8 -6zM924 250q10 14 13 34.5t2 44t-4 46t-3 39.5v172q0 10 -8 22h57q29 -12 51.5 -50t34.5 -66q0 25 2 59.5t-12 56.5h73q-12 -10 -11 -24.5t1 -28.5v-246q0 -14 -1 -31.5t11 -27.5h-206zM940 -111l59 224h64l59 -224h-51 l-14 52h-53l-11 -52h-53zM987 293q0 -14 11.5 -23.5t25.5 -11.5t27.5 3.5t15.5 19.5q-4 63 -21.5 127.5t-58.5 115.5v-231zM1009 752.5q-3 19.5 7 31.5t32.5 13.5t26.5 -21.5q0 -10 -7 -15t-15.5 -5t-14.5 4t-6 14q-12 -4 -12 -14t7 -20.5t17.5 -19.5t16.5 -11 q14 -4 34.5 -4t30.5 10q20 20 16.5 40.5t-19 38t-36 32t-30.5 24.5q-18 16 -30.5 42t-12.5 52.5t13 48t44 27.5q27 6 54.5 4t52.5 -2l-7 -10q0 -14 7.5 -29.5t13.5 -31t5 -30t-15 -26.5q-14 -10 -34 -9t-22 21q0 12 7.5 17.5t15.5 5.5t14 -5t4 -14q14 2 14.5 12.5t-8 21.5 t-18.5 20.5t-18 11.5q-14 4 -33 1t-25 -20q-12 -25 -4 -43t24.5 -32.5t37 -27.5t32.5 -28q14 -20 22.5 -46.5t4.5 -52.5t-20.5 -44t-47.5 -22q-27 -2 -53 -1t-55 1q8 4 5 19t-8 33.5t-8 38zM1010 -20h41q-4 23 -9.5 46t-11.5 46zM1018 1260q4 -12 16.5 -10.5t14.5 14.5 q1 18 -11 43q-6 -8 -14 -22.5t-6 -24.5zM1135 1305l4 -15q10 -14 24 -6q16 4 23.5 21.5t3.5 33.5q-2 10 -9 16.5t-22 -3.5q-20 -14 -24 -47zM1141 250q12 14 15 36.5t2 47t-4 48.5t-3 40v127q0 16 1 29.5t-11 29.5h76q-10 -10 -13.5 -30.5t-2.5 -42t3 -43t2 -35.5v-166h105 q23 0 55.5 -3t54.5 13q-4 -8 -7 -29.5t-13 -21.5h-260zM1149 -111v222q29 4 64.5 6t62.5 -15q31 -23 23 -57.5t-37 -48.5q14 -6 21 -19.5t10 -29t5 -30.5t9 -28h-52q-6 12 -8 27.5t-6 29t-12 22.5t-27 7v-86h-53zM1200 49.5q2 -24.5 2 -35.5h12q18 0 26.5 10.5t6.5 22.5 t-11 21.5t-28 7.5q-10 -2 -8 -26.5zM1208 662q10 12 11.5 25t1.5 28v248q0 14 -1 30.5t-12 28.5h127q25 -25 26 -59.5t-9 -67.5q-4 -8 -15.5 -29.5t-20.5 -45t-11 -45t10 -27.5q-6 12 4 13t21.5 -4t14.5 -14.5t-18 -17.5q-25 -10 -35 9.5t-8 35.5q0 16 6.5 32.5t8.5 31 t-4.5 22.5t-28.5 6v-155q16 0 41.5 -3.5t44.5 11.5q-6 -14 -8 -26.5t-6 -26.5h-140zM1241 608h78q-12 -29 2 -65.5t27 -61.5q12 29 22 63t0 64h80q-23 -12 -27 -38.5t-10 -47.5q-6 -20 -23.5 -48t-17.5 -48q0 -23 -3 -56.5t13 -52.5h-75q18 18 14 54t-4 59 q-12 23 -21.5 46.5t-17.5 45.5q-10 23 -14 46.5t-23 39.5zM1276 907q20 0 46 2t28 33q0 16 -7.5 23.5t-18.5 10.5t-24.5 3h-23.5v-72zM1335 -111v224h54v-224h-54zM1389 1337q-4 -10 1 -27.5t21 -2.5q12 12 21.5 32.5t11.5 38.5q-2 8 -4 13.5t-13 1.5q-16 -8 -25 -23.5 t-13 -32.5zM1417 -82q0 14 9.5 22.5t21.5 8.5t21.5 -8.5t9.5 -22.5q0 -16 -9.5 -23.5t-21.5 -7.5t-21.5 7.5t-9.5 23.5zM1438 1059q-8 -6 4 -8q27 -10 57.5 -13.5t62 -3.5h62.5t59 -2q29 -2 57.5 -5t57.5 -13q29 -8 51.5 -23.5t48.5 -27.5q0 61 -21.5 106t-80.5 68 q35 31 70 58.5t76 43.5q-49 47 -111 77t-127 46q-2 -57 -3 -112.5t-5 -112.5l-2 2v-6q-27 -2 -65 -4.5t-74.5 -9.5t-68.5 -21.5t-48 -38.5zM1507 -111v224h58l67 -152q-4 39 -4 77v75h47v-224h-51q-20 39 -36.5 79t-35.5 77q2 -39 2 -78v-78h-47zM1536 1403q16 20 31.5 39.5 t19.5 46.5h-2q-37 -37 -49 -86zM1706 -22.5q-8 36.5 14 79.5q12 29 40 43.5t63 14.5h10t17.5 -2t16.5 -4.5t7 -4.5l-8 -41q-27 12 -48.5 8.5t-37 -18t-20.5 -37t3 -47.5q16 -47 62 -41q10 2 8 21.5t-2 27.5h-27v41h76v-120q-41 -16 -79 -9t-62.5 29.5t-32.5 59z" />
<glyph unicode="1" d="M178 1059q70 37 137.5 67.5t145.5 53.5q4 0 8 20.5t8 45t8 48t9 31.5q23 35 67.5 53.5t77.5 34.5q88 35 179 61.5t183 51.5q94 23 188.5 39t190.5 24q33 4 80 8.5t95.5 3t92.5 -12.5t70 -38q2 -4 -2 -28.5t-6 -32.5l-6 -98q0 -4 4 -5q78 -23 152.5 -58.5t124.5 -102.5v-2 q-16 4 -37 -3.5t-41.5 -20.5t-38 -27.5t-27.5 -26.5q31 -16 50.5 -47t27.5 -67t6 -72.5t-12 -67.5q-16 43 -50 66.5t-75 35t-85 14.5t-83 5q-45 4 -94 2t-92 14q-16 6 -22.5 25.5t-7.5 43t2 46l5 37.5q-184 -14 -363.5 -56.5t-351.5 -101.5q-8 -2 -8 -6q2 -10 8 -34 t10.5 -50.5t6.5 -49t-6 -28.5q-23 -18 -59 -21.5t-64 -7.5q-39 -6 -79 -12t-79 -12q-35 -8 -66.5 -17.5t-62.5 -21.5q-14 -8 -28.5 -13.5t-28.5 -15.5q-8 -8 -18.5 -20.5t-16.5 -16.5q10 35 24.5 68t26.5 63q2 6 13.5 25.5t21.5 41t18 39t6 21.5q-25 35 -58.5 68t-78.5 37z M229 113h47q4 -41 7.5 -83t11.5 -83q4 41 10 83t14 83h37l25 -166q4 41 9 83t9 83h43l-43 -224h-43q-6 37 -11 74t-9 74q-4 -37 -11.5 -74t-13.5 -74h-43zM233 1065q68 -37 109 -109q2 -2 -4 -15t-14.5 -28.5t-15.5 -29t-9 -19.5q-25 -45 -41 -94q51 27 104.5 39t108.5 20.5 t109.5 15.5t107.5 23q-18 18 -47 25.5t-61.5 8.5t-65.5 -2l-55 -5v131t4 131q-59 -16 -116.5 -39.5t-113.5 -52.5zM449 113h45q4 -41 8 -83t10 -83q4 41 10 83t15 83h38l23 -166q4 41 9 83t9 83h43l-43 -224h-41q-8 37 -13 74t-9 74q-4 -37 -10 -74t-13 -74h-45zM485 954 q8 0 22.5 6.5t29 15.5t28 18.5t23.5 13.5q37 16 74.5 29.5t76.5 27.5q78 23 156 43t160 39q78 16 154.5 31.5t156.5 21.5q72 8 154.5 11.5t152.5 -29.5q6 55 6 112.5t4 110.5q0 29 2.5 57.5t6.5 57.5q2 14 -6.5 22t-20.5 13.5t-26.5 7.5t-26.5 4q-119 18 -246 0.5 t-246 -41.5q-129 -27 -255 -60.5t-249 -87.5q-23 -12 -46 -24.5t-44 -28.5q-20 -16 -24 -49t-8 -55q-8 -66 -8.5 -132.5t-0.5 -134.5zM510 1071q0 23 15.5 38t35.5 19q6 2 15.5 -2t5.5 -14q-12 -8 -23 -8q-12 -4 -16 -16.5t2 -22.5q4 -4 8 -5t8 -3q20 -2 33.5 11t23 33.5 t13.5 41t8 35.5q-27 -27 -61 -35q-27 -4 -43 12q-16 8 -17 37q0 27 12 51q27 61 86 98q12 6 25.5 12.5t28.5 10.5q10 4 21 12t22 10q12 0 6 -12q12 0 20 -2q16 -2 27.5 -15.5t13.5 -31.5q6 -43 -23.5 -83t-66.5 -62q-18 -12 -27.5 -32t-18.5 -39t-20.5 -37.5t-33.5 -29.5 q-23 -16 -53 -10q-12 4 -20.5 14.5t-6.5 24.5zM549 1182.5q2 -15.5 22 -15.5q31 0 49.5 19.5t31 47.5t18.5 58.5t10 50.5q-29 -6 -52.5 -23t-43.5 -38q-6 -6 -15.5 -25.5t-15.5 -39t-4 -35zM666 113h45q4 -41 9 -83t9 -83q4 41 10 83t15 83h39l24 -166q2 41 7 83t12 83h41 l-41 -224h-43q-8 37 -12.5 74t-10.5 74q-4 -37 -10 -74l-12 -74h-43zM674 1196q14 4 29.5 19.5t25.5 35t14.5 40t-0.5 34.5q-6 23 -32 23q-14 -37 -20.5 -75t-16.5 -77zM725 384q2 34 2 60q0 20 -1 39t1 39q0 49 26.5 67.5t73.5 18.5q37 0 54.5 -20.5t23.5 -50t4 -63.5 t-2 -60v-80q0 -47 -26.5 -66.5t-71.5 -17.5q-39 0 -56.5 20.5t-23.5 50t-4 63.5zM771 1198.5q-5 20.5 6 46t31.5 46t43.5 22.5q12 0 16 -10q8 -12 2 -29q-6 -23 -27.5 -40t-43.5 -22q2 -12 10 -13t17.5 3t17.5 10.5t12 10.5q25 20 36 45.5t21 52.5q2 2 -1 9t-8 15.5t-8 17.5 t-1 15q10 27 35 23q12 0 16 -12q4 -10 2 -22.5t-2 -25.5q20 2 28.5 -1t-3.5 -27q-8 -16 -17.5 -33.5t-11.5 -36.5q0 -10 6 -10q20 0 34.5 20.5t26 46t22.5 51t26 33.5q8 2 16 -2q2 -4 2 -12q-4 -12 -10 -21.5t-2 -23.5q6 -12 13 -25.5t5 -27.5h2q20 25 32.5 60.5t45.5 51.5 q37 14 49 -20q10 -14 6 -25.5t-2 -27.5q8 2 15 10q16 12 18 34.5t8 41.5q4 4 11.5 5t11.5 -1q10 -2 8 -12v-3q10 10 25 17q10 6 17 2t11 -14q4 -12 1 -22.5t-8 -22t-10 -22.5t-3 -24q14 12 24.5 26.5t18.5 30t17.5 29t25.5 23.5q20 10 51 0q4 6 17.5 8t9.5 -14 q-4 -18 -14.5 -39t-10.5 -41q0 -14 8 -2q20 20 30.5 48t20 55.5t23.5 53t43 42.5q14 8 25 -9q12 -23 4 -48t-25 -42q-14 -18 -42.5 -43.5t-24.5 -52.5q4 -16 22 -12q14 6 21.5 19.5t15.5 25.5q4 2 12 2t8 -10l-4 -13q-16 -39 -53 -53q-25 -14 -43 14q-4 5 -4 11 q-10 -8 -16 -15.5t-19 -11.5q-10 -4 -16 0l-12 8q-4 -4 -12.5 -8t-16.5 -6q-31 -6 -43 20v2q-8 -10 -17.5 -17t-23.5 -11q-14 -8 -25 12q-6 12 -3 23.5t8.5 21.5t9.5 21.5t2 23.5q-18 -8 -25.5 -19.5t-11.5 -25.5t-6 -28.5t-8 -28.5q-6 -16 -25 -8q-8 2 -8 10q0 4 1 9t1 7 q-14 -4 -19.5 -4t-15.5 -10t-24.5 -18.5t-30.5 -8.5q-10 2 -16.5 8.5t-10.5 14.5q-16 -16 -39.5 -32.5t-50.5 -12.5q-16 2 -25 18q-25 -29 -51 -37q-29 -12 -33 21q-4 27 8.5 44t22.5 38q2 4 -3 5t-7 -3q-8 -20 -18.5 -44t-26 -45.5t-35.5 -34.5t-47 -11q-31 2 -36 22.5z M781 408.5q-1 -37.5 1 -74.5q0 -16 9.5 -26.5t21.5 -14.5t23.5 1t15.5 23q2 12 2 27.5v30.5v147q0 16 -10 27.5t-22.5 15.5t-24 -2t-15.5 -22q-2 -14 -1 -29.5t1 -28.5q0 -37 -1 -74.5zM797 662q12 14 15 36.5t2 48t-4 49t-3 42.5v125q0 16 1 30.5t-11 28.5h75 q-14 -12 -12 -32.5t2 -37.5v-141q0 -16 -2 -49t10 -47q14 -23 38 -8.5t28 32.5q8 27 3 54.5t-9 54.5q-4 14 -10.5 37.5t-8.5 48t2.5 46t20.5 34.5q10 10 31.5 10t29.5 -16q6 -16 -2 -21.5t-18 -4.5t-17.5 8t0.5 16q-16 -8 -17 -29t6 -44.5t17.5 -46t14.5 -34.5 q12 -37 17 -87t-21 -85q-10 -14 -33.5 -19.5t-50.5 -5.5t-53.5 3.5t-40.5 3.5zM799 1233q12 -2 28.5 15.5t18.5 27.5q4 8 -2 12t-13 -2q-10 -10 -18 -24.5t-14 -28.5zM858 -82q0 14 9.5 22.5t21.5 8.5t21.5 -8.5t9.5 -22.5q0 -16 -9.5 -23.5t-21.5 -7.5t-21.5 7.5t-9.5 23.5 zM920 1370q-2 -8 4 -20h4q0 8 1 13t-1 13q-6 0 -8 -6zM924 250q10 14 13 34.5t2 44t-4 46t-3 39.5v172q0 10 -8 22h57q29 -12 51.5 -50t34.5 -66q0 25 2 59.5t-12 56.5h73q-12 -10 -11 -24.5t1 -28.5v-246q0 -14 -1 -31.5t11 -27.5h-206zM940 -111l59 224h64l59 -224h-51 l-14 52h-53l-11 -52h-53zM987 293q0 -14 11.5 -23.5t25.5 -11.5t27.5 3.5t15.5 19.5q-4 63 -21.5 127.5t-58.5 115.5v-231zM1009 752.5q-3 19.5 7 31.5t32.5 13.5t26.5 -21.5q0 -10 -7 -15t-15.5 -5t-14.5 4t-6 14q-12 -4 -12 -14t7 -20.5t17.5 -19.5t16.5 -11 q14 -4 34.5 -4t30.5 10q20 20 16.5 40.5t-19 38t-36 32t-30.5 24.5q-18 16 -30.5 42t-12.5 52.5t13 48t44 27.5q27 6 54.5 4t52.5 -2l-7 -10q0 -14 7.5 -29.5t13.5 -31t5 -30t-15 -26.5q-14 -10 -34 -9t-22 21q0 12 7.5 17.5t15.5 5.5t14 -5t4 -14q14 2 14.5 12.5t-8 21.5 t-18.5 20.5t-18 11.5q-14 4 -33 1t-25 -20q-12 -25 -4 -43t24.5 -32.5t37 -27.5t32.5 -28q14 -20 22.5 -46.5t4.5 -52.5t-20.5 -44t-47.5 -22q-27 -2 -53 -1t-55 1q8 4 5 19t-8 33.5t-8 38zM1010 -20h41q-4 23 -9.5 46t-11.5 46zM1018 1260q4 -12 16.5 -10.5t14.5 14.5 q1 18 -11 43q-6 -8 -14 -22.5t-6 -24.5zM1135 1305l4 -15q10 -14 24 -6q16 4 23.5 21.5t3.5 33.5q-2 10 -9 16.5t-22 -3.5q-20 -14 -24 -47zM1141 250q12 14 15 36.5t2 47t-4 48.5t-3 40v127q0 16 1 29.5t-11 29.5h76q-10 -10 -13.5 -30.5t-2.5 -42t3 -43t2 -35.5v-166h105 q23 0 55.5 -3t54.5 13q-4 -8 -7 -29.5t-13 -21.5h-260zM1149 -111v222q29 4 64.5 6t62.5 -15q31 -23 23 -57.5t-37 -48.5q14 -6 21 -19.5t10 -29t5 -30.5t9 -28h-52q-6 12 -8 27.5t-6 29t-12 22.5t-27 7v-86h-53zM1200 49.5q2 -24.5 2 -35.5h12q18 0 26.5 10.5t6.5 22.5 t-11 21.5t-28 7.5q-10 -2 -8 -26.5zM1208 662q10 12 11.5 25t1.5 28v248q0 14 -1 30.5t-12 28.5h127q25 -25 26 -59.5t-9 -67.5q-4 -8 -15.5 -29.5t-20.5 -45t-11 -45t10 -27.5q-6 12 4 13t21.5 -4t14.5 -14.5t-18 -17.5q-25 -10 -35 9.5t-8 35.5q0 16 6.5 32.5t8.5 31 t-4.5 22.5t-28.5 6v-155q16 0 41.5 -3.5t44.5 11.5q-6 -14 -8 -26.5t-6 -26.5h-140zM1241 608h78q-12 -29 2 -65.5t27 -61.5q12 29 22 63t0 64h80q-23 -12 -27 -38.5t-10 -47.5q-6 -20 -23.5 -48t-17.5 -48q0 -23 -3 -56.5t13 -52.5h-75q18 18 14 54t-4 59 q-12 23 -21.5 46.5t-17.5 45.5q-10 23 -14 46.5t-23 39.5zM1276 907q20 0 46 2t28 33q0 16 -7.5 23.5t-18.5 10.5t-24.5 3h-23.5v-72zM1335 -111v224h54v-224h-54zM1389 1337q-4 -10 1 -27.5t21 -2.5q12 12 21.5 32.5t11.5 38.5q-2 8 -4 13.5t-13 1.5q-16 -8 -25 -23.5 t-13 -32.5zM1417 -82q0 14 9.5 22.5t21.5 8.5t21.5 -8.5t9.5 -22.5q0 -16 -9.5 -23.5t-21.5 -7.5t-21.5 7.5t-9.5 23.5zM1438 1059q-8 -6 4 -8q27 -10 57.5 -13.5t62 -3.5h62.5t59 -2q29 -2 57.5 -5t57.5 -13q29 -8 51.5 -23.5t48.5 -27.5q0 61 -21.5 106t-80.5 68 q35 31 70 58.5t76 43.5q-49 47 -111 77t-127 46q-2 -57 -3 -112.5t-5 -112.5l-2 2v-6q-27 -2 -65 -4.5t-74.5 -9.5t-68.5 -21.5t-48 -38.5zM1507 -111v224h58l67 -152q-4 39 -4 77v75h47v-224h-51q-20 39 -36.5 79t-35.5 77q2 -39 2 -78v-78h-47zM1536 1403q16 20 31.5 39.5 t19.5 46.5h-2q-37 -37 -49 -86zM1706 -22.5q-8 36.5 14 79.5q12 29 40 43.5t63 14.5h10t17.5 -2t16.5 -4.5t7 -4.5l-8 -41q-27 12 -48.5 8.5t-37 -18t-20.5 -37t3 -47.5q16 -47 62 -41q10 2 8 21.5t-2 27.5h-27v41h76v-120q-41 -16 -79 -9t-62.5 29.5t-32.5 59z" />
<glyph unicode="2" d="M178 1059q70 37 137.5 67.5t145.5 53.5q4 0 8 20.5t8 45t8 48t9 31.5q23 35 67.5 53.5t77.5 34.5q88 35 179 61.5t183 51.5q94 23 188.5 39t190.5 24q33 4 80 8.5t95.5 3t92.5 -12.5t70 -38q2 -4 -2 -28.5t-6 -32.5l-6 -98q0 -4 4 -5q78 -23 152.5 -58.5t124.5 -102.5v-2 q-16 4 -37 -3.5t-41.5 -20.5t-38 -27.5t-27.5 -26.5q31 -16 50.5 -47t27.5 -67t6 -72.5t-12 -67.5q-16 43 -50 66.5t-75 35t-85 14.5t-83 5q-45 4 -94 2t-92 14q-16 6 -22.5 25.5t-7.5 43t2 46l5 37.5q-184 -14 -363.5 -56.5t-351.5 -101.5q-8 -2 -8 -6q2 -10 8 -34 t10.5 -50.5t6.5 -49t-6 -28.5q-23 -18 -59 -21.5t-64 -7.5q-39 -6 -79 -12t-79 -12q-35 -8 -66.5 -17.5t-62.5 -21.5q-14 -8 -28.5 -13.5t-28.5 -15.5q-8 -8 -18.5 -20.5t-16.5 -16.5q10 35 24.5 68t26.5 63q2 6 13.5 25.5t21.5 41t18 39t6 21.5q-25 35 -58.5 68t-78.5 37z M229 113h47q4 -41 7.5 -83t11.5 -83q4 41 10 83t14 83h37l25 -166q4 41 9 83t9 83h43l-43 -224h-43q-6 37 -11 74t-9 74q-4 -37 -11.5 -74t-13.5 -74h-43zM233 1065q68 -37 109 -109q2 -2 -4 -15t-14.5 -28.5t-15.5 -29t-9 -19.5q-25 -45 -41 -94q51 27 104.5 39t108.5 20.5 t109.5 15.5t107.5 23q-18 18 -47 25.5t-61.5 8.5t-65.5 -2l-55 -5v131t4 131q-59 -16 -116.5 -39.5t-113.5 -52.5zM449 113h45q4 -41 8 -83t10 -83q4 41 10 83t15 83h38l23 -166q4 41 9 83t9 83h43l-43 -224h-41q-8 37 -13 74t-9 74q-4 -37 -10 -74t-13 -74h-45zM485 954 q8 0 22.5 6.5t29 15.5t28 18.5t23.5 13.5q37 16 74.5 29.5t76.5 27.5q78 23 156 43t160 39q78 16 154.5 31.5t156.5 21.5q72 8 154.5 11.5t152.5 -29.5q6 55 6 112.5t4 110.5q0 29 2.5 57.5t6.5 57.5q2 14 -6.5 22t-20.5 13.5t-26.5 7.5t-26.5 4q-119 18 -246 0.5 t-246 -41.5q-129 -27 -255 -60.5t-249 -87.5q-23 -12 -46 -24.5t-44 -28.5q-20 -16 -24 -49t-8 -55q-8 -66 -8.5 -132.5t-0.5 -134.5zM510 1071q0 23 15.5 38t35.5 19q6 2 15.5 -2t5.5 -14q-12 -8 -23 -8q-12 -4 -16 -16.5t2 -22.5q4 -4 8 -5t8 -3q20 -2 33.5 11t23 33.5 t13.5 41t8 35.5q-27 -27 -61 -35q-27 -4 -43 12q-16 8 -17 37q0 27 12 51q27 61 86 98q12 6 25.5 12.5t28.5 10.5q10 4 21 12t22 10q12 0 6 -12q12 0 20 -2q16 -2 27.5 -15.5t13.5 -31.5q6 -43 -23.5 -83t-66.5 -62q-18 -12 -27.5 -32t-18.5 -39t-20.5 -37.5t-33.5 -29.5 q-23 -16 -53 -10q-12 4 -20.5 14.5t-6.5 24.5zM549 1182.5q2 -15.5 22 -15.5q31 0 49.5 19.5t31 47.5t18.5 58.5t10 50.5q-29 -6 -52.5 -23t-43.5 -38q-6 -6 -15.5 -25.5t-15.5 -39t-4 -35zM666 113h45q4 -41 9 -83t9 -83q4 41 10 83t15 83h39l24 -166q2 41 7 83t12 83h41 l-41 -224h-43q-8 37 -12.5 74t-10.5 74q-4 -37 -10 -74l-12 -74h-43zM674 1196q14 4 29.5 19.5t25.5 35t14.5 40t-0.5 34.5q-6 23 -32 23q-14 -37 -20.5 -75t-16.5 -77zM725 384q2 34 2 60q0 20 -1 39t1 39q0 49 26.5 67.5t73.5 18.5q37 0 54.5 -20.5t23.5 -50t4 -63.5 t-2 -60v-80q0 -47 -26.5 -66.5t-71.5 -17.5q-39 0 -56.5 20.5t-23.5 50t-4 63.5zM771 1198.5q-5 20.5 6 46t31.5 46t43.5 22.5q12 0 16 -10q8 -12 2 -29q-6 -23 -27.5 -40t-43.5 -22q2 -12 10 -13t17.5 3t17.5 10.5t12 10.5q25 20 36 45.5t21 52.5q2 2 -1 9t-8 15.5t-8 17.5 t-1 15q10 27 35 23q12 0 16 -12q4 -10 2 -22.5t-2 -25.5q20 2 28.5 -1t-3.5 -27q-8 -16 -17.5 -33.5t-11.5 -36.5q0 -10 6 -10q20 0 34.5 20.5t26 46t22.5 51t26 33.5q8 2 16 -2q2 -4 2 -12q-4 -12 -10 -21.5t-2 -23.5q6 -12 13 -25.5t5 -27.5h2q20 25 32.5 60.5t45.5 51.5 q37 14 49 -20q10 -14 6 -25.5t-2 -27.5q8 2 15 10q16 12 18 34.5t8 41.5q4 4 11.5 5t11.5 -1q10 -2 8 -12v-3q10 10 25 17q10 6 17 2t11 -14q4 -12 1 -22.5t-8 -22t-10 -22.5t-3 -24q14 12 24.5 26.5t18.5 30t17.5 29t25.5 23.5q20 10 51 0q4 6 17.5 8t9.5 -14 q-4 -18 -14.5 -39t-10.5 -41q0 -14 8 -2q20 20 30.5 48t20 55.5t23.5 53t43 42.5q14 8 25 -9q12 -23 4 -48t-25 -42q-14 -18 -42.5 -43.5t-24.5 -52.5q4 -16 22 -12q14 6 21.5 19.5t15.5 25.5q4 2 12 2t8 -10l-4 -13q-16 -39 -53 -53q-25 -14 -43 14q-4 5 -4 11 q-10 -8 -16 -15.5t-19 -11.5q-10 -4 -16 0l-12 8q-4 -4 -12.5 -8t-16.5 -6q-31 -6 -43 20v2q-8 -10 -17.5 -17t-23.5 -11q-14 -8 -25 12q-6 12 -3 23.5t8.5 21.5t9.5 21.5t2 23.5q-18 -8 -25.5 -19.5t-11.5 -25.5t-6 -28.5t-8 -28.5q-6 -16 -25 -8q-8 2 -8 10q0 4 1 9t1 7 q-14 -4 -19.5 -4t-15.5 -10t-24.5 -18.5t-30.5 -8.5q-10 2 -16.5 8.5t-10.5 14.5q-16 -16 -39.5 -32.5t-50.5 -12.5q-16 2 -25 18q-25 -29 -51 -37q-29 -12 -33 21q-4 27 8.5 44t22.5 38q2 4 -3 5t-7 -3q-8 -20 -18.5 -44t-26 -45.5t-35.5 -34.5t-47 -11q-31 2 -36 22.5z M781 408.5q-1 -37.5 1 -74.5q0 -16 9.5 -26.5t21.5 -14.5t23.5 1t15.5 23q2 12 2 27.5v30.5v147q0 16 -10 27.5t-22.5 15.5t-24 -2t-15.5 -22q-2 -14 -1 -29.5t1 -28.5q0 -37 -1 -74.5zM797 662q12 14 15 36.5t2 48t-4 49t-3 42.5v125q0 16 1 30.5t-11 28.5h75 q-14 -12 -12 -32.5t2 -37.5v-141q0 -16 -2 -49t10 -47q14 -23 38 -8.5t28 32.5q8 27 3 54.5t-9 54.5q-4 14 -10.5 37.5t-8.5 48t2.5 46t20.5 34.5q10 10 31.5 10t29.5 -16q6 -16 -2 -21.5t-18 -4.5t-17.5 8t0.5 16q-16 -8 -17 -29t6 -44.5t17.5 -46t14.5 -34.5 q12 -37 17 -87t-21 -85q-10 -14 -33.5 -19.5t-50.5 -5.5t-53.5 3.5t-40.5 3.5zM799 1233q12 -2 28.5 15.5t18.5 27.5q4 8 -2 12t-13 -2q-10 -10 -18 -24.5t-14 -28.5zM858 -82q0 14 9.5 22.5t21.5 8.5t21.5 -8.5t9.5 -22.5q0 -16 -9.5 -23.5t-21.5 -7.5t-21.5 7.5t-9.5 23.5 zM920 1370q-2 -8 4 -20h4q0 8 1 13t-1 13q-6 0 -8 -6zM924 250q10 14 13 34.5t2 44t-4 46t-3 39.5v172q0 10 -8 22h57q29 -12 51.5 -50t34.5 -66q0 25 2 59.5t-12 56.5h73q-12 -10 -11 -24.5t1 -28.5v-246q0 -14 -1 -31.5t11 -27.5h-206zM940 -111l59 224h64l59 -224h-51 l-14 52h-53l-11 -52h-53zM987 293q0 -14 11.5 -23.5t25.5 -11.5t27.5 3.5t15.5 19.5q-4 63 -21.5 127.5t-58.5 115.5v-231zM1009 752.5q-3 19.5 7 31.5t32.5 13.5t26.5 -21.5q0 -10 -7 -15t-15.5 -5t-14.5 4t-6 14q-12 -4 -12 -14t7 -20.5t17.5 -19.5t16.5 -11 q14 -4 34.5 -4t30.5 10q20 20 16.5 40.5t-19 38t-36 32t-30.5 24.5q-18 16 -30.5 42t-12.5 52.5t13 48t44 27.5q27 6 54.5 4t52.5 -2l-7 -10q0 -14 7.5 -29.5t13.5 -31t5 -30t-15 -26.5q-14 -10 -34 -9t-22 21q0 12 7.5 17.5t15.5 5.5t14 -5t4 -14q14 2 14.5 12.5t-8 21.5 t-18.5 20.5t-18 11.5q-14 4 -33 1t-25 -20q-12 -25 -4 -43t24.5 -32.5t37 -27.5t32.5 -28q14 -20 22.5 -46.5t4.5 -52.5t-20.5 -44t-47.5 -22q-27 -2 -53 -1t-55 1q8 4 5 19t-8 33.5t-8 38zM1010 -20h41q-4 23 -9.5 46t-11.5 46zM1018 1260q4 -12 16.5 -10.5t14.5 14.5 q1 18 -11 43q-6 -8 -14 -22.5t-6 -24.5zM1135 1305l4 -15q10 -14 24 -6q16 4 23.5 21.5t3.5 33.5q-2 10 -9 16.5t-22 -3.5q-20 -14 -24 -47zM1141 250q12 14 15 36.5t2 47t-4 48.5t-3 40v127q0 16 1 29.5t-11 29.5h76q-10 -10 -13.5 -30.5t-2.5 -42t3 -43t2 -35.5v-166h105 q23 0 55.5 -3t54.5 13q-4 -8 -7 -29.5t-13 -21.5h-260zM1149 -111v222q29 4 64.5 6t62.5 -15q31 -23 23 -57.5t-37 -48.5q14 -6 21 -19.5t10 -29t5 -30.5t9 -28h-52q-6 12 -8 27.5t-6 29t-12 22.5t-27 7v-86h-53zM1200 49.5q2 -24.5 2 -35.5h12q18 0 26.5 10.5t6.5 22.5 t-11 21.5t-28 7.5q-10 -2 -8 -26.5zM1208 662q10 12 11.5 25t1.5 28v248q0 14 -1 30.5t-12 28.5h127q25 -25 26 -59.5t-9 -67.5q-4 -8 -15.5 -29.5t-20.5 -45t-11 -45t10 -27.5q-6 12 4 13t21.5 -4t14.5 -14.5t-18 -17.5q-25 -10 -35 9.5t-8 35.5q0 16 6.5 32.5t8.5 31 t-4.5 22.5t-28.5 6v-155q16 0 41.5 -3.5t44.5 11.5q-6 -14 -8 -26.5t-6 -26.5h-140zM1241 608h78q-12 -29 2 -65.5t27 -61.5q12 29 22 63t0 64h80q-23 -12 -27 -38.5t-10 -47.5q-6 -20 -23.5 -48t-17.5 -48q0 -23 -3 -56.5t13 -52.5h-75q18 18 14 54t-4 59 q-12 23 -21.5 46.5t-17.5 45.5q-10 23 -14 46.5t-23 39.5zM1276 907q20 0 46 2t28 33q0 16 -7.5 23.5t-18.5 10.5t-24.5 3h-23.5v-72zM1335 -111v224h54v-224h-54zM1389 1337q-4 -10 1 -27.5t21 -2.5q12 12 21.5 32.5t11.5 38.5q-2 8 -4 13.5t-13 1.5q-16 -8 -25 -23.5 t-13 -32.5zM1417 -82q0 14 9.5 22.5t21.5 8.5t21.5 -8.5t9.5 -22.5q0 -16 -9.5 -23.5t-21.5 -7.5t-21.5 7.5t-9.5 23.5zM1438 1059q-8 -6 4 -8q27 -10 57.5 -13.5t62 -3.5h62.5t59 -2q29 -2 57.5 -5t57.5 -13q29 -8 51.5 -23.5t48.5 -27.5q0 61 -21.5 106t-80.5 68 q35 31 70 58.5t76 43.5q-49 47 -111 77t-127 46q-2 -57 -3 -112.5t-5 -112.5l-2 2v-6q-27 -2 -65 -4.5t-74.5 -9.5t-68.5 -21.5t-48 -38.5zM1507 -111v224h58l67 -152q-4 39 -4 77v75h47v-224h-51q-20 39 -36.5 79t-35.5 77q2 -39 2 -78v-78h-47zM1536 1403q16 20 31.5 39.5 t19.5 46.5h-2q-37 -37 -49 -86zM1706 -22.5q-8 36.5 14 79.5q12 29 40 43.5t63 14.5h10t17.5 -2t16.5 -4.5t7 -4.5l-8 -41q-27 12 -48.5 8.5t-37 -18t-20.5 -37t3 -47.5q16 -47 62 -41q10 2 8 21.5t-2 27.5h-27v41h76v-120q-41 -16 -79 -9t-62.5 29.5t-32.5 59z" />
<glyph unicode="3" d="M178 1059q70 37 137.5 67.5t145.5 53.5q4 0 8 20.5t8 45t8 48t9 31.5q23 35 67.5 53.5t77.5 34.5q88 35 179 61.5t183 51.5q94 23 188.5 39t190.5 24q33 4 80 8.5t95.5 3t92.5 -12.5t70 -38q2 -4 -2 -28.5t-6 -32.5l-6 -98q0 -4 4 -5q78 -23 152.5 -58.5t124.5 -102.5v-2 q-16 4 -37 -3.5t-41.5 -20.5t-38 -27.5t-27.5 -26.5q31 -16 50.5 -47t27.5 -67t6 -72.5t-12 -67.5q-16 43 -50 66.5t-75 35t-85 14.5t-83 5q-45 4 -94 2t-92 14q-16 6 -22.5 25.5t-7.5 43t2 46l5 37.5q-184 -14 -363.5 -56.5t-351.5 -101.5q-8 -2 -8 -6q2 -10 8 -34 t10.5 -50.5t6.5 -49t-6 -28.5q-23 -18 -59 -21.5t-64 -7.5q-39 -6 -79 -12t-79 -12q-35 -8 -66.5 -17.5t-62.5 -21.5q-14 -8 -28.5 -13.5t-28.5 -15.5q-8 -8 -18.5 -20.5t-16.5 -16.5q10 35 24.5 68t26.5 63q2 6 13.5 25.5t21.5 41t18 39t6 21.5q-25 35 -58.5 68t-78.5 37z M229 113h47q4 -41 7.5 -83t11.5 -83q4 41 10 83t14 83h37l25 -166q4 41 9 83t9 83h43l-43 -224h-43q-6 37 -11 74t-9 74q-4 -37 -11.5 -74t-13.5 -74h-43zM233 1065q68 -37 109 -109q2 -2 -4 -15t-14.5 -28.5t-15.5 -29t-9 -19.5q-25 -45 -41 -94q51 27 104.5 39t108.5 20.5 t109.5 15.5t107.5 23q-18 18 -47 25.5t-61.5 8.5t-65.5 -2l-55 -5v131t4 131q-59 -16 -116.5 -39.5t-113.5 -52.5zM449 113h45q4 -41 8 -83t10 -83q4 41 10 83t15 83h38l23 -166q4 41 9 83t9 83h43l-43 -224h-41q-8 37 -13 74t-9 74q-4 -37 -10 -74t-13 -74h-45zM485 954 q8 0 22.5 6.5t29 15.5t28 18.5t23.5 13.5q37 16 74.5 29.5t76.5 27.5q78 23 156 43t160 39q78 16 154.5 31.5t156.5 21.5q72 8 154.5 11.5t152.5 -29.5q6 55 6 112.5t4 110.5q0 29 2.5 57.5t6.5 57.5q2 14 -6.5 22t-20.5 13.5t-26.5 7.5t-26.5 4q-119 18 -246 0.5 t-246 -41.5q-129 -27 -255 -60.5t-249 -87.5q-23 -12 -46 -24.5t-44 -28.5q-20 -16 -24 -49t-8 -55q-8 -66 -8.5 -132.5t-0.5 -134.5zM510 1071q0 23 15.5 38t35.5 19q6 2 15.5 -2t5.5 -14q-12 -8 -23 -8q-12 -4 -16 -16.5t2 -22.5q4 -4 8 -5t8 -3q20 -2 33.5 11t23 33.5 t13.5 41t8 35.5q-27 -27 -61 -35q-27 -4 -43 12q-16 8 -17 37q0 27 12 51q27 61 86 98q12 6 25.5 12.5t28.5 10.5q10 4 21 12t22 10q12 0 6 -12q12 0 20 -2q16 -2 27.5 -15.5t13.5 -31.5q6 -43 -23.5 -83t-66.5 -62q-18 -12 -27.5 -32t-18.5 -39t-20.5 -37.5t-33.5 -29.5 q-23 -16 -53 -10q-12 4 -20.5 14.5t-6.5 24.5zM549 1182.5q2 -15.5 22 -15.5q31 0 49.5 19.5t31 47.5t18.5 58.5t10 50.5q-29 -6 -52.5 -23t-43.5 -38q-6 -6 -15.5 -25.5t-15.5 -39t-4 -35zM666 113h45q4 -41 9 -83t9 -83q4 41 10 83t15 83h39l24 -166q2 41 7 83t12 83h41 l-41 -224h-43q-8 37 -12.5 74t-10.5 74q-4 -37 -10 -74l-12 -74h-43zM674 1196q14 4 29.5 19.5t25.5 35t14.5 40t-0.5 34.5q-6 23 -32 23q-14 -37 -20.5 -75t-16.5 -77zM725 384q2 34 2 60q0 20 -1 39t1 39q0 49 26.5 67.5t73.5 18.5q37 0 54.5 -20.5t23.5 -50t4 -63.5 t-2 -60v-80q0 -47 -26.5 -66.5t-71.5 -17.5q-39 0 -56.5 20.5t-23.5 50t-4 63.5zM771 1198.5q-5 20.5 6 46t31.5 46t43.5 22.5q12 0 16 -10q8 -12 2 -29q-6 -23 -27.5 -40t-43.5 -22q2 -12 10 -13t17.5 3t17.5 10.5t12 10.5q25 20 36 45.5t21 52.5q2 2 -1 9t-8 15.5t-8 17.5 t-1 15q10 27 35 23q12 0 16 -12q4 -10 2 -22.5t-2 -25.5q20 2 28.5 -1t-3.5 -27q-8 -16 -17.5 -33.5t-11.5 -36.5q0 -10 6 -10q20 0 34.5 20.5t26 46t22.5 51t26 33.5q8 2 16 -2q2 -4 2 -12q-4 -12 -10 -21.5t-2 -23.5q6 -12 13 -25.5t5 -27.5h2q20 25 32.5 60.5t45.5 51.5 q37 14 49 -20q10 -14 6 -25.5t-2 -27.5q8 2 15 10q16 12 18 34.5t8 41.5q4 4 11.5 5t11.5 -1q10 -2 8 -12v-3q10 10 25 17q10 6 17 2t11 -14q4 -12 1 -22.5t-8 -22t-10 -22.5t-3 -24q14 12 24.5 26.5t18.5 30t17.5 29t25.5 23.5q20 10 51 0q4 6 17.5 8t9.5 -14 q-4 -18 -14.5 -39t-10.5 -41q0 -14 8 -2q20 20 30.5 48t20 55.5t23.5 53t43 42.5q14 8 25 -9q12 -23 4 -48t-25 -42q-14 -18 -42.5 -43.5t-24.5 -52.5q4 -16 22 -12q14 6 21.5 19.5t15.5 25.5q4 2 12 2t8 -10l-4 -13q-16 -39 -53 -53q-25 -14 -43 14q-4 5 -4 11 q-10 -8 -16 -15.5t-19 -11.5q-10 -4 -16 0l-12 8q-4 -4 -12.5 -8t-16.5 -6q-31 -6 -43 20v2q-8 -10 -17.5 -17t-23.5 -11q-14 -8 -25 12q-6 12 -3 23.5t8.5 21.5t9.5 21.5t2 23.5q-18 -8 -25.5 -19.5t-11.5 -25.5t-6 -28.5t-8 -28.5q-6 -16 -25 -8q-8 2 -8 10q0 4 1 9t1 7 q-14 -4 -19.5 -4t-15.5 -10t-24.5 -18.5t-30.5 -8.5q-10 2 -16.5 8.5t-10.5 14.5q-16 -16 -39.5 -32.5t-50.5 -12.5q-16 2 -25 18q-25 -29 -51 -37q-29 -12 -33 21q-4 27 8.5 44t22.5 38q2 4 -3 5t-7 -3q-8 -20 -18.5 -44t-26 -45.5t-35.5 -34.5t-47 -11q-31 2 -36 22.5z M781 408.5q-1 -37.5 1 -74.5q0 -16 9.5 -26.5t21.5 -14.5t23.5 1t15.5 23q2 12 2 27.5v30.5v147q0 16 -10 27.5t-22.5 15.5t-24 -2t-15.5 -22q-2 -14 -1 -29.5t1 -28.5q0 -37 -1 -74.5zM797 662q12 14 15 36.5t2 48t-4 49t-3 42.5v125q0 16 1 30.5t-11 28.5h75 q-14 -12 -12 -32.5t2 -37.5v-141q0 -16 -2 -49t10 -47q14 -23 38 -8.5t28 32.5q8 27 3 54.5t-9 54.5q-4 14 -10.5 37.5t-8.5 48t2.5 46t20.5 34.5q10 10 31.5 10t29.5 -16q6 -16 -2 -21.5t-18 -4.5t-17.5 8t0.5 16q-16 -8 -17 -29t6 -44.5t17.5 -46t14.5 -34.5 q12 -37 17 -87t-21 -85q-10 -14 -33.5 -19.5t-50.5 -5.5t-53.5 3.5t-40.5 3.5zM799 1233q12 -2 28.5 15.5t18.5 27.5q4 8 -2 12t-13 -2q-10 -10 -18 -24.5t-14 -28.5zM858 -82q0 14 9.5 22.5t21.5 8.5t21.5 -8.5t9.5 -22.5q0 -16 -9.5 -23.5t-21.5 -7.5t-21.5 7.5t-9.5 23.5 zM920 1370q-2 -8 4 -20h4q0 8 1 13t-1 13q-6 0 -8 -6zM924 250q10 14 13 34.5t2 44t-4 46t-3 39.5v172q0 10 -8 22h57q29 -12 51.5 -50t34.5 -66q0 25 2 59.5t-12 56.5h73q-12 -10 -11 -24.5t1 -28.5v-246q0 -14 -1 -31.5t11 -27.5h-206zM940 -111l59 224h64l59 -224h-51 l-14 52h-53l-11 -52h-53zM987 293q0 -14 11.5 -23.5t25.5 -11.5t27.5 3.5t15.5 19.5q-4 63 -21.5 127.5t-58.5 115.5v-231zM1009 752.5q-3 19.5 7 31.5t32.5 13.5t26.5 -21.5q0 -10 -7 -15t-15.5 -5t-14.5 4t-6 14q-12 -4 -12 -14t7 -20.5t17.5 -19.5t16.5 -11 q14 -4 34.5 -4t30.5 10q20 20 16.5 40.5t-19 38t-36 32t-30.5 24.5q-18 16 -30.5 42t-12.5 52.5t13 48t44 27.5q27 6 54.5 4t52.5 -2l-7 -10q0 -14 7.5 -29.5t13.5 -31t5 -30t-15 -26.5q-14 -10 -34 -9t-22 21q0 12 7.5 17.5t15.5 5.5t14 -5t4 -14q14 2 14.5 12.5t-8 21.5 t-18.5 20.5t-18 11.5q-14 4 -33 1t-25 -20q-12 -25 -4 -43t24.5 -32.5t37 -27.5t32.5 -28q14 -20 22.5 -46.5t4.5 -52.5t-20.5 -44t-47.5 -22q-27 -2 -53 -1t-55 1q8 4 5 19t-8 33.5t-8 38zM1010 -20h41q-4 23 -9.5 46t-11.5 46zM1018 1260q4 -12 16.5 -10.5t14.5 14.5 q1 18 -11 43q-6 -8 -14 -22.5t-6 -24.5zM1135 1305l4 -15q10 -14 24 -6q16 4 23.5 21.5t3.5 33.5q-2 10 -9 16.5t-22 -3.5q-20 -14 -24 -47zM1141 250q12 14 15 36.5t2 47t-4 48.5t-3 40v127q0 16 1 29.5t-11 29.5h76q-10 -10 -13.5 -30.5t-2.5 -42t3 -43t2 -35.5v-166h105 q23 0 55.5 -3t54.5 13q-4 -8 -7 -29.5t-13 -21.5h-260zM1149 -111v222q29 4 64.5 6t62.5 -15q31 -23 23 -57.5t-37 -48.5q14 -6 21 -19.5t10 -29t5 -30.5t9 -28h-52q-6 12 -8 27.5t-6 29t-12 22.5t-27 7v-86h-53zM1200 49.5q2 -24.5 2 -35.5h12q18 0 26.5 10.5t6.5 22.5 t-11 21.5t-28 7.5q-10 -2 -8 -26.5zM1208 662q10 12 11.5 25t1.5 28v248q0 14 -1 30.5t-12 28.5h127q25 -25 26 -59.5t-9 -67.5q-4 -8 -15.5 -29.5t-20.5 -45t-11 -45t10 -27.5q-6 12 4 13t21.5 -4t14.5 -14.5t-18 -17.5q-25 -10 -35 9.5t-8 35.5q0 16 6.5 32.5t8.5 31 t-4.5 22.5t-28.5 6v-155q16 0 41.5 -3.5t44.5 11.5q-6 -14 -8 -26.5t-6 -26.5h-140zM1241 608h78q-12 -29 2 -65.5t27 -61.5q12 29 22 63t0 64h80q-23 -12 -27 -38.5t-10 -47.5q-6 -20 -23.5 -48t-17.5 -48q0 -23 -3 -56.5t13 -52.5h-75q18 18 14 54t-4 59 q-12 23 -21.5 46.5t-17.5 45.5q-10 23 -14 46.5t-23 39.5zM1276 907q20 0 46 2t28 33q0 16 -7.5 23.5t-18.5 10.5t-24.5 3h-23.5v-72zM1335 -111v224h54v-224h-54zM1389 1337q-4 -10 1 -27.5t21 -2.5q12 12 21.5 32.5t11.5 38.5q-2 8 -4 13.5t-13 1.5q-16 -8 -25 -23.5 t-13 -32.5zM1417 -82q0 14 9.5 22.5t21.5 8.5t21.5 -8.5t9.5 -22.5q0 -16 -9.5 -23.5t-21.5 -7.5t-21.5 7.5t-9.5 23.5zM1438 1059q-8 -6 4 -8q27 -10 57.5 -13.5t62 -3.5h62.5t59 -2q29 -2 57.5 -5t57.5 -13q29 -8 51.5 -23.5t48.5 -27.5q0 61 -21.5 106t-80.5 68 q35 31 70 58.5t76 43.5q-49 47 -111 77t-127 46q-2 -57 -3 -112.5t-5 -112.5l-2 2v-6q-27 -2 -65 -4.5t-74.5 -9.5t-68.5 -21.5t-48 -38.5zM1507 -111v224h58l67 -152q-4 39 -4 77v75h47v-224h-51q-20 39 -36.5 79t-35.5 77q2 -39 2 -78v-78h-47zM1536 1403q16 20 31.5 39.5 t19.5 46.5h-2q-37 -37 -49 -86zM1706 -22.5q-8 36.5 14 79.5q12 29 40 43.5t63 14.5h10t17.5 -2t16.5 -4.5t7 -4.5l-8 -41q-27 12 -48.5 8.5t-37 -18t-20.5 -37t3 -47.5q16 -47 62 -41q10 2 8 21.5t-2 27.5h-27v41h76v-120q-41 -16 -79 -9t-62.5 29.5t-32.5 59z" />
<glyph unicode="4" d="M178 1059q70 37 137.5 67.5t145.5 53.5q4 0 8 20.5t8 45t8 48t9 31.5q23 35 67.5 53.5t77.5 34.5q88 35 179 61.5t183 51.5q94 23 188.5 39t190.5 24q33 4 80 8.5t95.5 3t92.5 -12.5t70 -38q2 -4 -2 -28.5t-6 -32.5l-6 -98q0 -4 4 -5q78 -23 152.5 -58.5t124.5 -102.5v-2 q-16 4 -37 -3.5t-41.5 -20.5t-38 -27.5t-27.5 -26.5q31 -16 50.5 -47t27.5 -67t6 -72.5t-12 -67.5q-16 43 -50 66.5t-75 35t-85 14.5t-83 5q-45 4 -94 2t-92 14q-16 6 -22.5 25.5t-7.5 43t2 46l5 37.5q-184 -14 -363.5 -56.5t-351.5 -101.5q-8 -2 -8 -6q2 -10 8 -34 t10.5 -50.5t6.5 -49t-6 -28.5q-23 -18 -59 -21.5t-64 -7.5q-39 -6 -79 -12t-79 -12q-35 -8 -66.5 -17.5t-62.5 -21.5q-14 -8 -28.5 -13.5t-28.5 -15.5q-8 -8 -18.5 -20.5t-16.5 -16.5q10 35 24.5 68t26.5 63q2 6 13.5 25.5t21.5 41t18 39t6 21.5q-25 35 -58.5 68t-78.5 37z M229 113h47q4 -41 7.5 -83t11.5 -83q4 41 10 83t14 83h37l25 -166q4 41 9 83t9 83h43l-43 -224h-43q-6 37 -11 74t-9 74q-4 -37 -11.5 -74t-13.5 -74h-43zM233 1065q68 -37 109 -109q2 -2 -4 -15t-14.5 -28.5t-15.5 -29t-9 -19.5q-25 -45 -41 -94q51 27 104.5 39t108.5 20.5 t109.5 15.5t107.5 23q-18 18 -47 25.5t-61.5 8.5t-65.5 -2l-55 -5v131t4 131q-59 -16 -116.5 -39.5t-113.5 -52.5zM449 113h45q4 -41 8 -83t10 -83q4 41 10 83t15 83h38l23 -166q4 41 9 83t9 83h43l-43 -224h-41q-8 37 -13 74t-9 74q-4 -37 -10 -74t-13 -74h-45zM485 954 q8 0 22.5 6.5t29 15.5t28 18.5t23.5 13.5q37 16 74.5 29.5t76.5 27.5q78 23 156 43t160 39q78 16 154.5 31.5t156.5 21.5q72 8 154.5 11.5t152.5 -29.5q6 55 6 112.5t4 110.5q0 29 2.5 57.5t6.5 57.5q2 14 -6.5 22t-20.5 13.5t-26.5 7.5t-26.5 4q-119 18 -246 0.5 t-246 -41.5q-129 -27 -255 -60.5t-249 -87.5q-23 -12 -46 -24.5t-44 -28.5q-20 -16 -24 -49t-8 -55q-8 -66 -8.5 -132.5t-0.5 -134.5zM510 1071q0 23 15.5 38t35.5 19q6 2 15.5 -2t5.5 -14q-12 -8 -23 -8q-12 -4 -16 -16.5t2 -22.5q4 -4 8 -5t8 -3q20 -2 33.5 11t23 33.5 t13.5 41t8 35.5q-27 -27 -61 -35q-27 -4 -43 12q-16 8 -17 37q0 27 12 51q27 61 86 98q12 6 25.5 12.5t28.5 10.5q10 4 21 12t22 10q12 0 6 -12q12 0 20 -2q16 -2 27.5 -15.5t13.5 -31.5q6 -43 -23.5 -83t-66.5 -62q-18 -12 -27.5 -32t-18.5 -39t-20.5 -37.5t-33.5 -29.5 q-23 -16 -53 -10q-12 4 -20.5 14.5t-6.5 24.5zM549 1182.5q2 -15.5 22 -15.5q31 0 49.5 19.5t31 47.5t18.5 58.5t10 50.5q-29 -6 -52.5 -23t-43.5 -38q-6 -6 -15.5 -25.5t-15.5 -39t-4 -35zM666 113h45q4 -41 9 -83t9 -83q4 41 10 83t15 83h39l24 -166q2 41 7 83t12 83h41 l-41 -224h-43q-8 37 -12.5 74t-10.5 74q-4 -37 -10 -74l-12 -74h-43zM674 1196q14 4 29.5 19.5t25.5 35t14.5 40t-0.5 34.5q-6 23 -32 23q-14 -37 -20.5 -75t-16.5 -77zM725 384q2 34 2 60q0 20 -1 39t1 39q0 49 26.5 67.5t73.5 18.5q37 0 54.5 -20.5t23.5 -50t4 -63.5 t-2 -60v-80q0 -47 -26.5 -66.5t-71.5 -17.5q-39 0 -56.5 20.5t-23.5 50t-4 63.5zM771 1198.5q-5 20.5 6 46t31.5 46t43.5 22.5q12 0 16 -10q8 -12 2 -29q-6 -23 -27.5 -40t-43.5 -22q2 -12 10 -13t17.5 3t17.5 10.5t12 10.5q25 20 36 45.5t21 52.5q2 2 -1 9t-8 15.5t-8 17.5 t-1 15q10 27 35 23q12 0 16 -12q4 -10 2 -22.5t-2 -25.5q20 2 28.5 -1t-3.5 -27q-8 -16 -17.5 -33.5t-11.5 -36.5q0 -10 6 -10q20 0 34.5 20.5t26 46t22.5 51t26 33.5q8 2 16 -2q2 -4 2 -12q-4 -12 -10 -21.5t-2 -23.5q6 -12 13 -25.5t5 -27.5h2q20 25 32.5 60.5t45.5 51.5 q37 14 49 -20q10 -14 6 -25.5t-2 -27.5q8 2 15 10q16 12 18 34.5t8 41.5q4 4 11.5 5t11.5 -1q10 -2 8 -12v-3q10 10 25 17q10 6 17 2t11 -14q4 -12 1 -22.5t-8 -22t-10 -22.5t-3 -24q14 12 24.5 26.5t18.5 30t17.5 29t25.5 23.5q20 10 51 0q4 6 17.5 8t9.5 -14 q-4 -18 -14.5 -39t-10.5 -41q0 -14 8 -2q20 20 30.5 48t20 55.5t23.5 53t43 42.5q14 8 25 -9q12 -23 4 -48t-25 -42q-14 -18 -42.5 -43.5t-24.5 -52.5q4 -16 22 -12q14 6 21.5 19.5t15.5 25.5q4 2 12 2t8 -10l-4 -13q-16 -39 -53 -53q-25 -14 -43 14q-4 5 -4 11 q-10 -8 -16 -15.5t-19 -11.5q-10 -4 -16 0l-12 8q-4 -4 -12.5 -8t-16.5 -6q-31 -6 -43 20v2q-8 -10 -17.5 -17t-23.5 -11q-14 -8 -25 12q-6 12 -3 23.5t8.5 21.5t9.5 21.5t2 23.5q-18 -8 -25.5 -19.5t-11.5 -25.5t-6 -28.5t-8 -28.5q-6 -16 -25 -8q-8 2 -8 10q0 4 1 9t1 7 q-14 -4 -19.5 -4t-15.5 -10t-24.5 -18.5t-30.5 -8.5q-10 2 -16.5 8.5t-10.5 14.5q-16 -16 -39.5 -32.5t-50.5 -12.5q-16 2 -25 18q-25 -29 -51 -37q-29 -12 -33 21q-4 27 8.5 44t22.5 38q2 4 -3 5t-7 -3q-8 -20 -18.5 -44t-26 -45.5t-35.5 -34.5t-47 -11q-31 2 -36 22.5z M781 408.5q-1 -37.5 1 -74.5q0 -16 9.5 -26.5t21.5 -14.5t23.5 1t15.5 23q2 12 2 27.5v30.5v147q0 16 -10 27.5t-22.5 15.5t-24 -2t-15.5 -22q-2 -14 -1 -29.5t1 -28.5q0 -37 -1 -74.5zM797 662q12 14 15 36.5t2 48t-4 49t-3 42.5v125q0 16 1 30.5t-11 28.5h75 q-14 -12 -12 -32.5t2 -37.5v-141q0 -16 -2 -49t10 -47q14 -23 38 -8.5t28 32.5q8 27 3 54.5t-9 54.5q-4 14 -10.5 37.5t-8.5 48t2.5 46t20.5 34.5q10 10 31.5 10t29.5 -16q6 -16 -2 -21.5t-18 -4.5t-17.5 8t0.5 16q-16 -8 -17 -29t6 -44.5t17.5 -46t14.5 -34.5 q12 -37 17 -87t-21 -85q-10 -14 -33.5 -19.5t-50.5 -5.5t-53.5 3.5t-40.5 3.5zM799 1233q12 -2 28.5 15.5t18.5 27.5q4 8 -2 12t-13 -2q-10 -10 -18 -24.5t-14 -28.5zM858 -82q0 14 9.5 22.5t21.5 8.5t21.5 -8.5t9.5 -22.5q0 -16 -9.5 -23.5t-21.5 -7.5t-21.5 7.5t-9.5 23.5 zM920 1370q-2 -8 4 -20h4q0 8 1 13t-1 13q-6 0 -8 -6zM924 250q10 14 13 34.5t2 44t-4 46t-3 39.5v172q0 10 -8 22h57q29 -12 51.5 -50t34.5 -66q0 25 2 59.5t-12 56.5h73q-12 -10 -11 -24.5t1 -28.5v-246q0 -14 -1 -31.5t11 -27.5h-206zM940 -111l59 224h64l59 -224h-51 l-14 52h-53l-11 -52h-53zM987 293q0 -14 11.5 -23.5t25.5 -11.5t27.5 3.5t15.5 19.5q-4 63 -21.5 127.5t-58.5 115.5v-231zM1009 752.5q-3 19.5 7 31.5t32.5 13.5t26.5 -21.5q0 -10 -7 -15t-15.5 -5t-14.5 4t-6 14q-12 -4 -12 -14t7 -20.5t17.5 -19.5t16.5 -11 q14 -4 34.5 -4t30.5 10q20 20 16.5 40.5t-19 38t-36 32t-30.5 24.5q-18 16 -30.5 42t-12.5 52.5t13 48t44 27.5q27 6 54.5 4t52.5 -2l-7 -10q0 -14 7.5 -29.5t13.5 -31t5 -30t-15 -26.5q-14 -10 -34 -9t-22 21q0 12 7.5 17.5t15.5 5.5t14 -5t4 -14q14 2 14.5 12.5t-8 21.5 t-18.5 20.5t-18 11.5q-14 4 -33 1t-25 -20q-12 -25 -4 -43t24.5 -32.5t37 -27.5t32.5 -28q14 -20 22.5 -46.5t4.5 -52.5t-20.5 -44t-47.5 -22q-27 -2 -53 -1t-55 1q8 4 5 19t-8 33.5t-8 38zM1010 -20h41q-4 23 -9.5 46t-11.5 46zM1018 1260q4 -12 16.5 -10.5t14.5 14.5 q1 18 -11 43q-6 -8 -14 -22.5t-6 -24.5zM1135 1305l4 -15q10 -14 24 -6q16 4 23.5 21.5t3.5 33.5q-2 10 -9 16.5t-22 -3.5q-20 -14 -24 -47zM1141 250q12 14 15 36.5t2 47t-4 48.5t-3 40v127q0 16 1 29.5t-11 29.5h76q-10 -10 -13.5 -30.5t-2.5 -42t3 -43t2 -35.5v-166h105 q23 0 55.5 -3t54.5 13q-4 -8 -7 -29.5t-13 -21.5h-260zM1149 -111v222q29 4 64.5 6t62.5 -15q31 -23 23 -57.5t-37 -48.5q14 -6 21 -19.5t10 -29t5 -30.5t9 -28h-52q-6 12 -8 27.5t-6 29t-12 22.5t-27 7v-86h-53zM1200 49.5q2 -24.5 2 -35.5h12q18 0 26.5 10.5t6.5 22.5 t-11 21.5t-28 7.5q-10 -2 -8 -26.5zM1208 662q10 12 11.5 25t1.5 28v248q0 14 -1 30.5t-12 28.5h127q25 -25 26 -59.5t-9 -67.5q-4 -8 -15.5 -29.5t-20.5 -45t-11 -45t10 -27.5q-6 12 4 13t21.5 -4t14.5 -14.5t-18 -17.5q-25 -10 -35 9.5t-8 35.5q0 16 6.5 32.5t8.5 31 t-4.5 22.5t-28.5 6v-155q16 0 41.5 -3.5t44.5 11.5q-6 -14 -8 -26.5t-6 -26.5h-140zM1241 608h78q-12 -29 2 -65.5t27 -61.5q12 29 22 63t0 64h80q-23 -12 -27 -38.5t-10 -47.5q-6 -20 -23.5 -48t-17.5 -48q0 -23 -3 -56.5t13 -52.5h-75q18 18 14 54t-4 59 q-12 23 -21.5 46.5t-17.5 45.5q-10 23 -14 46.5t-23 39.5zM1276 907q20 0 46 2t28 33q0 16 -7.5 23.5t-18.5 10.5t-24.5 3h-23.5v-72zM1335 -111v224h54v-224h-54zM1389 1337q-4 -10 1 -27.5t21 -2.5q12 12 21.5 32.5t11.5 38.5q-2 8 -4 13.5t-13 1.5q-16 -8 -25 -23.5 t-13 -32.5zM1417 -82q0 14 9.5 22.5t21.5 8.5t21.5 -8.5t9.5 -22.5q0 -16 -9.5 -23.5t-21.5 -7.5t-21.5 7.5t-9.5 23.5zM1438 1059q-8 -6 4 -8q27 -10 57.5 -13.5t62 -3.5h62.5t59 -2q29 -2 57.5 -5t57.5 -13q29 -8 51.5 -23.5t48.5 -27.5q0 61 -21.5 106t-80.5 68 q35 31 70 58.5t76 43.5q-49 47 -111 77t-127 46q-2 -57 -3 -112.5t-5 -112.5l-2 2v-6q-27 -2 -65 -4.5t-74.5 -9.5t-68.5 -21.5t-48 -38.5zM1507 -111v224h58l67 -152q-4 39 -4 77v75h47v-224h-51q-20 39 -36.5 79t-35.5 77q2 -39 2 -78v-78h-47zM1536 1403q16 20 31.5 39.5 t19.5 46.5h-2q-37 -37 -49 -86zM1706 -22.5q-8 36.5 14 79.5q12 29 40 43.5t63 14.5h10t17.5 -2t16.5 -4.5t7 -4.5l-8 -41q-27 12 -48.5 8.5t-37 -18t-20.5 -37t3 -47.5q16 -47 62 -41q10 2 8 21.5t-2 27.5h-27v41h76v-120q-41 -16 -79 -9t-62.5 29.5t-32.5 59z" />
<glyph unicode="5" d="M178 1059q70 37 137.5 67.5t145.5 53.5q4 0 8 20.5t8 45t8 48t9 31.5q23 35 67.5 53.5t77.5 34.5q88 35 179 61.5t183 51.5q94 23 188.5 39t190.5 24q33 4 80 8.5t95.5 3t92.5 -12.5t70 -38q2 -4 -2 -28.5t-6 -32.5l-6 -98q0 -4 4 -5q78 -23 152.5 -58.5t124.5 -102.5v-2 q-16 4 -37 -3.5t-41.5 -20.5t-38 -27.5t-27.5 -26.5q31 -16 50.5 -47t27.5 -67t6 -72.5t-12 -67.5q-16 43 -50 66.5t-75 35t-85 14.5t-83 5q-45 4 -94 2t-92 14q-16 6 -22.5 25.5t-7.5 43t2 46l5 37.5q-184 -14 -363.5 -56.5t-351.5 -101.5q-8 -2 -8 -6q2 -10 8 -34 t10.5 -50.5t6.5 -49t-6 -28.5q-23 -18 -59 -21.5t-64 -7.5q-39 -6 -79 -12t-79 -12q-35 -8 -66.5 -17.5t-62.5 -21.5q-14 -8 -28.5 -13.5t-28.5 -15.5q-8 -8 -18.5 -20.5t-16.5 -16.5q10 35 24.5 68t26.5 63q2 6 13.5 25.5t21.5 41t18 39t6 21.5q-25 35 -58.5 68t-78.5 37z M229 113h47q4 -41 7.5 -83t11.5 -83q4 41 10 83t14 83h37l25 -166q4 41 9 83t9 83h43l-43 -224h-43q-6 37 -11 74t-9 74q-4 -37 -11.5 -74t-13.5 -74h-43zM233 1065q68 -37 109 -109q2 -2 -4 -15t-14.5 -28.5t-15.5 -29t-9 -19.5q-25 -45 -41 -94q51 27 104.5 39t108.5 20.5 t109.5 15.5t107.5 23q-18 18 -47 25.5t-61.5 8.5t-65.5 -2l-55 -5v131t4 131q-59 -16 -116.5 -39.5t-113.5 -52.5zM449 113h45q4 -41 8 -83t10 -83q4 41 10 83t15 83h38l23 -166q4 41 9 83t9 83h43l-43 -224h-41q-8 37 -13 74t-9 74q-4 -37 -10 -74t-13 -74h-45zM485 954 q8 0 22.5 6.5t29 15.5t28 18.5t23.5 13.5q37 16 74.5 29.5t76.5 27.5q78 23 156 43t160 39q78 16 154.5 31.5t156.5 21.5q72 8 154.5 11.5t152.5 -29.5q6 55 6 112.5t4 110.5q0 29 2.5 57.5t6.5 57.5q2 14 -6.5 22t-20.5 13.5t-26.5 7.5t-26.5 4q-119 18 -246 0.5 t-246 -41.5q-129 -27 -255 -60.5t-249 -87.5q-23 -12 -46 -24.5t-44 -28.5q-20 -16 -24 -49t-8 -55q-8 -66 -8.5 -132.5t-0.5 -134.5zM510 1071q0 23 15.5 38t35.5 19q6 2 15.5 -2t5.5 -14q-12 -8 -23 -8q-12 -4 -16 -16.5t2 -22.5q4 -4 8 -5t8 -3q20 -2 33.5 11t23 33.5 t13.5 41t8 35.5q-27 -27 -61 -35q-27 -4 -43 12q-16 8 -17 37q0 27 12 51q27 61 86 98q12 6 25.5 12.5t28.5 10.5q10 4 21 12t22 10q12 0 6 -12q12 0 20 -2q16 -2 27.5 -15.5t13.5 -31.5q6 -43 -23.5 -83t-66.5 -62q-18 -12 -27.5 -32t-18.5 -39t-20.5 -37.5t-33.5 -29.5 q-23 -16 -53 -10q-12 4 -20.5 14.5t-6.5 24.5zM549 1182.5q2 -15.5 22 -15.5q31 0 49.5 19.5t31 47.5t18.5 58.5t10 50.5q-29 -6 -52.5 -23t-43.5 -38q-6 -6 -15.5 -25.5t-15.5 -39t-4 -35zM666 113h45q4 -41 9 -83t9 -83q4 41 10 83t15 83h39l24 -166q2 41 7 83t12 83h41 l-41 -224h-43q-8 37 -12.5 74t-10.5 74q-4 -37 -10 -74l-12 -74h-43zM674 1196q14 4 29.5 19.5t25.5 35t14.5 40t-0.5 34.5q-6 23 -32 23q-14 -37 -20.5 -75t-16.5 -77zM725 384q2 34 2 60q0 20 -1 39t1 39q0 49 26.5 67.5t73.5 18.5q37 0 54.5 -20.5t23.5 -50t4 -63.5 t-2 -60v-80q0 -47 -26.5 -66.5t-71.5 -17.5q-39 0 -56.5 20.5t-23.5 50t-4 63.5zM771 1198.5q-5 20.5 6 46t31.5 46t43.5 22.5q12 0 16 -10q8 -12 2 -29q-6 -23 -27.5 -40t-43.5 -22q2 -12 10 -13t17.5 3t17.5 10.5t12 10.5q25 20 36 45.5t21 52.5q2 2 -1 9t-8 15.5t-8 17.5 t-1 15q10 27 35 23q12 0 16 -12q4 -10 2 -22.5t-2 -25.5q20 2 28.5 -1t-3.5 -27q-8 -16 -17.5 -33.5t-11.5 -36.5q0 -10 6 -10q20 0 34.5 20.5t26 46t22.5 51t26 33.5q8 2 16 -2q2 -4 2 -12q-4 -12 -10 -21.5t-2 -23.5q6 -12 13 -25.5t5 -27.5h2q20 25 32.5 60.5t45.5 51.5 q37 14 49 -20q10 -14 6 -25.5t-2 -27.5q8 2 15 10q16 12 18 34.5t8 41.5q4 4 11.5 5t11.5 -1q10 -2 8 -12v-3q10 10 25 17q10 6 17 2t11 -14q4 -12 1 -22.5t-8 -22t-10 -22.5t-3 -24q14 12 24.5 26.5t18.5 30t17.5 29t25.5 23.5q20 10 51 0q4 6 17.5 8t9.5 -14 q-4 -18 -14.5 -39t-10.5 -41q0 -14 8 -2q20 20 30.5 48t20 55.5t23.5 53t43 42.5q14 8 25 -9q12 -23 4 -48t-25 -42q-14 -18 -42.5 -43.5t-24.5 -52.5q4 -16 22 -12q14 6 21.5 19.5t15.5 25.5q4 2 12 2t8 -10l-4 -13q-16 -39 -53 -53q-25 -14 -43 14q-4 5 -4 11 q-10 -8 -16 -15.5t-19 -11.5q-10 -4 -16 0l-12 8q-4 -4 -12.5 -8t-16.5 -6q-31 -6 -43 20v2q-8 -10 -17.5 -17t-23.5 -11q-14 -8 -25 12q-6 12 -3 23.5t8.5 21.5t9.5 21.5t2 23.5q-18 -8 -25.5 -19.5t-11.5 -25.5t-6 -28.5t-8 -28.5q-6 -16 -25 -8q-8 2 -8 10q0 4 1 9t1 7 q-14 -4 -19.5 -4t-15.5 -10t-24.5 -18.5t-30.5 -8.5q-10 2 -16.5 8.5t-10.5 14.5q-16 -16 -39.5 -32.5t-50.5 -12.5q-16 2 -25 18q-25 -29 -51 -37q-29 -12 -33 21q-4 27 8.5 44t22.5 38q2 4 -3 5t-7 -3q-8 -20 -18.5 -44t-26 -45.5t-35.5 -34.5t-47 -11q-31 2 -36 22.5z M781 408.5q-1 -37.5 1 -74.5q0 -16 9.5 -26.5t21.5 -14.5t23.5 1t15.5 23q2 12 2 27.5v30.5v147q0 16 -10 27.5t-22.5 15.5t-24 -2t-15.5 -22q-2 -14 -1 -29.5t1 -28.5q0 -37 -1 -74.5zM797 662q12 14 15 36.5t2 48t-4 49t-3 42.5v125q0 16 1 30.5t-11 28.5h75 q-14 -12 -12 -32.5t2 -37.5v-141q0 -16 -2 -49t10 -47q14 -23 38 -8.5t28 32.5q8 27 3 54.5t-9 54.5q-4 14 -10.5 37.5t-8.5 48t2.5 46t20.5 34.5q10 10 31.5 10t29.5 -16q6 -16 -2 -21.5t-18 -4.5t-17.5 8t0.5 16q-16 -8 -17 -29t6 -44.5t17.5 -46t14.5 -34.5 q12 -37 17 -87t-21 -85q-10 -14 -33.5 -19.5t-50.5 -5.5t-53.5 3.5t-40.5 3.5zM799 1233q12 -2 28.5 15.5t18.5 27.5q4 8 -2 12t-13 -2q-10 -10 -18 -24.5t-14 -28.5zM858 -82q0 14 9.5 22.5t21.5 8.5t21.5 -8.5t9.5 -22.5q0 -16 -9.5 -23.5t-21.5 -7.5t-21.5 7.5t-9.5 23.5 zM920 1370q-2 -8 4 -20h4q0 8 1 13t-1 13q-6 0 -8 -6zM924 250q10 14 13 34.5t2 44t-4 46t-3 39.5v172q0 10 -8 22h57q29 -12 51.5 -50t34.5 -66q0 25 2 59.5t-12 56.5h73q-12 -10 -11 -24.5t1 -28.5v-246q0 -14 -1 -31.5t11 -27.5h-206zM940 -111l59 224h64l59 -224h-51 l-14 52h-53l-11 -52h-53zM987 293q0 -14 11.5 -23.5t25.5 -11.5t27.5 3.5t15.5 19.5q-4 63 -21.5 127.5t-58.5 115.5v-231zM1009 752.5q-3 19.5 7 31.5t32.5 13.5t26.5 -21.5q0 -10 -7 -15t-15.5 -5t-14.5 4t-6 14q-12 -4 -12 -14t7 -20.5t17.5 -19.5t16.5 -11 q14 -4 34.5 -4t30.5 10q20 20 16.5 40.5t-19 38t-36 32t-30.5 24.5q-18 16 -30.5 42t-12.5 52.5t13 48t44 27.5q27 6 54.5 4t52.5 -2l-7 -10q0 -14 7.5 -29.5t13.5 -31t5 -30t-15 -26.5q-14 -10 -34 -9t-22 21q0 12 7.5 17.5t15.5 5.5t14 -5t4 -14q14 2 14.5 12.5t-8 21.5 t-18.5 20.5t-18 11.5q-14 4 -33 1t-25 -20q-12 -25 -4 -43t24.5 -32.5t37 -27.5t32.5 -28q14 -20 22.5 -46.5t4.5 -52.5t-20.5 -44t-47.5 -22q-27 -2 -53 -1t-55 1q8 4 5 19t-8 33.5t-8 38zM1010 -20h41q-4 23 -9.5 46t-11.5 46zM1018 1260q4 -12 16.5 -10.5t14.5 14.5 q1 18 -11 43q-6 -8 -14 -22.5t-6 -24.5zM1135 1305l4 -15q10 -14 24 -6q16 4 23.5 21.5t3.5 33.5q-2 10 -9 16.5t-22 -3.5q-20 -14 -24 -47zM1141 250q12 14 15 36.5t2 47t-4 48.5t-3 40v127q0 16 1 29.5t-11 29.5h76q-10 -10 -13.5 -30.5t-2.5 -42t3 -43t2 -35.5v-166h105 q23 0 55.5 -3t54.5 13q-4 -8 -7 -29.5t-13 -21.5h-260zM1149 -111v222q29 4 64.5 6t62.5 -15q31 -23 23 -57.5t-37 -48.5q14 -6 21 -19.5t10 -29t5 -30.5t9 -28h-52q-6 12 -8 27.5t-6 29t-12 22.5t-27 7v-86h-53zM1200 49.5q2 -24.5 2 -35.5h12q18 0 26.5 10.5t6.5 22.5 t-11 21.5t-28 7.5q-10 -2 -8 -26.5zM1208 662q10 12 11.5 25t1.5 28v248q0 14 -1 30.5t-12 28.5h127q25 -25 26 -59.5t-9 -67.5q-4 -8 -15.5 -29.5t-20.5 -45t-11 -45t10 -27.5q-6 12 4 13t21.5 -4t14.5 -14.5t-18 -17.5q-25 -10 -35 9.5t-8 35.5q0 16 6.5 32.5t8.5 31 t-4.5 22.5t-28.5 6v-155q16 0 41.5 -3.5t44.5 11.5q-6 -14 -8 -26.5t-6 -26.5h-140zM1241 608h78q-12 -29 2 -65.5t27 -61.5q12 29 22 63t0 64h80q-23 -12 -27 -38.5t-10 -47.5q-6 -20 -23.5 -48t-17.5 -48q0 -23 -3 -56.5t13 -52.5h-75q18 18 14 54t-4 59 q-12 23 -21.5 46.5t-17.5 45.5q-10 23 -14 46.5t-23 39.5zM1276 907q20 0 46 2t28 33q0 16 -7.5 23.5t-18.5 10.5t-24.5 3h-23.5v-72zM1335 -111v224h54v-224h-54zM1389 1337q-4 -10 1 -27.5t21 -2.5q12 12 21.5 32.5t11.5 38.5q-2 8 -4 13.5t-13 1.5q-16 -8 -25 -23.5 t-13 -32.5zM1417 -82q0 14 9.5 22.5t21.5 8.5t21.5 -8.5t9.5 -22.5q0 -16 -9.5 -23.5t-21.5 -7.5t-21.5 7.5t-9.5 23.5zM1438 1059q-8 -6 4 -8q27 -10 57.5 -13.5t62 -3.5h62.5t59 -2q29 -2 57.5 -5t57.5 -13q29 -8 51.5 -23.5t48.5 -27.5q0 61 -21.5 106t-80.5 68 q35 31 70 58.5t76 43.5q-49 47 -111 77t-127 46q-2 -57 -3 -112.5t-5 -112.5l-2 2v-6q-27 -2 -65 -4.5t-74.5 -9.5t-68.5 -21.5t-48 -38.5zM1507 -111v224h58l67 -152q-4 39 -4 77v75h47v-224h-51q-20 39 -36.5 79t-35.5 77q2 -39 2 -78v-78h-47zM1536 1403q16 20 31.5 39.5 t19.5 46.5h-2q-37 -37 -49 -86zM1706 -22.5q-8 36.5 14 79.5q12 29 40 43.5t63 14.5h10t17.5 -2t16.5 -4.5t7 -4.5l-8 -41q-27 12 -48.5 8.5t-37 -18t-20.5 -37t3 -47.5q16 -47 62 -41q10 2 8 21.5t-2 27.5h-27v41h76v-120q-41 -16 -79 -9t-62.5 29.5t-32.5 59z" />
<glyph unicode="6" d="M178 1059q70 37 137.5 67.5t145.5 53.5q4 0 8 20.5t8 45t8 48t9 31.5q23 35 67.5 53.5t77.5 34.5q88 35 179 61.5t183 51.5q94 23 188.5 39t190.5 24q33 4 80 8.5t95.5 3t92.5 -12.5t70 -38q2 -4 -2 -28.5t-6 -32.5l-6 -98q0 -4 4 -5q78 -23 152.5 -58.5t124.5 -102.5v-2 q-16 4 -37 -3.5t-41.5 -20.5t-38 -27.5t-27.5 -26.5q31 -16 50.5 -47t27.5 -67t6 -72.5t-12 -67.5q-16 43 -50 66.5t-75 35t-85 14.5t-83 5q-45 4 -94 2t-92 14q-16 6 -22.5 25.5t-7.5 43t2 46l5 37.5q-184 -14 -363.5 -56.5t-351.5 -101.5q-8 -2 -8 -6q2 -10 8 -34 t10.5 -50.5t6.5 -49t-6 -28.5q-23 -18 -59 -21.5t-64 -7.5q-39 -6 -79 -12t-79 -12q-35 -8 -66.5 -17.5t-62.5 -21.5q-14 -8 -28.5 -13.5t-28.5 -15.5q-8 -8 -18.5 -20.5t-16.5 -16.5q10 35 24.5 68t26.5 63q2 6 13.5 25.5t21.5 41t18 39t6 21.5q-25 35 -58.5 68t-78.5 37z M229 113h47q4 -41 7.5 -83t11.5 -83q4 41 10 83t14 83h37l25 -166q4 41 9 83t9 83h43l-43 -224h-43q-6 37 -11 74t-9 74q-4 -37 -11.5 -74t-13.5 -74h-43zM233 1065q68 -37 109 -109q2 -2 -4 -15t-14.5 -28.5t-15.5 -29t-9 -19.5q-25 -45 -41 -94q51 27 104.5 39t108.5 20.5 t109.5 15.5t107.5 23q-18 18 -47 25.5t-61.5 8.5t-65.5 -2l-55 -5v131t4 131q-59 -16 -116.5 -39.5t-113.5 -52.5zM449 113h45q4 -41 8 -83t10 -83q4 41 10 83t15 83h38l23 -166q4 41 9 83t9 83h43l-43 -224h-41q-8 37 -13 74t-9 74q-4 -37 -10 -74t-13 -74h-45zM485 954 q8 0 22.5 6.5t29 15.5t28 18.5t23.5 13.5q37 16 74.5 29.5t76.5 27.5q78 23 156 43t160 39q78 16 154.5 31.5t156.5 21.5q72 8 154.5 11.5t152.5 -29.5q6 55 6 112.5t4 110.5q0 29 2.5 57.5t6.5 57.5q2 14 -6.5 22t-20.5 13.5t-26.5 7.5t-26.5 4q-119 18 -246 0.5 t-246 -41.5q-129 -27 -255 -60.5t-249 -87.5q-23 -12 -46 -24.5t-44 -28.5q-20 -16 -24 -49t-8 -55q-8 -66 -8.5 -132.5t-0.5 -134.5zM510 1071q0 23 15.5 38t35.5 19q6 2 15.5 -2t5.5 -14q-12 -8 -23 -8q-12 -4 -16 -16.5t2 -22.5q4 -4 8 -5t8 -3q20 -2 33.5 11t23 33.5 t13.5 41t8 35.5q-27 -27 -61 -35q-27 -4 -43 12q-16 8 -17 37q0 27 12 51q27 61 86 98q12 6 25.5 12.5t28.5 10.5q10 4 21 12t22 10q12 0 6 -12q12 0 20 -2q16 -2 27.5 -15.5t13.5 -31.5q6 -43 -23.5 -83t-66.5 -62q-18 -12 -27.5 -32t-18.5 -39t-20.5 -37.5t-33.5 -29.5 q-23 -16 -53 -10q-12 4 -20.5 14.5t-6.5 24.5zM549 1182.5q2 -15.5 22 -15.5q31 0 49.5 19.5t31 47.5t18.5 58.5t10 50.5q-29 -6 -52.5 -23t-43.5 -38q-6 -6 -15.5 -25.5t-15.5 -39t-4 -35zM666 113h45q4 -41 9 -83t9 -83q4 41 10 83t15 83h39l24 -166q2 41 7 83t12 83h41 l-41 -224h-43q-8 37 -12.5 74t-10.5 74q-4 -37 -10 -74l-12 -74h-43zM674 1196q14 4 29.5 19.5t25.5 35t14.5 40t-0.5 34.5q-6 23 -32 23q-14 -37 -20.5 -75t-16.5 -77zM725 384q2 34 2 60q0 20 -1 39t1 39q0 49 26.5 67.5t73.5 18.5q37 0 54.5 -20.5t23.5 -50t4 -63.5 t-2 -60v-80q0 -47 -26.5 -66.5t-71.5 -17.5q-39 0 -56.5 20.5t-23.5 50t-4 63.5zM771 1198.5q-5 20.5 6 46t31.5 46t43.5 22.5q12 0 16 -10q8 -12 2 -29q-6 -23 -27.5 -40t-43.5 -22q2 -12 10 -13t17.5 3t17.5 10.5t12 10.5q25 20 36 45.5t21 52.5q2 2 -1 9t-8 15.5t-8 17.5 t-1 15q10 27 35 23q12 0 16 -12q4 -10 2 -22.5t-2 -25.5q20 2 28.5 -1t-3.5 -27q-8 -16 -17.5 -33.5t-11.5 -36.5q0 -10 6 -10q20 0 34.5 20.5t26 46t22.5 51t26 33.5q8 2 16 -2q2 -4 2 -12q-4 -12 -10 -21.5t-2 -23.5q6 -12 13 -25.5t5 -27.5h2q20 25 32.5 60.5t45.5 51.5 q37 14 49 -20q10 -14 6 -25.5t-2 -27.5q8 2 15 10q16 12 18 34.5t8 41.5q4 4 11.5 5t11.5 -1q10 -2 8 -12v-3q10 10 25 17q10 6 17 2t11 -14q4 -12 1 -22.5t-8 -22t-10 -22.5t-3 -24q14 12 24.5 26.5t18.5 30t17.5 29t25.5 23.5q20 10 51 0q4 6 17.5 8t9.5 -14 q-4 -18 -14.5 -39t-10.5 -41q0 -14 8 -2q20 20 30.5 48t20 55.5t23.5 53t43 42.5q14 8 25 -9q12 -23 4 -48t-25 -42q-14 -18 -42.5 -43.5t-24.5 -52.5q4 -16 22 -12q14 6 21.5 19.5t15.5 25.5q4 2 12 2t8 -10l-4 -13q-16 -39 -53 -53q-25 -14 -43 14q-4 5 -4 11 q-10 -8 -16 -15.5t-19 -11.5q-10 -4 -16 0l-12 8q-4 -4 -12.5 -8t-16.5 -6q-31 -6 -43 20v2q-8 -10 -17.5 -17t-23.5 -11q-14 -8 -25 12q-6 12 -3 23.5t8.5 21.5t9.5 21.5t2 23.5q-18 -8 -25.5 -19.5t-11.5 -25.5t-6 -28.5t-8 -28.5q-6 -16 -25 -8q-8 2 -8 10q0 4 1 9t1 7 q-14 -4 -19.5 -4t-15.5 -10t-24.5 -18.5t-30.5 -8.5q-10 2 -16.5 8.5t-10.5 14.5q-16 -16 -39.5 -32.5t-50.5 -12.5q-16 2 -25 18q-25 -29 -51 -37q-29 -12 -33 21q-4 27 8.5 44t22.5 38q2 4 -3 5t-7 -3q-8 -20 -18.5 -44t-26 -45.5t-35.5 -34.5t-47 -11q-31 2 -36 22.5z M781 408.5q-1 -37.5 1 -74.5q0 -16 9.5 -26.5t21.5 -14.5t23.5 1t15.5 23q2 12 2 27.5v30.5v147q0 16 -10 27.5t-22.5 15.5t-24 -2t-15.5 -22q-2 -14 -1 -29.5t1 -28.5q0 -37 -1 -74.5zM797 662q12 14 15 36.5t2 48t-4 49t-3 42.5v125q0 16 1 30.5t-11 28.5h75 q-14 -12 -12 -32.5t2 -37.5v-141q0 -16 -2 -49t10 -47q14 -23 38 -8.5t28 32.5q8 27 3 54.5t-9 54.5q-4 14 -10.5 37.5t-8.5 48t2.5 46t20.5 34.5q10 10 31.5 10t29.5 -16q6 -16 -2 -21.5t-18 -4.5t-17.5 8t0.5 16q-16 -8 -17 -29t6 -44.5t17.5 -46t14.5 -34.5 q12 -37 17 -87t-21 -85q-10 -14 -33.5 -19.5t-50.5 -5.5t-53.5 3.5t-40.5 3.5zM799 1233q12 -2 28.5 15.5t18.5 27.5q4 8 -2 12t-13 -2q-10 -10 -18 -24.5t-14 -28.5zM858 -82q0 14 9.5 22.5t21.5 8.5t21.5 -8.5t9.5 -22.5q0 -16 -9.5 -23.5t-21.5 -7.5t-21.5 7.5t-9.5 23.5 zM920 1370q-2 -8 4 -20h4q0 8 1 13t-1 13q-6 0 -8 -6zM924 250q10 14 13 34.5t2 44t-4 46t-3 39.5v172q0 10 -8 22h57q29 -12 51.5 -50t34.5 -66q0 25 2 59.5t-12 56.5h73q-12 -10 -11 -24.5t1 -28.5v-246q0 -14 -1 -31.5t11 -27.5h-206zM940 -111l59 224h64l59 -224h-51 l-14 52h-53l-11 -52h-53zM987 293q0 -14 11.5 -23.5t25.5 -11.5t27.5 3.5t15.5 19.5q-4 63 -21.5 127.5t-58.5 115.5v-231zM1009 752.5q-3 19.5 7 31.5t32.5 13.5t26.5 -21.5q0 -10 -7 -15t-15.5 -5t-14.5 4t-6 14q-12 -4 -12 -14t7 -20.5t17.5 -19.5t16.5 -11 q14 -4 34.5 -4t30.5 10q20 20 16.5 40.5t-19 38t-36 32t-30.5 24.5q-18 16 -30.5 42t-12.5 52.5t13 48t44 27.5q27 6 54.5 4t52.5 -2l-7 -10q0 -14 7.5 -29.5t13.5 -31t5 -30t-15 -26.5q-14 -10 -34 -9t-22 21q0 12 7.5 17.5t15.5 5.5t14 -5t4 -14q14 2 14.5 12.5t-8 21.5 t-18.5 20.5t-18 11.5q-14 4 -33 1t-25 -20q-12 -25 -4 -43t24.5 -32.5t37 -27.5t32.5 -28q14 -20 22.5 -46.5t4.5 -52.5t-20.5 -44t-47.5 -22q-27 -2 -53 -1t-55 1q8 4 5 19t-8 33.5t-8 38zM1010 -20h41q-4 23 -9.5 46t-11.5 46zM1018 1260q4 -12 16.5 -10.5t14.5 14.5 q1 18 -11 43q-6 -8 -14 -22.5t-6 -24.5zM1135 1305l4 -15q10 -14 24 -6q16 4 23.5 21.5t3.5 33.5q-2 10 -9 16.5t-22 -3.5q-20 -14 -24 -47zM1141 250q12 14 15 36.5t2 47t-4 48.5t-3 40v127q0 16 1 29.5t-11 29.5h76q-10 -10 -13.5 -30.5t-2.5 -42t3 -43t2 -35.5v-166h105 q23 0 55.5 -3t54.5 13q-4 -8 -7 -29.5t-13 -21.5h-260zM1149 -111v222q29 4 64.5 6t62.5 -15q31 -23 23 -57.5t-37 -48.5q14 -6 21 -19.5t10 -29t5 -30.5t9 -28h-52q-6 12 -8 27.5t-6 29t-12 22.5t-27 7v-86h-53zM1200 49.5q2 -24.5 2 -35.5h12q18 0 26.5 10.5t6.5 22.5 t-11 21.5t-28 7.5q-10 -2 -8 -26.5zM1208 662q10 12 11.5 25t1.5 28v248q0 14 -1 30.5t-12 28.5h127q25 -25 26 -59.5t-9 -67.5q-4 -8 -15.5 -29.5t-20.5 -45t-11 -45t10 -27.5q-6 12 4 13t21.5 -4t14.5 -14.5t-18 -17.5q-25 -10 -35 9.5t-8 35.5q0 16 6.5 32.5t8.5 31 t-4.5 22.5t-28.5 6v-155q16 0 41.5 -3.5t44.5 11.5q-6 -14 -8 -26.5t-6 -26.5h-140zM1241 608h78q-12 -29 2 -65.5t27 -61.5q12 29 22 63t0 64h80q-23 -12 -27 -38.5t-10 -47.5q-6 -20 -23.5 -48t-17.5 -48q0 -23 -3 -56.5t13 -52.5h-75q18 18 14 54t-4 59 q-12 23 -21.5 46.5t-17.5 45.5q-10 23 -14 46.5t-23 39.5zM1276 907q20 0 46 2t28 33q0 16 -7.5 23.5t-18.5 10.5t-24.5 3h-23.5v-72zM1335 -111v224h54v-224h-54zM1389 1337q-4 -10 1 -27.5t21 -2.5q12 12 21.5 32.5t11.5 38.5q-2 8 -4 13.5t-13 1.5q-16 -8 -25 -23.5 t-13 -32.5zM1417 -82q0 14 9.5 22.5t21.5 8.5t21.5 -8.5t9.5 -22.5q0 -16 -9.5 -23.5t-21.5 -7.5t-21.5 7.5t-9.5 23.5zM1438 1059q-8 -6 4 -8q27 -10 57.5 -13.5t62 -3.5h62.5t59 -2q29 -2 57.5 -5t57.5 -13q29 -8 51.5 -23.5t48.5 -27.5q0 61 -21.5 106t-80.5 68 q35 31 70 58.5t76 43.5q-49 47 -111 77t-127 46q-2 -57 -3 -112.5t-5 -112.5l-2 2v-6q-27 -2 -65 -4.5t-74.5 -9.5t-68.5 -21.5t-48 -38.5zM1507 -111v224h58l67 -152q-4 39 -4 77v75h47v-224h-51q-20 39 -36.5 79t-35.5 77q2 -39 2 -78v-78h-47zM1536 1403q16 20 31.5 39.5 t19.5 46.5h-2q-37 -37 -49 -86zM1706 -22.5q-8 36.5 14 79.5q12 29 40 43.5t63 14.5h10t17.5 -2t16.5 -4.5t7 -4.5l-8 -41q-27 12 -48.5 8.5t-37 -18t-20.5 -37t3 -47.5q16 -47 62 -41q10 2 8 21.5t-2 27.5h-27v41h76v-120q-41 -16 -79 -9t-62.5 29.5t-32.5 59z" />
<glyph unicode="7" d="M178 1059q70 37 137.5 67.5t145.5 53.5q4 0 8 20.5t8 45t8 48t9 31.5q23 35 67.5 53.5t77.5 34.5q88 35 179 61.5t183 51.5q94 23 188.5 39t190.5 24q33 4 80 8.5t95.5 3t92.5 -12.5t70 -38q2 -4 -2 -28.5t-6 -32.5l-6 -98q0 -4 4 -5q78 -23 152.5 -58.5t124.5 -102.5v-2 q-16 4 -37 -3.5t-41.5 -20.5t-38 -27.5t-27.5 -26.5q31 -16 50.5 -47t27.5 -67t6 -72.5t-12 -67.5q-16 43 -50 66.5t-75 35t-85 14.5t-83 5q-45 4 -94 2t-92 14q-16 6 -22.5 25.5t-7.5 43t2 46l5 37.5q-184 -14 -363.5 -56.5t-351.5 -101.5q-8 -2 -8 -6q2 -10 8 -34 t10.5 -50.5t6.5 -49t-6 -28.5q-23 -18 -59 -21.5t-64 -7.5q-39 -6 -79 -12t-79 -12q-35 -8 -66.5 -17.5t-62.5 -21.5q-14 -8 -28.5 -13.5t-28.5 -15.5q-8 -8 -18.5 -20.5t-16.5 -16.5q10 35 24.5 68t26.5 63q2 6 13.5 25.5t21.5 41t18 39t6 21.5q-25 35 -58.5 68t-78.5 37z M229 113h47q4 -41 7.5 -83t11.5 -83q4 41 10 83t14 83h37l25 -166q4 41 9 83t9 83h43l-43 -224h-43q-6 37 -11 74t-9 74q-4 -37 -11.5 -74t-13.5 -74h-43zM233 1065q68 -37 109 -109q2 -2 -4 -15t-14.5 -28.5t-15.5 -29t-9 -19.5q-25 -45 -41 -94q51 27 104.5 39t108.5 20.5 t109.5 15.5t107.5 23q-18 18 -47 25.5t-61.5 8.5t-65.5 -2l-55 -5v131t4 131q-59 -16 -116.5 -39.5t-113.5 -52.5zM449 113h45q4 -41 8 -83t10 -83q4 41 10 83t15 83h38l23 -166q4 41 9 83t9 83h43l-43 -224h-41q-8 37 -13 74t-9 74q-4 -37 -10 -74t-13 -74h-45zM485 954 q8 0 22.5 6.5t29 15.5t28 18.5t23.5 13.5q37 16 74.5 29.5t76.5 27.5q78 23 156 43t160 39q78 16 154.5 31.5t156.5 21.5q72 8 154.5 11.5t152.5 -29.5q6 55 6 112.5t4 110.5q0 29 2.5 57.5t6.5 57.5q2 14 -6.5 22t-20.5 13.5t-26.5 7.5t-26.5 4q-119 18 -246 0.5 t-246 -41.5q-129 -27 -255 -60.5t-249 -87.5q-23 -12 -46 -24.5t-44 -28.5q-20 -16 -24 -49t-8 -55q-8 -66 -8.5 -132.5t-0.5 -134.5zM510 1071q0 23 15.5 38t35.5 19q6 2 15.5 -2t5.5 -14q-12 -8 -23 -8q-12 -4 -16 -16.5t2 -22.5q4 -4 8 -5t8 -3q20 -2 33.5 11t23 33.5 t13.5 41t8 35.5q-27 -27 -61 -35q-27 -4 -43 12q-16 8 -17 37q0 27 12 51q27 61 86 98q12 6 25.5 12.5t28.5 10.5q10 4 21 12t22 10q12 0 6 -12q12 0 20 -2q16 -2 27.5 -15.5t13.5 -31.5q6 -43 -23.5 -83t-66.5 -62q-18 -12 -27.5 -32t-18.5 -39t-20.5 -37.5t-33.5 -29.5 q-23 -16 -53 -10q-12 4 -20.5 14.5t-6.5 24.5zM549 1182.5q2 -15.5 22 -15.5q31 0 49.5 19.5t31 47.5t18.5 58.5t10 50.5q-29 -6 -52.5 -23t-43.5 -38q-6 -6 -15.5 -25.5t-15.5 -39t-4 -35zM666 113h45q4 -41 9 -83t9 -83q4 41 10 83t15 83h39l24 -166q2 41 7 83t12 83h41 l-41 -224h-43q-8 37 -12.5 74t-10.5 74q-4 -37 -10 -74l-12 -74h-43zM674 1196q14 4 29.5 19.5t25.5 35t14.5 40t-0.5 34.5q-6 23 -32 23q-14 -37 -20.5 -75t-16.5 -77zM725 384q2 34 2 60q0 20 -1 39t1 39q0 49 26.5 67.5t73.5 18.5q37 0 54.5 -20.5t23.5 -50t4 -63.5 t-2 -60v-80q0 -47 -26.5 -66.5t-71.5 -17.5q-39 0 -56.5 20.5t-23.5 50t-4 63.5zM771 1198.5q-5 20.5 6 46t31.5 46t43.5 22.5q12 0 16 -10q8 -12 2 -29q-6 -23 -27.5 -40t-43.5 -22q2 -12 10 -13t17.5 3t17.5 10.5t12 10.5q25 20 36 45.5t21 52.5q2 2 -1 9t-8 15.5t-8 17.5 t-1 15q10 27 35 23q12 0 16 -12q4 -10 2 -22.5t-2 -25.5q20 2 28.5 -1t-3.5 -27q-8 -16 -17.5 -33.5t-11.5 -36.5q0 -10 6 -10q20 0 34.5 20.5t26 46t22.5 51t26 33.5q8 2 16 -2q2 -4 2 -12q-4 -12 -10 -21.5t-2 -23.5q6 -12 13 -25.5t5 -27.5h2q20 25 32.5 60.5t45.5 51.5 q37 14 49 -20q10 -14 6 -25.5t-2 -27.5q8 2 15 10q16 12 18 34.5t8 41.5q4 4 11.5 5t11.5 -1q10 -2 8 -12v-3q10 10 25 17q10 6 17 2t11 -14q4 -12 1 -22.5t-8 -22t-10 -22.5t-3 -24q14 12 24.5 26.5t18.5 30t17.5 29t25.5 23.5q20 10 51 0q4 6 17.5 8t9.5 -14 q-4 -18 -14.5 -39t-10.5 -41q0 -14 8 -2q20 20 30.5 48t20 55.5t23.5 53t43 42.5q14 8 25 -9q12 -23 4 -48t-25 -42q-14 -18 -42.5 -43.5t-24.5 -52.5q4 -16 22 -12q14 6 21.5 19.5t15.5 25.5q4 2 12 2t8 -10l-4 -13q-16 -39 -53 -53q-25 -14 -43 14q-4 5 -4 11 q-10 -8 -16 -15.5t-19 -11.5q-10 -4 -16 0l-12 8q-4 -4 -12.5 -8t-16.5 -6q-31 -6 -43 20v2q-8 -10 -17.5 -17t-23.5 -11q-14 -8 -25 12q-6 12 -3 23.5t8.5 21.5t9.5 21.5t2 23.5q-18 -8 -25.5 -19.5t-11.5 -25.5t-6 -28.5t-8 -28.5q-6 -16 -25 -8q-8 2 -8 10q0 4 1 9t1 7 q-14 -4 -19.5 -4t-15.5 -10t-24.5 -18.5t-30.5 -8.5q-10 2 -16.5 8.5t-10.5 14.5q-16 -16 -39.5 -32.5t-50.5 -12.5q-16 2 -25 18q-25 -29 -51 -37q-29 -12 -33 21q-4 27 8.5 44t22.5 38q2 4 -3 5t-7 -3q-8 -20 -18.5 -44t-26 -45.5t-35.5 -34.5t-47 -11q-31 2 -36 22.5z M781 408.5q-1 -37.5 1 -74.5q0 -16 9.5 -26.5t21.5 -14.5t23.5 1t15.5 23q2 12 2 27.5v30.5v147q0 16 -10 27.5t-22.5 15.5t-24 -2t-15.5 -22q-2 -14 -1 -29.5t1 -28.5q0 -37 -1 -74.5zM797 662q12 14 15 36.5t2 48t-4 49t-3 42.5v125q0 16 1 30.5t-11 28.5h75 q-14 -12 -12 -32.5t2 -37.5v-141q0 -16 -2 -49t10 -47q14 -23 38 -8.5t28 32.5q8 27 3 54.5t-9 54.5q-4 14 -10.5 37.5t-8.5 48t2.5 46t20.5 34.5q10 10 31.5 10t29.5 -16q6 -16 -2 -21.5t-18 -4.5t-17.5 8t0.5 16q-16 -8 -17 -29t6 -44.5t17.5 -46t14.5 -34.5 q12 -37 17 -87t-21 -85q-10 -14 -33.5 -19.5t-50.5 -5.5t-53.5 3.5t-40.5 3.5zM799 1233q12 -2 28.5 15.5t18.5 27.5q4 8 -2 12t-13 -2q-10 -10 -18 -24.5t-14 -28.5zM858 -82q0 14 9.5 22.5t21.5 8.5t21.5 -8.5t9.5 -22.5q0 -16 -9.5 -23.5t-21.5 -7.5t-21.5 7.5t-9.5 23.5 zM920 1370q-2 -8 4 -20h4q0 8 1 13t-1 13q-6 0 -8 -6zM924 250q10 14 13 34.5t2 44t-4 46t-3 39.5v172q0 10 -8 22h57q29 -12 51.5 -50t34.5 -66q0 25 2 59.5t-12 56.5h73q-12 -10 -11 -24.5t1 -28.5v-246q0 -14 -1 -31.5t11 -27.5h-206zM940 -111l59 224h64l59 -224h-51 l-14 52h-53l-11 -52h-53zM987 293q0 -14 11.5 -23.5t25.5 -11.5t27.5 3.5t15.5 19.5q-4 63 -21.5 127.5t-58.5 115.5v-231zM1009 752.5q-3 19.5 7 31.5t32.5 13.5t26.5 -21.5q0 -10 -7 -15t-15.5 -5t-14.5 4t-6 14q-12 -4 -12 -14t7 -20.5t17.5 -19.5t16.5 -11 q14 -4 34.5 -4t30.5 10q20 20 16.5 40.5t-19 38t-36 32t-30.5 24.5q-18 16 -30.5 42t-12.5 52.5t13 48t44 27.5q27 6 54.5 4t52.5 -2l-7 -10q0 -14 7.5 -29.5t13.5 -31t5 -30t-15 -26.5q-14 -10 -34 -9t-22 21q0 12 7.5 17.5t15.5 5.5t14 -5t4 -14q14 2 14.5 12.5t-8 21.5 t-18.5 20.5t-18 11.5q-14 4 -33 1t-25 -20q-12 -25 -4 -43t24.5 -32.5t37 -27.5t32.5 -28q14 -20 22.5 -46.5t4.5 -52.5t-20.5 -44t-47.5 -22q-27 -2 -53 -1t-55 1q8 4 5 19t-8 33.5t-8 38zM1010 -20h41q-4 23 -9.5 46t-11.5 46zM1018 1260q4 -12 16.5 -10.5t14.5 14.5 q1 18 -11 43q-6 -8 -14 -22.5t-6 -24.5zM1135 1305l4 -15q10 -14 24 -6q16 4 23.5 21.5t3.5 33.5q-2 10 -9 16.5t-22 -3.5q-20 -14 -24 -47zM1141 250q12 14 15 36.5t2 47t-4 48.5t-3 40v127q0 16 1 29.5t-11 29.5h76q-10 -10 -13.5 -30.5t-2.5 -42t3 -43t2 -35.5v-166h105 q23 0 55.5 -3t54.5 13q-4 -8 -7 -29.5t-13 -21.5h-260zM1149 -111v222q29 4 64.5 6t62.5 -15q31 -23 23 -57.5t-37 -48.5q14 -6 21 -19.5t10 -29t5 -30.5t9 -28h-52q-6 12 -8 27.5t-6 29t-12 22.5t-27 7v-86h-53zM1200 49.5q2 -24.5 2 -35.5h12q18 0 26.5 10.5t6.5 22.5 t-11 21.5t-28 7.5q-10 -2 -8 -26.5zM1208 662q10 12 11.5 25t1.5 28v248q0 14 -1 30.5t-12 28.5h127q25 -25 26 -59.5t-9 -67.5q-4 -8 -15.5 -29.5t-20.5 -45t-11 -45t10 -27.5q-6 12 4 13t21.5 -4t14.5 -14.5t-18 -17.5q-25 -10 -35 9.5t-8 35.5q0 16 6.5 32.5t8.5 31 t-4.5 22.5t-28.5 6v-155q16 0 41.5 -3.5t44.5 11.5q-6 -14 -8 -26.5t-6 -26.5h-140zM1241 608h78q-12 -29 2 -65.5t27 -61.5q12 29 22 63t0 64h80q-23 -12 -27 -38.5t-10 -47.5q-6 -20 -23.5 -48t-17.5 -48q0 -23 -3 -56.5t13 -52.5h-75q18 18 14 54t-4 59 q-12 23 -21.5 46.5t-17.5 45.5q-10 23 -14 46.5t-23 39.5zM1276 907q20 0 46 2t28 33q0 16 -7.5 23.5t-18.5 10.5t-24.5 3h-23.5v-72zM1335 -111v224h54v-224h-54zM1389 1337q-4 -10 1 -27.5t21 -2.5q12 12 21.5 32.5t11.5 38.5q-2 8 -4 13.5t-13 1.5q-16 -8 -25 -23.5 t-13 -32.5zM1417 -82q0 14 9.5 22.5t21.5 8.5t21.5 -8.5t9.5 -22.5q0 -16 -9.5 -23.5t-21.5 -7.5t-21.5 7.5t-9.5 23.5zM1438 1059q-8 -6 4 -8q27 -10 57.5 -13.5t62 -3.5h62.5t59 -2q29 -2 57.5 -5t57.5 -13q29 -8 51.5 -23.5t48.5 -27.5q0 61 -21.5 106t-80.5 68 q35 31 70 58.5t76 43.5q-49 47 -111 77t-127 46q-2 -57 -3 -112.5t-5 -112.5l-2 2v-6q-27 -2 -65 -4.5t-74.5 -9.5t-68.5 -21.5t-48 -38.5zM1507 -111v224h58l67 -152q-4 39 -4 77v75h47v-224h-51q-20 39 -36.5 79t-35.5 77q2 -39 2 -78v-78h-47zM1536 1403q16 20 31.5 39.5 t19.5 46.5h-2q-37 -37 -49 -86zM1706 -22.5q-8 36.5 14 79.5q12 29 40 43.5t63 14.5h10t17.5 -2t16.5 -4.5t7 -4.5l-8 -41q-27 12 -48.5 8.5t-37 -18t-20.5 -37t3 -47.5q16 -47 62 -41q10 2 8 21.5t-2 27.5h-27v41h76v-120q-41 -16 -79 -9t-62.5 29.5t-32.5 59z" />
<glyph unicode="8" d="M178 1059q70 37 137.5 67.5t145.5 53.5q4 0 8 20.5t8 45t8 48t9 31.5q23 35 67.5 53.5t77.5 34.5q88 35 179 61.5t183 51.5q94 23 188.5 39t190.5 24q33 4 80 8.5t95.5 3t92.5 -12.5t70 -38q2 -4 -2 -28.5t-6 -32.5l-6 -98q0 -4 4 -5q78 -23 152.5 -58.5t124.5 -102.5v-2 q-16 4 -37 -3.5t-41.5 -20.5t-38 -27.5t-27.5 -26.5q31 -16 50.5 -47t27.5 -67t6 -72.5t-12 -67.5q-16 43 -50 66.5t-75 35t-85 14.5t-83 5q-45 4 -94 2t-92 14q-16 6 -22.5 25.5t-7.5 43t2 46l5 37.5q-184 -14 -363.5 -56.5t-351.5 -101.5q-8 -2 -8 -6q2 -10 8 -34 t10.5 -50.5t6.5 -49t-6 -28.5q-23 -18 -59 -21.5t-64 -7.5q-39 -6 -79 -12t-79 -12q-35 -8 -66.5 -17.5t-62.5 -21.5q-14 -8 -28.5 -13.5t-28.5 -15.5q-8 -8 -18.5 -20.5t-16.5 -16.5q10 35 24.5 68t26.5 63q2 6 13.5 25.5t21.5 41t18 39t6 21.5q-25 35 -58.5 68t-78.5 37z M229 113h47q4 -41 7.5 -83t11.5 -83q4 41 10 83t14 83h37l25 -166q4 41 9 83t9 83h43l-43 -224h-43q-6 37 -11 74t-9 74q-4 -37 -11.5 -74t-13.5 -74h-43zM233 1065q68 -37 109 -109q2 -2 -4 -15t-14.5 -28.5t-15.5 -29t-9 -19.5q-25 -45 -41 -94q51 27 104.5 39t108.5 20.5 t109.5 15.5t107.5 23q-18 18 -47 25.5t-61.5 8.5t-65.5 -2l-55 -5v131t4 131q-59 -16 -116.5 -39.5t-113.5 -52.5zM449 113h45q4 -41 8 -83t10 -83q4 41 10 83t15 83h38l23 -166q4 41 9 83t9 83h43l-43 -224h-41q-8 37 -13 74t-9 74q-4 -37 -10 -74t-13 -74h-45zM485 954 q8 0 22.5 6.5t29 15.5t28 18.5t23.5 13.5q37 16 74.5 29.5t76.5 27.5q78 23 156 43t160 39q78 16 154.5 31.5t156.5 21.5q72 8 154.5 11.5t152.5 -29.5q6 55 6 112.5t4 110.5q0 29 2.5 57.5t6.5 57.5q2 14 -6.5 22t-20.5 13.5t-26.5 7.5t-26.5 4q-119 18 -246 0.5 t-246 -41.5q-129 -27 -255 -60.5t-249 -87.5q-23 -12 -46 -24.5t-44 -28.5q-20 -16 -24 -49t-8 -55q-8 -66 -8.5 -132.5t-0.5 -134.5zM510 1071q0 23 15.5 38t35.5 19q6 2 15.5 -2t5.5 -14q-12 -8 -23 -8q-12 -4 -16 -16.5t2 -22.5q4 -4 8 -5t8 -3q20 -2 33.5 11t23 33.5 t13.5 41t8 35.5q-27 -27 -61 -35q-27 -4 -43 12q-16 8 -17 37q0 27 12 51q27 61 86 98q12 6 25.5 12.5t28.5 10.5q10 4 21 12t22 10q12 0 6 -12q12 0 20 -2q16 -2 27.5 -15.5t13.5 -31.5q6 -43 -23.5 -83t-66.5 -62q-18 -12 -27.5 -32t-18.5 -39t-20.5 -37.5t-33.5 -29.5 q-23 -16 -53 -10q-12 4 -20.5 14.5t-6.5 24.5zM549 1182.5q2 -15.5 22 -15.5q31 0 49.5 19.5t31 47.5t18.5 58.5t10 50.5q-29 -6 -52.5 -23t-43.5 -38q-6 -6 -15.5 -25.5t-15.5 -39t-4 -35zM666 113h45q4 -41 9 -83t9 -83q4 41 10 83t15 83h39l24 -166q2 41 7 83t12 83h41 l-41 -224h-43q-8 37 -12.5 74t-10.5 74q-4 -37 -10 -74l-12 -74h-43zM674 1196q14 4 29.5 19.5t25.5 35t14.5 40t-0.5 34.5q-6 23 -32 23q-14 -37 -20.5 -75t-16.5 -77zM725 384q2 34 2 60q0 20 -1 39t1 39q0 49 26.5 67.5t73.5 18.5q37 0 54.5 -20.5t23.5 -50t4 -63.5 t-2 -60v-80q0 -47 -26.5 -66.5t-71.5 -17.5q-39 0 -56.5 20.5t-23.5 50t-4 63.5zM771 1198.5q-5 20.5 6 46t31.5 46t43.5 22.5q12 0 16 -10q8 -12 2 -29q-6 -23 -27.5 -40t-43.5 -22q2 -12 10 -13t17.5 3t17.5 10.5t12 10.5q25 20 36 45.5t21 52.5q2 2 -1 9t-8 15.5t-8 17.5 t-1 15q10 27 35 23q12 0 16 -12q4 -10 2 -22.5t-2 -25.5q20 2 28.5 -1t-3.5 -27q-8 -16 -17.5 -33.5t-11.5 -36.5q0 -10 6 -10q20 0 34.5 20.5t26 46t22.5 51t26 33.5q8 2 16 -2q2 -4 2 -12q-4 -12 -10 -21.5t-2 -23.5q6 -12 13 -25.5t5 -27.5h2q20 25 32.5 60.5t45.5 51.5 q37 14 49 -20q10 -14 6 -25.5t-2 -27.5q8 2 15 10q16 12 18 34.5t8 41.5q4 4 11.5 5t11.5 -1q10 -2 8 -12v-3q10 10 25 17q10 6 17 2t11 -14q4 -12 1 -22.5t-8 -22t-10 -22.5t-3 -24q14 12 24.5 26.5t18.5 30t17.5 29t25.5 23.5q20 10 51 0q4 6 17.5 8t9.5 -14 q-4 -18 -14.5 -39t-10.5 -41q0 -14 8 -2q20 20 30.5 48t20 55.5t23.5 53t43 42.5q14 8 25 -9q12 -23 4 -48t-25 -42q-14 -18 -42.5 -43.5t-24.5 -52.5q4 -16 22 -12q14 6 21.5 19.5t15.5 25.5q4 2 12 2t8 -10l-4 -13q-16 -39 -53 -53q-25 -14 -43 14q-4 5 -4 11 q-10 -8 -16 -15.5t-19 -11.5q-10 -4 -16 0l-12 8q-4 -4 -12.5 -8t-16.5 -6q-31 -6 -43 20v2q-8 -10 -17.5 -17t-23.5 -11q-14 -8 -25 12q-6 12 -3 23.5t8.5 21.5t9.5 21.5t2 23.5q-18 -8 -25.5 -19.5t-11.5 -25.5t-6 -28.5t-8 -28.5q-6 -16 -25 -8q-8 2 -8 10q0 4 1 9t1 7 q-14 -4 -19.5 -4t-15.5 -10t-24.5 -18.5t-30.5 -8.5q-10 2 -16.5 8.5t-10.5 14.5q-16 -16 -39.5 -32.5t-50.5 -12.5q-16 2 -25 18q-25 -29 -51 -37q-29 -12 -33 21q-4 27 8.5 44t22.5 38q2 4 -3 5t-7 -3q-8 -20 -18.5 -44t-26 -45.5t-35.5 -34.5t-47 -11q-31 2 -36 22.5z M781 408.5q-1 -37.5 1 -74.5q0 -16 9.5 -26.5t21.5 -14.5t23.5 1t15.5 23q2 12 2 27.5v30.5v147q0 16 -10 27.5t-22.5 15.5t-24 -2t-15.5 -22q-2 -14 -1 -29.5t1 -28.5q0 -37 -1 -74.5zM797 662q12 14 15 36.5t2 48t-4 49t-3 42.5v125q0 16 1 30.5t-11 28.5h75 q-14 -12 -12 -32.5t2 -37.5v-141q0 -16 -2 -49t10 -47q14 -23 38 -8.5t28 32.5q8 27 3 54.5t-9 54.5q-4 14 -10.5 37.5t-8.5 48t2.5 46t20.5 34.5q10 10 31.5 10t29.5 -16q6 -16 -2 -21.5t-18 -4.5t-17.5 8t0.5 16q-16 -8 -17 -29t6 -44.5t17.5 -46t14.5 -34.5 q12 -37 17 -87t-21 -85q-10 -14 -33.5 -19.5t-50.5 -5.5t-53.5 3.5t-40.5 3.5zM799 1233q12 -2 28.5 15.5t18.5 27.5q4 8 -2 12t-13 -2q-10 -10 -18 -24.5t-14 -28.5zM858 -82q0 14 9.5 22.5t21.5 8.5t21.5 -8.5t9.5 -22.5q0 -16 -9.5 -23.5t-21.5 -7.5t-21.5 7.5t-9.5 23.5 zM920 1370q-2 -8 4 -20h4q0 8 1 13t-1 13q-6 0 -8 -6zM924 250q10 14 13 34.5t2 44t-4 46t-3 39.5v172q0 10 -8 22h57q29 -12 51.5 -50t34.5 -66q0 25 2 59.5t-12 56.5h73q-12 -10 -11 -24.5t1 -28.5v-246q0 -14 -1 -31.5t11 -27.5h-206zM940 -111l59 224h64l59 -224h-51 l-14 52h-53l-11 -52h-53zM987 293q0 -14 11.5 -23.5t25.5 -11.5t27.5 3.5t15.5 19.5q-4 63 -21.5 127.5t-58.5 115.5v-231zM1009 752.5q-3 19.5 7 31.5t32.5 13.5t26.5 -21.5q0 -10 -7 -15t-15.5 -5t-14.5 4t-6 14q-12 -4 -12 -14t7 -20.5t17.5 -19.5t16.5 -11 q14 -4 34.5 -4t30.5 10q20 20 16.5 40.5t-19 38t-36 32t-30.5 24.5q-18 16 -30.5 42t-12.5 52.5t13 48t44 27.5q27 6 54.5 4t52.5 -2l-7 -10q0 -14 7.5 -29.5t13.5 -31t5 -30t-15 -26.5q-14 -10 -34 -9t-22 21q0 12 7.5 17.5t15.5 5.5t14 -5t4 -14q14 2 14.5 12.5t-8 21.5 t-18.5 20.5t-18 11.5q-14 4 -33 1t-25 -20q-12 -25 -4 -43t24.5 -32.5t37 -27.5t32.5 -28q14 -20 22.5 -46.5t4.5 -52.5t-20.5 -44t-47.5 -22q-27 -2 -53 -1t-55 1q8 4 5 19t-8 33.5t-8 38zM1010 -20h41q-4 23 -9.5 46t-11.5 46zM1018 1260q4 -12 16.5 -10.5t14.5 14.5 q1 18 -11 43q-6 -8 -14 -22.5t-6 -24.5zM1135 1305l4 -15q10 -14 24 -6q16 4 23.5 21.5t3.5 33.5q-2 10 -9 16.5t-22 -3.5q-20 -14 -24 -47zM1141 250q12 14 15 36.5t2 47t-4 48.5t-3 40v127q0 16 1 29.5t-11 29.5h76q-10 -10 -13.5 -30.5t-2.5 -42t3 -43t2 -35.5v-166h105 q23 0 55.5 -3t54.5 13q-4 -8 -7 -29.5t-13 -21.5h-260zM1149 -111v222q29 4 64.5 6t62.5 -15q31 -23 23 -57.5t-37 -48.5q14 -6 21 -19.5t10 -29t5 -30.5t9 -28h-52q-6 12 -8 27.5t-6 29t-12 22.5t-27 7v-86h-53zM1200 49.5q2 -24.5 2 -35.5h12q18 0 26.5 10.5t6.5 22.5 t-11 21.5t-28 7.5q-10 -2 -8 -26.5zM1208 662q10 12 11.5 25t1.5 28v248q0 14 -1 30.5t-12 28.5h127q25 -25 26 -59.5t-9 -67.5q-4 -8 -15.5 -29.5t-20.5 -45t-11 -45t10 -27.5q-6 12 4 13t21.5 -4t14.5 -14.5t-18 -17.5q-25 -10 -35 9.5t-8 35.5q0 16 6.5 32.5t8.5 31 t-4.5 22.5t-28.5 6v-155q16 0 41.5 -3.5t44.5 11.5q-6 -14 -8 -26.5t-6 -26.5h-140zM1241 608h78q-12 -29 2 -65.5t27 -61.5q12 29 22 63t0 64h80q-23 -12 -27 -38.5t-10 -47.5q-6 -20 -23.5 -48t-17.5 -48q0 -23 -3 -56.5t13 -52.5h-75q18 18 14 54t-4 59 q-12 23 -21.5 46.5t-17.5 45.5q-10 23 -14 46.5t-23 39.5zM1276 907q20 0 46 2t28 33q0 16 -7.5 23.5t-18.5 10.5t-24.5 3h-23.5v-72zM1335 -111v224h54v-224h-54zM1389 1337q-4 -10 1 -27.5t21 -2.5q12 12 21.5 32.5t11.5 38.5q-2 8 -4 13.5t-13 1.5q-16 -8 -25 -23.5 t-13 -32.5zM1417 -82q0 14 9.5 22.5t21.5 8.5t21.5 -8.5t9.5 -22.5q0 -16 -9.5 -23.5t-21.5 -7.5t-21.5 7.5t-9.5 23.5zM1438 1059q-8 -6 4 -8q27 -10 57.5 -13.5t62 -3.5h62.5t59 -2q29 -2 57.5 -5t57.5 -13q29 -8 51.5 -23.5t48.5 -27.5q0 61 -21.5 106t-80.5 68 q35 31 70 58.5t76 43.5q-49 47 -111 77t-127 46q-2 -57 -3 -112.5t-5 -112.5l-2 2v-6q-27 -2 -65 -4.5t-74.5 -9.5t-68.5 -21.5t-48 -38.5zM1507 -111v224h58l67 -152q-4 39 -4 77v75h47v-224h-51q-20 39 -36.5 79t-35.5 77q2 -39 2 -78v-78h-47zM1536 1403q16 20 31.5 39.5 t19.5 46.5h-2q-37 -37 -49 -86zM1706 -22.5q-8 36.5 14 79.5q12 29 40 43.5t63 14.5h10t17.5 -2t16.5 -4.5t7 -4.5l-8 -41q-27 12 -48.5 8.5t-37 -18t-20.5 -37t3 -47.5q16 -47 62 -41q10 2 8 21.5t-2 27.5h-27v41h76v-120q-41 -16 -79 -9t-62.5 29.5t-32.5 59z" />
<glyph unicode="9" d="M178 1059q70 37 137.5 67.5t145.5 53.5q4 0 8 20.5t8 45t8 48t9 31.5q23 35 67.5 53.5t77.5 34.5q88 35 179 61.5t183 51.5q94 23 188.5 39t190.5 24q33 4 80 8.5t95.5 3t92.5 -12.5t70 -38q2 -4 -2 -28.5t-6 -32.5l-6 -98q0 -4 4 -5q78 -23 152.5 -58.5t124.5 -102.5v-2 q-16 4 -37 -3.5t-41.5 -20.5t-38 -27.5t-27.5 -26.5q31 -16 50.5 -47t27.5 -67t6 -72.5t-12 -67.5q-16 43 -50 66.5t-75 35t-85 14.5t-83 5q-45 4 -94 2t-92 14q-16 6 -22.5 25.5t-7.5 43t2 46l5 37.5q-184 -14 -363.5 -56.5t-351.5 -101.5q-8 -2 -8 -6q2 -10 8 -34 t10.5 -50.5t6.5 -49t-6 -28.5q-23 -18 -59 -21.5t-64 -7.5q-39 -6 -79 -12t-79 -12q-35 -8 -66.5 -17.5t-62.5 -21.5q-14 -8 -28.5 -13.5t-28.5 -15.5q-8 -8 -18.5 -20.5t-16.5 -16.5q10 35 24.5 68t26.5 63q2 6 13.5 25.5t21.5 41t18 39t6 21.5q-25 35 -58.5 68t-78.5 37z M229 113h47q4 -41 7.5 -83t11.5 -83q4 41 10 83t14 83h37l25 -166q4 41 9 83t9 83h43l-43 -224h-43q-6 37 -11 74t-9 74q-4 -37 -11.5 -74t-13.5 -74h-43zM233 1065q68 -37 109 -109q2 -2 -4 -15t-14.5 -28.5t-15.5 -29t-9 -19.5q-25 -45 -41 -94q51 27 104.5 39t108.5 20.5 t109.5 15.5t107.5 23q-18 18 -47 25.5t-61.5 8.5t-65.5 -2l-55 -5v131t4 131q-59 -16 -116.5 -39.5t-113.5 -52.5zM449 113h45q4 -41 8 -83t10 -83q4 41 10 83t15 83h38l23 -166q4 41 9 83t9 83h43l-43 -224h-41q-8 37 -13 74t-9 74q-4 -37 -10 -74t-13 -74h-45zM485 954 q8 0 22.5 6.5t29 15.5t28 18.5t23.5 13.5q37 16 74.5 29.5t76.5 27.5q78 23 156 43t160 39q78 16 154.5 31.5t156.5 21.5q72 8 154.5 11.5t152.5 -29.5q6 55 6 112.5t4 110.5q0 29 2.5 57.5t6.5 57.5q2 14 -6.5 22t-20.5 13.5t-26.5 7.5t-26.5 4q-119 18 -246 0.5 t-246 -41.5q-129 -27 -255 -60.5t-249 -87.5q-23 -12 -46 -24.5t-44 -28.5q-20 -16 -24 -49t-8 -55q-8 -66 -8.5 -132.5t-0.5 -134.5zM510 1071q0 23 15.5 38t35.5 19q6 2 15.5 -2t5.5 -14q-12 -8 -23 -8q-12 -4 -16 -16.5t2 -22.5q4 -4 8 -5t8 -3q20 -2 33.5 11t23 33.5 t13.5 41t8 35.5q-27 -27 -61 -35q-27 -4 -43 12q-16 8 -17 37q0 27 12 51q27 61 86 98q12 6 25.5 12.5t28.5 10.5q10 4 21 12t22 10q12 0 6 -12q12 0 20 -2q16 -2 27.5 -15.5t13.5 -31.5q6 -43 -23.5 -83t-66.5 -62q-18 -12 -27.5 -32t-18.5 -39t-20.5 -37.5t-33.5 -29.5 q-23 -16 -53 -10q-12 4 -20.5 14.5t-6.5 24.5zM549 1182.5q2 -15.5 22 -15.5q31 0 49.5 19.5t31 47.5t18.5 58.5t10 50.5q-29 -6 -52.5 -23t-43.5 -38q-6 -6 -15.5 -25.5t-15.5 -39t-4 -35zM666 113h45q4 -41 9 -83t9 -83q4 41 10 83t15 83h39l24 -166q2 41 7 83t12 83h41 l-41 -224h-43q-8 37 -12.5 74t-10.5 74q-4 -37 -10 -74l-12 -74h-43zM674 1196q14 4 29.5 19.5t25.5 35t14.5 40t-0.5 34.5q-6 23 -32 23q-14 -37 -20.5 -75t-16.5 -77zM725 384q2 34 2 60q0 20 -1 39t1 39q0 49 26.5 67.5t73.5 18.5q37 0 54.5 -20.5t23.5 -50t4 -63.5 t-2 -60v-80q0 -47 -26.5 -66.5t-71.5 -17.5q-39 0 -56.5 20.5t-23.5 50t-4 63.5zM771 1198.5q-5 20.5 6 46t31.5 46t43.5 22.5q12 0 16 -10q8 -12 2 -29q-6 -23 -27.5 -40t-43.5 -22q2 -12 10 -13t17.5 3t17.5 10.5t12 10.5q25 20 36 45.5t21 52.5q2 2 -1 9t-8 15.5t-8 17.5 t-1 15q10 27 35 23q12 0 16 -12q4 -10 2 -22.5t-2 -25.5q20 2 28.5 -1t-3.5 -27q-8 -16 -17.5 -33.5t-11.5 -36.5q0 -10 6 -10q20 0 34.5 20.5t26 46t22.5 51t26 33.5q8 2 16 -2q2 -4 2 -12q-4 -12 -10 -21.5t-2 -23.5q6 -12 13 -25.5t5 -27.5h2q20 25 32.5 60.5t45.5 51.5 q37 14 49 -20q10 -14 6 -25.5t-2 -27.5q8 2 15 10q16 12 18 34.5t8 41.5q4 4 11.5 5t11.5 -1q10 -2 8 -12v-3q10 10 25 17q10 6 17 2t11 -14q4 -12 1 -22.5t-8 -22t-10 -22.5t-3 -24q14 12 24.5 26.5t18.5 30t17.5 29t25.5 23.5q20 10 51 0q4 6 17.5 8t9.5 -14 q-4 -18 -14.5 -39t-10.5 -41q0 -14 8 -2q20 20 30.5 48t20 55.5t23.5 53t43 42.5q14 8 25 -9q12 -23 4 -48t-25 -42q-14 -18 -42.5 -43.5t-24.5 -52.5q4 -16 22 -12q14 6 21.5 19.5t15.5 25.5q4 2 12 2t8 -10l-4 -13q-16 -39 -53 -53q-25 -14 -43 14q-4 5 -4 11 q-10 -8 -16 -15.5t-19 -11.5q-10 -4 -16 0l-12 8q-4 -4 -12.5 -8t-16.5 -6q-31 -6 -43 20v2q-8 -10 -17.5 -17t-23.5 -11q-14 -8 -25 12q-6 12 -3 23.5t8.5 21.5t9.5 21.5t2 23.5q-18 -8 -25.5 -19.5t-11.5 -25.5t-6 -28.5t-8 -28.5q-6 -16 -25 -8q-8 2 -8 10q0 4 1 9t1 7 q-14 -4 -19.5 -4t-15.5 -10t-24.5 -18.5t-30.5 -8.5q-10 2 -16.5 8.5t-10.5 14.5q-16 -16 -39.5 -32.5t-50.5 -12.5q-16 2 -25 18q-25 -29 -51 -37q-29 -12 -33 21q-4 27 8.5 44t22.5 38q2 4 -3 5t-7 -3q-8 -20 -18.5 -44t-26 -45.5t-35.5 -34.5t-47 -11q-31 2 -36 22.5z M781 408.5q-1 -37.5 1 -74.5q0 -16 9.5 -26.5t21.5 -14.5t23.5 1t15.5 23q2 12 2 27.5v30.5v147q0 16 -10 27.5t-22.5 15.5t-24 -2t-15.5 -22q-2 -14 -1 -29.5t1 -28.5q0 -37 -1 -74.5zM797 662q12 14 15 36.5t2 48t-4 49t-3 42.5v125q0 16 1 30.5t-11 28.5h75 q-14 -12 -12 -32.5t2 -37.5v-141q0 -16 -2 -49t10 -47q14 -23 38 -8.5t28 32.5q8 27 3 54.5t-9 54.5q-4 14 -10.5 37.5t-8.5 48t2.5 46t20.5 34.5q10 10 31.5 10t29.5 -16q6 -16 -2 -21.5t-18 -4.5t-17.5 8t0.5 16q-16 -8 -17 -29t6 -44.5t17.5 -46t14.5 -34.5 q12 -37 17 -87t-21 -85q-10 -14 -33.5 -19.5t-50.5 -5.5t-53.5 3.5t-40.5 3.5zM799 1233q12 -2 28.5 15.5t18.5 27.5q4 8 -2 12t-13 -2q-10 -10 -18 -24.5t-14 -28.5zM858 -82q0 14 9.5 22.5t21.5 8.5t21.5 -8.5t9.5 -22.5q0 -16 -9.5 -23.5t-21.5 -7.5t-21.5 7.5t-9.5 23.5 zM920 1370q-2 -8 4 -20h4q0 8 1 13t-1 13q-6 0 -8 -6zM924 250q10 14 13 34.5t2 44t-4 46t-3 39.5v172q0 10 -8 22h57q29 -12 51.5 -50t34.5 -66q0 25 2 59.5t-12 56.5h73q-12 -10 -11 -24.5t1 -28.5v-246q0 -14 -1 -31.5t11 -27.5h-206zM940 -111l59 224h64l59 -224h-51 l-14 52h-53l-11 -52h-53zM987 293q0 -14 11.5 -23.5t25.5 -11.5t27.5 3.5t15.5 19.5q-4 63 -21.5 127.5t-58.5 115.5v-231zM1009 752.5q-3 19.5 7 31.5t32.5 13.5t26.5 -21.5q0 -10 -7 -15t-15.5 -5t-14.5 4t-6 14q-12 -4 -12 -14t7 -20.5t17.5 -19.5t16.5 -11 q14 -4 34.5 -4t30.5 10q20 20 16.5 40.5t-19 38t-36 32t-30.5 24.5q-18 16 -30.5 42t-12.5 52.5t13 48t44 27.5q27 6 54.5 4t52.5 -2l-7 -10q0 -14 7.5 -29.5t13.5 -31t5 -30t-15 -26.5q-14 -10 -34 -9t-22 21q0 12 7.5 17.5t15.5 5.5t14 -5t4 -14q14 2 14.5 12.5t-8 21.5 t-18.5 20.5t-18 11.5q-14 4 -33 1t-25 -20q-12 -25 -4 -43t24.5 -32.5t37 -27.5t32.5 -28q14 -20 22.5 -46.5t4.5 -52.5t-20.5 -44t-47.5 -22q-27 -2 -53 -1t-55 1q8 4 5 19t-8 33.5t-8 38zM1010 -20h41q-4 23 -9.5 46t-11.5 46zM1018 1260q4 -12 16.5 -10.5t14.5 14.5 q1 18 -11 43q-6 -8 -14 -22.5t-6 -24.5zM1135 1305l4 -15q10 -14 24 -6q16 4 23.5 21.5t3.5 33.5q-2 10 -9 16.5t-22 -3.5q-20 -14 -24 -47zM1141 250q12 14 15 36.5t2 47t-4 48.5t-3 40v127q0 16 1 29.5t-11 29.5h76q-10 -10 -13.5 -30.5t-2.5 -42t3 -43t2 -35.5v-166h105 q23 0 55.5 -3t54.5 13q-4 -8 -7 -29.5t-13 -21.5h-260zM1149 -111v222q29 4 64.5 6t62.5 -15q31 -23 23 -57.5t-37 -48.5q14 -6 21 -19.5t10 -29t5 -30.5t9 -28h-52q-6 12 -8 27.5t-6 29t-12 22.5t-27 7v-86h-53zM1200 49.5q2 -24.5 2 -35.5h12q18 0 26.5 10.5t6.5 22.5 t-11 21.5t-28 7.5q-10 -2 -8 -26.5zM1208 662q10 12 11.5 25t1.5 28v248q0 14 -1 30.5t-12 28.5h127q25 -25 26 -59.5t-9 -67.5q-4 -8 -15.5 -29.5t-20.5 -45t-11 -45t10 -27.5q-6 12 4 13t21.5 -4t14.5 -14.5t-18 -17.5q-25 -10 -35 9.5t-8 35.5q0 16 6.5 32.5t8.5 31 t-4.5 22.5t-28.5 6v-155q16 0 41.5 -3.5t44.5 11.5q-6 -14 -8 -26.5t-6 -26.5h-140zM1241 608h78q-12 -29 2 -65.5t27 -61.5q12 29 22 63t0 64h80q-23 -12 -27 -38.5t-10 -47.5q-6 -20 -23.5 -48t-17.5 -48q0 -23 -3 -56.5t13 -52.5h-75q18 18 14 54t-4 59 q-12 23 -21.5 46.5t-17.5 45.5q-10 23 -14 46.5t-23 39.5zM1276 907q20 0 46 2t28 33q0 16 -7.5 23.5t-18.5 10.5t-24.5 3h-23.5v-72zM1335 -111v224h54v-224h-54zM1389 1337q-4 -10 1 -27.5t21 -2.5q12 12 21.5 32.5t11.5 38.5q-2 8 -4 13.5t-13 1.5q-16 -8 -25 -23.5 t-13 -32.5zM1417 -82q0 14 9.5 22.5t21.5 8.5t21.5 -8.5t9.5 -22.5q0 -16 -9.5 -23.5t-21.5 -7.5t-21.5 7.5t-9.5 23.5zM1438 1059q-8 -6 4 -8q27 -10 57.5 -13.5t62 -3.5h62.5t59 -2q29 -2 57.5 -5t57.5 -13q29 -8 51.5 -23.5t48.5 -27.5q0 61 -21.5 106t-80.5 68 q35 31 70 58.5t76 43.5q-49 47 -111 77t-127 46q-2 -57 -3 -112.5t-5 -112.5l-2 2v-6q-27 -2 -65 -4.5t-74.5 -9.5t-68.5 -21.5t-48 -38.5zM1507 -111v224h58l67 -152q-4 39 -4 77v75h47v-224h-51q-20 39 -36.5 79t-35.5 77q2 -39 2 -78v-78h-47zM1536 1403q16 20 31.5 39.5 t19.5 46.5h-2q-37 -37 -49 -86zM1706 -22.5q-8 36.5 14 79.5q12 29 40 43.5t63 14.5h10t17.5 -2t16.5 -4.5t7 -4.5l-8 -41q-27 12 -48.5 8.5t-37 -18t-20.5 -37t3 -47.5q16 -47 62 -41q10 2 8 21.5t-2 27.5h-27v41h76v-120q-41 -16 -79 -9t-62.5 29.5t-32.5 59z" />
<glyph unicode=":" horiz-adv-x="174" d="M24 753.5q1 14.5 15 16.5q12 2 21.5 -7t14.5 -22.5t9 -29t8 -23.5l19 -37q4 -4 14 -19.5t16 -30.5t4 -25.5t-24 -4.5q-20 2 -32.5 27t-18.5 39l-17 35q-2 2 -10 17.5t-14 32.5t-5 31.5zM55 1084.5q0 17.5 6.5 26.5t24.5 -3q18 -10 21.5 -39t3.5 -45v-14t2 -21 q2 -4 4 -21.5t0 -35t-8.5 -30.5t-20.5 -9q-12 4 -16 15.5t-4 25.5t2 27.5t2 23.5l-6 43q-2 4 -6.5 21.5t-4.5 35z" />
<glyph unicode=";" horiz-adv-x="172" d="M39 113q10 82 21.5 161.5t19.5 163.5q6 47 10 94.5t6 94.5q0 29 -7 61.5t3 59.5q4 14 12.5 16t15.5 -3t13 -15.5t8 -18.5q4 -27 2 -53.5t-6 -55.5q-4 -94 -20.5 -185t-38.5 -183q-16 -66 -39 -137zM44 1074.5q-1 17.5 5 26.5t25 -3q20 -10 23 -39t3 -45v-14.5t2 -22.5 q0 -4 2 -20.5t1 -35t-7 -31.5t-20 -9q-25 10 -23 42.5t6 51.5l-6 41q-2 6 -6 23.5t-5 35z" />
<glyph unicode="&#x3c;" horiz-adv-x="413" d="M35.5 745.5q-17.5 22.5 3.5 53.5q25 33 58.5 58.5t70.5 48t74 46t67 52.5q10 12 27.5 28.5t36.5 5.5q12 -4 12 -15t-6 -19q-16 -29 -51 -47.5t-60 -36.5q-29 -18 -58.5 -39t-57.5 -41q-18 -12 -47 -30.5t-39 -41.5q23 -23 61.5 -37t69.5 -24q35 -12 77.5 -18.5 t75.5 -22.5q16 -8 19.5 -17.5t-3 -17.5t-18.5 -11.5t-24 1.5q-29 10 -55.5 21.5t-55.5 21.5q-18 4 -55 14t-71 27.5t-51.5 40z" />
<glyph unicode="=" horiz-adv-x="768" d="M29 693q-2 9 6 19.5t28 14.5l97 4q72 6 142.5 5t141.5 -5h43q4 0 23.5 -1t39 -5t29 -12t-9.5 -23q-12 -10 -30.5 -10t-38 3t-39 7t-33.5 6q-49 2 -100.5 3t-100.5 -1q-41 -2 -76.5 -9t-76.5 -13q-18 -4 -30.5 2t-14.5 15zM29 871.5q0 7.5 10 15.5q20 18 58 12t63 -6 q76 0 151.5 5t149.5 11q41 2 77.5 4t75.5 7q25 2 53.5 10t53.5 -2q23 -6 16.5 -22.5t-24.5 -20.5q-27 -10 -59.5 -7t-61.5 1q-104 -6 -205.5 -13.5t-204.5 -9.5q-29 -2 -56 -5t-56 -3q-8 0 -17.5 3t-16.5 8t-7 12.5z" />
<glyph unicode="&#x3e;" horiz-adv-x="397" d="M33 652.5q10 19.5 31.5 38t45 33.5t27.5 19q23 18 49.5 34t53 33t50 35.5t42.5 41.5q-23 20 -57.5 31.5t-63.5 23.5q-12 6 -31.5 13.5t-40 18.5t-35 24.5t-16.5 29.5q-2 20 10.5 21.5t28.5 -8t32.5 -21.5t20.5 -16q33 -23 71 -38.5t75 -31.5q16 -6 30.5 -17.5t14.5 -29.5 q0 -16 -11.5 -30.5t-28 -27t-33.5 -22.5t-30 -16q-35 -23 -66.5 -45.5t-60.5 -47.5q-8 -6 -20 -21t-25.5 -28.5t-28 -21.5t-26.5 -2q-18 8 -8 27.5z" />
<glyph unicode="?" horiz-adv-x="520" d="M31 1020q-6 47 7 94t36 88t64.5 95.5t95 95.5t111.5 56t112 -17q10 -8 18 -21q20 -31 14 -68.5t-23 -75.5t-41 -74t-38 -60q-41 -66 -83 -131.5t-66 -137.5q-8 -18 -9.5 -38.5t-9.5 -41.5q-4 -12 -16.5 -20t-22.5 6q-10 10 -9 25.5t5 27.5q10 41 31.5 82t44.5 78 q29 51 59.5 100.5t61.5 98.5q12 20 27.5 43.5t28.5 50.5t20.5 52.5t1.5 49.5l-7 13l-8 8q-27 16 -56.5 14t-58 -14.5t-54 -31.5t-46.5 -36q-41 -37 -74.5 -83t-54.5 -99q-16 -39 -16 -65.5t6 -67.5q4 -12 1 -29.5t-26 -9.5q-12 4 -17 18.5t-9 24.5zM65.5 510.5 q8.5 30.5 32 60t51 55t44.5 38.5q29 18 67.5 40.5t77.5 26.5q10 0 21.5 -3t13.5 -19q4 -18 -17.5 -25.5t-31.5 -9.5q-29 -8 -65 -25.5t-66.5 -42t-52 -55.5t-23.5 -64l2 -2q20 -8 45.5 -4t51.5 14.5t50.5 22.5t40.5 23q27 16 52.5 35.5t37.5 48.5l-2 2q-14 6 -35.5 3 t-35.5 -5q-25 -6 -48.5 -7.5t-46.5 -5.5q18 14 40 26.5t45.5 21t48 10.5t49.5 -6q23 -10 25.5 -26.5t-4.5 -34t-20.5 -34t-25.5 -26.5q-25 -18 -59.5 -42t-74.5 -41.5t-80 -24.5t-73 7q-4 2 -9 5.5t-9 7.5q-25 25 -16.5 55.5z" />
<glyph unicode="@" horiz-adv-x="759" d="M30 838q3 86 28.5 169t70.5 146q37 53 92 89t117.5 50.5t126 3t119.5 -52.5q43 -31 74.5 -72t50 -89t21.5 -100t-11 -103q-20 -72 -68.5 -110t-110 -51t-129 -9t-126.5 20q-27 6 -57.5 19.5t-39.5 42.5q-8 25 3.5 46t32 37.5t45 27.5t44.5 18q-8 0 -25.5 -4.5t-34.5 -7.5 t-31.5 0t-16.5 18q-4 18 9 25t30.5 8.5t36 0t26.5 -1.5l64 -8q6 -2 24.5 -3t36 -5t28.5 -13t5 -26q-2 -14 -14.5 -18t-27.5 -4t-30.5 2t-23.5 2q-14 0 -39 -5.5t-48.5 -16.5t-40 -26.5t-12.5 -35.5v-2h2q20 -16 50 -24.5t57 -12.5q55 -8 115.5 -9t113.5 21q37 10 60.5 36 t37 58.5t16.5 68.5t-3 71q-12 76 -56 132t-104.5 84.5t-131.5 25.5t-134 -46q-72 -47 -116 -133t-56 -183t9.5 -189.5t84.5 -151.5q37 -35 84 -55.5t97.5 -25.5t99.5 5t92 37q53 31 95 80t77 102q-25 -109 -101.5 -180.5t-193.5 -85.5v4q-80 -10 -159 16.5t-136 85.5 q-55 59 -78.5 140.5t-20.5 167.5z" />
<glyph unicode="A" horiz-adv-x="1345" d="M31 719q2 18 14 32.5t27 26.5q63 57 148 87t167 48q86 23 173 35.5t177 18.5q35 78 69 157.5t62 159.5q2 8 9.5 39t16.5 63.5t20.5 56t25.5 21.5q14 6 32.5 -23.5t35 -70.5t28 -79t15.5 -46q25 -70 46 -141.5t40 -142.5q66 -6 104.5 -11.5t69.5 -15.5q6 -2 15 -8 t15.5 -13.5t5.5 -14.5t-14 -13q-16 -10 -39.5 -2t-40.5 14q-27 10 -59.5 13t-42.5 3q18 -68 34.5 -134t37 -132.5t46 -132t60.5 -127.5q29 -53 65 -104.5t81 -92.5q14 -16 28.5 -29.5t30.5 -23.5t36.5 -15t31.5 -22q8 -8 7 -18t-12 -14q-25 -10 -54.5 7t-57 42.5t-51 53.5 t-33.5 40q-63 78 -107.5 163t-77 175t-58 183t-50.5 188q-101 7 -207 7q-43 0 -86 -1q-43 -92 -92 -179.5t-100 -175.5q-6 -10 -18.5 -35.5t-28 -52t-32 -43t-30.5 -6.5q-12 4 -5 29.5t21.5 56.5t29.5 59.5t20 36.5q35 74 69.5 150t69.5 154q-115 -6 -228.5 -26t-224.5 -56 q-25 -8 -53.5 -19.5t-56 -26t-51 -34t-35.5 -43.5q38 -16 90 -15h3q54 0 95 8q-14 -4 -53 -14t-79 -15q-17 -2 -32 -2q-22 0 -38 4q-30 7 -25 38zM575 569q35 55 67 112t63 112q16 35 33.5 66.5t33.5 62.5h-43q-41 -86 -81 -173t-73 -180zM750 967q12 0 23 1t24 1l59 139 q16 37 31 88q4 23 6 41t29 31q16 8 17 -8.5t-4 -40t-12.5 -46t-7.5 -24.5q-18 -47 -36 -91t-41 -89q44 3 87 3q22 0 43 -1q64 -2 130 -6q-31 111 -65 222t-91 212q-49 -106 -96 -215t-96 -217z" />
<glyph unicode="B" horiz-adv-x="1464" d="M31 1300q-10 16 13.5 33t56 29t64.5 20.5t40 12.5q78 23 156.5 34t160.5 17q104 8 210 8t210 -14q45 -6 95 -14.5t99.5 -21.5t93.5 -34.5t81 -52.5q51 -43 54 -85v-8q-1 -38 -25 -72q-28 -38 -78 -73t-104 -62.5t-103 -47t-76 -27.5q57 -14 119.5 -35.5t121 -51.5 t108.5 -71t81 -96q27 -49 27 -86q0 -20 -8 -36q-22 -48 -76 -78.5t-121.5 -45t-118.5 -18.5q-16 0 -34 -1t-34 -1h-81t-96 6t-90 22.5t-60 49.5q-6 10 -9 23.5t-6 23.5q-2 25 13.5 50.5t44.5 20.5q14 -4 16 -11t-3 -16t-13 -18.5t-10 -15.5q-8 -14 2 -35q6 -14 23.5 -23.5 t38 -15.5t40.5 -9t33 -5q47 -6 93 -8q23 -1 46.5 -1t46.5 1q37 2 78 6t82 12t78 24.5t63 43.5q27 26 27 55q0 6 -1 12q-7 36 -35 72.5t-63.5 65t-60.5 43.5q-78 47 -162 77.5t-176 49.5q-14 -6 -30.5 -9.5t-32.5 -7.5q4 -45 6 -90t6 -88q0 -12 5 -28.5t8 -35t1 -35 t-12 -24.5l-10 -6q-14 -4 -21.5 13.5t-10.5 40t-4 46t-3 33.5q-27 88 -76 158q-14 0 -32.5 -1t-37 1t-34 9t-23.5 24q-12 29 12.5 42t47.5 17q-80 86 -180.5 147.5t-211.5 98.5q-37 12 -73.5 23.5t-75.5 15.5h-23.5t-31 3t-26.5 10t-9 21zM100 1309l127 -43 q121 -43 232.5 -109.5t202.5 -165.5l8 -10q31 2 63.5 1t63.5 -5q-4 29 -9.5 58.5t-11.5 62.5q-6 25 -22.5 48t-20.5 48q2 8 0 14t8 13l2 4h9q18 -2 29.5 -17.5t17.5 -36t9 -42t7 -35.5q6 -29 11 -59.5t10 -61.5l67 -12q70 18 137.5 44.5t130.5 61.5q39 20 78 48t62 65 q23 31 14.5 58.5t-35 49t-64.5 37.5t-78 29.5t-74 20.5t-50 11q-129 25 -259 29q-32 1 -65 1q-97 0 -194 -9q-102 -10 -209 -28.5t-197 -69.5zM641 936q9 -8 25 -8q10 -2 19 -2h20l-15 18q-12 0 -25.5 -2t-23.5 -6zM700 944l13 -18q23 2 44 4t42 6v4q-25 2 -49.5 3t-49.5 1z M737 889q16 -25 30.5 -49.5t25.5 -46.5l20 -41q-4 72 -12 145z" />
<glyph unicode="C" horiz-adv-x="1587" d="M30 847q7 79 40 159q68 160 199.5 276.5t293.5 167.5q87 29 179 39q44 5 87 5q48 0 95 -6q90 -11 173 -48t150 -101q27 -25 49 -57q23 -34 32 -68q4 -17 4.5 -34.5t-4.5 -34.5q-9 -35 -46 -66q-12 -10 -38.5 -21t-55.5 -19.5t-58.5 -9.5t-48.5 9q-18 10 -15 27.5t26 19.5 q16 0 29.5 -3t29.5 -5q16 0 33.5 2t34.5 8q47 17 67 55q10 21 10 41q0 19 -8 38q-29 72 -90 118.5t-136 73.5t-155 36q-55 6 -105 6q-22 0 -42 -1q-102 -8 -199.5 -44t-182.5 -93t-153.5 -136t-111.5 -173q-25 -52 -37 -108q-10 -47 -11 -93q1 -9 1 -19q2 -56 21 -107.5 t63 -94.5q39 -41 88 -67.5t103 -44t111.5 -26t110.5 -12.5q52 -4 105 -3q60 0 122 4q116 9 228 34t220 66t206 96q23 12 53.5 35.5t52.5 23.5q23 0 23 -15t-10 -26q-12 -12 -29.5 -19t-32.5 -16q-90 -47 -180 -85.5t-188 -67.5v4q-102 -31 -215 -51.5t-229 -23.5h-34 q-97 0 -193 14q-112 18 -210 63q-84 39 -135 99t-73 130q-16 53 -16 111q0 19 2 38z" />
<glyph unicode="D" horiz-adv-x="1208" d="M31 1462q0 4 1 8.5t1 8.5q12 27 39.5 40t61.5 17q23 3 45 2h23q34 -2 58 -4q78 -6 155 -23.5t152 -44.5q139 -47 274.5 -122.5t227.5 -194.5q80 -102 89 -229q1 -17 1 -33q0 -109 -51 -211q-35 -61 -86 -110.5t-113.5 -84.5t-131 -54t-138.5 -21v-3q-25 -2 -53.5 0.5 t-55 9.5t-49 20t-37.5 38q-21 33 -21 67q1 6 1 12q4 40 25.5 77t53.5 69.5t58 57.5q-23 -20 -44 -49t-36.5 -62t-20.5 -67q-1 -10 -1 -20q0 -24 8 -46q16 -39 54 -51.5t79 -14.5h22l150 24q86 28 156.5 78t121 122.5t62.5 162.5q3 27 3 53q-1 64 -21 120q-30 79 -85 143.5 t-129.5 116t-150.5 88.5q-90 45 -185 77.5t-196 51.5q-25 4 -64.5 12t-80.5 10h-18q-31 0 -60 -5q-37 -7 -55 -32q0 -2 -2 -3t-2 -5q-1 -7 0 -13q0 -25 11 -53q15 -34 39.5 -68t50.5 -64.5t44 -51.5q92 -113 203 -217q53 -47 109.5 -93t115.5 -83q2 -2 19.5 -11t37 -18.5 t36 -13.5t18.5 6l2 4q0 10 -2 17q-12 47 -33 91t-37 91q-16 43 -31.5 88t-23.5 92q-2 18 -10.5 49t12.5 47q18 14 27.5 0t14.5 -39.5t7 -52t4 -35.5q18 -82 50 -159.5t42 -161.5q4 -16 -1 -34.5t-28 -18.5q-27 2 -54 14t-53 30.5t-50.5 38t-42.5 33.5q-59 43 -114.5 91.5 t-106.5 97.5q-53 47 -102.5 97t-92.5 104q-31 41 -65 94q-31 47 -31 95v11z" />
<glyph unicode="E" horiz-adv-x="978" d="M28 882.5q-3 14.5 13 20.5q12 6 27.5 4t27.5 -6q28 -3 53 -4q6 0 13 1q31 1 65 5q-3 59 -3 116q0 29 1 58q1 22 1 43q0 65 -5 131l-112 -53q-6 -4 -18.5 -6t-24 -2t-18.5 6t-1 21q6 10 29.5 21t51.5 22.5t54.5 19.5t36.5 12q-2 10 -7 37t-9 54.5t-4 49t12 25.5 q16 6 25.5 -12.5t14.5 -45t7 -53t2 -38.5q82 37 164 74.5t166 70.5t171 56.5t177 31.5q39 4 79 9q22 3 45 2q18 0 36 -1q6 0 16 -4t16.5 -10t7.5 -13t-10 -16q-16 -12 -40.5 -8t-43.5 8q-19 1 -38 1q-33 0 -68 -4q-55 -7 -109 -17q-150 -29 -288 -92.5t-279 -124.5 q6 -47 6 -92l6 -269q86 18 175.5 45t166.5 72q14 8 35 18.5t37 0.5q20 -14 2 -33q-18 -23 -58 -33t-65 -20q-72 -27 -145.5 -48.5t-147.5 -38.5q4 -66 15.5 -144.5t41 -146t83.5 -112.5q51 -43 134 -43h7q100 0 170 51t115 130t69.5 171t36.5 172v-29q0 -59 -6 -115 q-8 -72 -37 -136q-27 -74 -80 -139.5t-122.5 -105.5t-148.5 -44h-11q-73 0 -144 47q-51 35 -82.5 86t-49 109.5t-26 121t-10.5 119.5l-53 -8q-30 -2 -66 -5q-7 -1 -14 -1q-27 0 -51 10q-14 6 -17 20.5z" />
<glyph unicode="F" horiz-adv-x="1282" d="M31 1305q-10 16 21.5 35.5t74.5 37t83 29.5t48 16q154 47 314 69q147 20 295 19h28q80 0 160 -5t159 -19q18 -4 51 -9t65 -15.5t55.5 -27t23.5 -42.5q2 -33 -17.5 -53.5t-48 -34t-61.5 -20.5t-57 -11q20 4 49 13t53.5 23.5t39.5 35t9 45.5q-2 10 -23.5 19t-35.5 13 q-23 6 -46.5 12.5t-45.5 10.5q-41 6 -83 9t-85 7q-72 4 -144 4h-49q-96 -2 -194 -10q-68 -6 -141.5 -16t-147.5 -26.5t-144.5 -40t-132.5 -60.5q41 -10 78 -23.5t72 -29.5q150 -66 276.5 -168.5t225.5 -229.5q20 8 38.5 18.5t41.5 20.5q-23 84 -43.5 167t-36.5 169 q-4 18 -10.5 40.5t-10.5 46.5t-4 46.5t6 40.5q10 23 26.5 18.5t20.5 -26.5q4 -20 0 -41t-2 -41q8 -104 35 -204.5t51 -198.5q59 27 120 50t126 29q18 2 39.5 2t45.5 -2q48 -4 75 -36q10 -12 9 -29t-21 -12q-20 2 -36 14t-32 18q-28 9 -58 9q-10 0 -20 -1q-41 -4 -83 -17 t-82 -31.5t-72 -32.5q23 -82 42 -164t37 -166q2 -8 10.5 -40t14.5 -66.5t3.5 -61.5t-21.5 -25q-14 -2 -20.5 11.5t-8.5 32t-1 37t-1 26.5q-6 57 -25 110q-25 70 -60.5 131.5t-76.5 120.5q-53 -27 -106.5 -51t-106.5 -47q-35 -15 -75 -33q-33 -15 -62 -15q-6 0 -12 1 q-10 0 -23.5 6t-7.5 23q8 14 23.5 17t29.5 5q86 12 163 50t150 75q-147 188 -358 313q-78 45 -154.5 70t-162.5 37q-23 0 -31 9t-8 20zM776 829q82 -106 131 -227q-10 53 -23.5 107.5t-29.5 109.5q-2 10 -4 21.5t-6 21.5z" />
<glyph unicode="G" horiz-adv-x="1013" d="M30 836q11 77 36.5 154t62.5 146.5t76 125.5q104 141 246 251q8 6 19 17.5t23.5 21t25.5 12.5t24 -8q10 -10 4 -21t-18.5 -21.5t-27 -18.5t-20.5 -12q-82 -53 -155.5 -129t-130 -165t-91 -188.5t-41.5 -197.5q-1 -12 -1 -23q0 -48 14 -96q16 -59 48 -107.5t81 -82 t110 -43.5q42 -8 84 -8l84 8q84 16 158 55q45 20 93 51t90 68t74 82t44 94q7 25 7 48q0 27 -10 51q-19 44 -57 75t-87.5 50t-94.5 28q-56 9 -116 9q-29 0 -60 -2q-92 -7 -166 -48q-47 -27 -82.5 -70t-37.5 -100q0 -10 6 -19q12 -16 31.5 -18t41 2t41 13t31.5 20 q-14 -16 -43 -34t-58.5 -24t-54 4.5t-30.5 51.5q-8 31 3 62.5t32.5 59t49 51t52.5 36.5q45 25 106.5 40t127.5 17h20l114 -10q66 -11 122.5 -37.5t97.5 -69.5t57 -102q2 -18 2 -35q0 -57 -25 -108q-32 -66 -87.5 -121.5t-123 -96.5t-126.5 -65q-49 -20 -101.5 -34.5 t-107.5 -18.5h-29q-39 0 -78 6q-53 10 -102 39q-76 41 -118 102t-55 133q-8 40 -8 83q0 33 4 67z" />
<glyph unicode="H" horiz-adv-x="600" d="M31 748q-6 18 26 28q-6 147 -8 294v59q0 118 6 235l8 131l4.5 45t18.5 41q23 12 33 -14q8 -23 -2.5 -52.5t-14.5 -52.5q-8 -59 -11 -116.5t-3 -116.5q-1 -56 -1 -112.5t1 -112.5q2 -112 8 -226q16 4 33.5 2t34.5 2q72 6 139.5 6t138.5 -4l-39 588q-4 66 -10 132.5 t-14 131.5q-4 25 -16.5 56.5t-4.5 54.5q4 10 14.5 13t20.5 -3q18 -16 18.5 -41.5t2.5 -46.5l14 -133q16 -186 26.5 -373.5t26.5 -378.5q8 0 28.5 1t40 0t35 -8t13.5 -23t-17.5 -19.5t-34 -1.5t-36.5 7t-27 5q6 -76 12.5 -151.5t20.5 -147.5q2 -10 8 -27.5t11.5 -34.5 t5.5 -31.5t-13 -18.5q-14 -12 -24 5t-18.5 45t-14.5 55.5t-10 37.5q-23 49 -61 95t-86 81t-103 55.5t-111 20.5q6 -104 14 -211.5t36 -208.5q6 -18 16 -42.5t-2 -43.5q-8 -14 -16.5 -12t-15.5 11t-12 21.5t-7 18.5q-8 41 -13.5 83t-11.5 83q-8 68 -14 142.5t-13 156.5 q-10 0 -20 4t-10 17zM168 743q8 0 12 -4q72 -27 131.5 -72t106.5 -106q14 -20 28.5 -39.5t24.5 -42.5l-10 76l-17 193q-54 3 -109 3h-28q-69 -1 -139 -8z" />
<glyph unicode="I" horiz-adv-x="774" d="M31 1427q-4 10 6 19.5t29 11.5q29 4 59.5 2t58.5 -2q111 0 221.5 -13t221.5 -30q39 -6 76.5 -11t76.5 -9q-38 -9 -76 -9h-7q-34 0 -72 5q-82 2 -164 8t-162 10q-29 2 -53.5 4t-52.5 2q-10 0 -36 -4t-53.5 -6t-49 2t-23.5 20zM150 412.5q6 17.5 26 15.5q27 0 51.5 -8 t46.5 -12q14 -1 28 -1q34 0 70 4q50 5 99 11q-8 23 -11 47.5t-7 46.5q-15 105 -15 211v19q2 116 2 231q0 57 -1 112.5t-7 112.5q-4 27 -10 53.5t-16 51.5q-6 16 -17.5 33.5t-11.5 35.5q-4 12 5 19.5t19 3.5q8 0 13 -8q33 -29 40 -80t13 -90q14 -92 14 -186v-24 q-2 -106 -2 -212v-107.5t4 -109.5q4 -35 8.5 -76t20.5 -76q84 16 171 40t161 65q14 10 31.5 21t37.5 1q16 -6 11.5 -19.5t-15.5 -21.5q-25 -23 -61.5 -31t-65.5 -18q-61 -23 -124.5 -40t-129.5 -32q2 -6 6.5 -15t5.5 -18.5t-2 -16.5t-16 -9q-18 -2 -28.5 16.5t-14.5 34.5 q-41 -8 -85 -13t-87 -5q-31 0 -73 -1h-4q-38 0 -66 15q-20 12 -14 29.5z" />
<glyph unicode="J" horiz-adv-x="937" d="M28 964q3 56 54 99t116.5 69.5t136.5 42t141.5 21.5t133.5 8h80q-18 66 -35.5 130.5t-40.5 127.5q-10 -12 -21 -22t-24 -23q-37 -37 -86 -61.5t-102 -34.5q-6 -2 -27.5 -8t-43 -7t-38 4t-14.5 25q0 12 17.5 17.5t39 6.5t42 0t28.5 1q92 18 160 86q6 6 14 22.5t17.5 32 t20.5 26.5t26 7q14 4 22 -7t12.5 -28.5t6.5 -36t6 -28.5l65 -232q82 -4 160 -13t156 -32q-78 10 -154 17q-58 4 -117 4h-37l17 -64q25 -86 49.5 -172t42.5 -174q16 -88 28 -181q3 -26 3 -52q0 -66 -21 -129q-16 -51 -46 -81t-70 -43q-29 -9 -61 -9q-11 0 -23 1q-46 5 -91 23 q-121 51 -220 145.5t-177 198.5q-31 39 -67.5 94.5t-58.5 113.5q-20 51 -20 101v14zM70 977q-5 -14 -5 -31q0 -22 10 -48q17 -44 34 -73q20 -43 46.5 -84t57.5 -82q55 -72 121.5 -138t144.5 -118q27 -18 59.5 -37.5t67.5 -31.5t70 -14q5 -1 10 -1q30 0 57 13q53 23 69.5 75 t18.5 103v24q0 72 -10 145q-12 85 -31.5 169t-44 167t-49.5 163q-90 -4 -178 -12.5t-176 -30.5q-31 -8 -74 -19.5t-83 -30t-71.5 -45t-43.5 -63.5z" />
<glyph unicode="K" horiz-adv-x="1282" d="M31 981q0 16 23.5 20.5t53 4.5t58.5 -3.5t41 -3.5q78 0 155 23q4 59 8.5 121.5t10.5 124.5q10 78 19.5 156.5t25.5 156.5q4 16 6 33.5t10 34.5q4 10 16.5 18t22.5 -4q10 -10 7 -26.5t-7 -28.5q-41 -137 -53 -283.5t-22 -292.5q94 29 180 73t170 91q10 6 33.5 22.5t50 31 t50 20.5t32.5 -8q8 -10 2 -22.5t-18.5 -26t-26 -24.5t-19.5 -20q-45 -53 -77.5 -110.5t-61.5 -116.5q147 -29 293.5 -62.5t294.5 -70.5q57 -16 113.5 -33.5t115.5 -36.5q-61 10 -120 19.5t-120 23.5q-150 27 -297 58.5t-299 56.5q-59 -133 -99 -270.5t-68 -278.5 q-2 -12 -8.5 -49t-14.5 -84t-19.5 -98t-23.5 -92t-27.5 -64.5t-31.5 -15.5q-14 6 -21.5 23.5t-10.5 39t-4 42t-3 32.5q-6 72 -10.5 141.5t-6.5 141.5q-3 116 -3 232v57q1 144 7 288l-90 8q-6 0 -45 -1h-26q-27 0 -56 1q-43 2 -77.5 9.5t-32.5 21.5zM395 446q2 -111 4 -224 t25 -222q35 92 57.5 191.5t48.5 197.5q29 100 55.5 198.5t61.5 196.5q10 29 20.5 58.5t22.5 58.5q-72 12 -143.5 20.5t-143.5 18.5q-6 -123 -8 -247q-1 -62 -1 -123.5t1 -123.5zM403 983q78 -6 154 -16.5t152 -24.5q53 137 131 254q-98 -47 -192.5 -101.5t-198.5 -88.5 l-43 -11q0 -4 -1.5 -7t-1.5 -5z" />
<glyph unicode="L" horiz-adv-x="866" d="M31 350q-2 14 9 21.5t26.5 9.5t31 2h23.5q41 4 82 9t82 11l129 17q-6 156 -14.5 310.5t-18.5 309.5q-4 57 -9 120t-5 124.5t8 121.5t31 114q6 12 17 18t20.5 6t14.5 -8t1 -25q-4 -16 -12.5 -30.5t-14.5 -30.5q-14 -31 -18 -66.5t-4 -70.5q-1 -37 -1 -74q0 -73 5 -149 q8 -112 18 -226q6 -111 11.5 -220t9.5 -220q254 34 512 62q201 22 402 22q56 0 112 -2q14 0 53 -1t81 -6t75.5 -17.5t40.5 -35.5q4 -18 -7.5 -21t-29 1t-34 12t-22.5 8q-37 12 -76.5 16.5t-76.5 6.5q-55 2 -111 2q-204 1 -406 -23q-257 -30 -513 -61q6 -72 6 -137 q0 -10 5 -49t6 -81v-17q0 -32 -3 -60q-4 -35 -18 -35q-4 0 -7.5 1t-7.5 3q-16 12 -15 37t5 41q-6 23 -18 41q-18 35 -47 62.5t-64 46.5q-63 39 -143 61q-10 2 -31 4t-41.5 6t-35.5 13.5t-13 25.5zM150 344l18 -8q76 -29 138.5 -79t105.5 -118l12 -20v119l-6 143 q-70 -10 -136.5 -18.5t-131.5 -18.5z" />
<glyph unicode="M" horiz-adv-x="1593" d="M30 1401.5q-5 19.5 9 25.5q10 10 21.5 5t21.5 -18t18.5 -27.5t12.5 -22.5l100 -145q23 -35 45.5 -71t42.5 -73q23 -35 39 -73.5t41 -73.5q0 6 1 26.5t6 40t13.5 30.5t24.5 -3q8 -8 9 -28.5t-1 -44t-6 -47t-4 -36.5q41 -57 86 -118.5t96 -118t108.5 -105.5t123.5 -82 q47 -23 99 -31q15 -2 31 -3q36 0 72 14q51 23 73 68t30 98q5 43 5 88q0 32 -3 66q-6 78 -23.5 157.5t-40 156.5t-45.5 148q-23 76 -48 149.5t-54 147.5q-4 8 -17.5 39t-25.5 63.5t-17.5 61.5t9.5 35q12 8 36.5 -16.5t51.5 -58.5t47 -66.5t24 -38.5v-2q156 -217 282 -456 t218 -489q18 -45 37.5 -94t32.5 -96q2 -8 1 -18.5t-6 -18.5t-13.5 -10t-18.5 8q-12 12 -14 33.5t-7 38.5q-16 90 -54 178t-77 168q-98 219 -214.5 425t-260.5 396l84 -240q45 -135 83 -271t56 -277q7 -47 11 -107q2 -21 1 -42q1 -38 -5 -78q-8 -60 -35 -109t-82 -70 q-53 -20 -103 -20q-44 0 -86 15q-92 32 -171.5 98.5t-145.5 150.5t-115 149q2 -10 14.5 -47t27 -85t26.5 -100t15 -95q1 -12 1 -22q0 -28 -6 -49q-8 -28 -35 -26h-4q-20 8 -33.5 33t-22.5 55.5t-14.5 60.5t-7.5 48q-10 49 -14 99.5t-8 97.5q0 29 -1 57.5t1 54.5 q-41 57 -79 113.5t-73 114.5l-131 200q-6 8 -20.5 27.5t-27.5 41t-18 41zM424 803q0 -131 25 -260q6 -33 12 -70t22 -67q13 42 13 89v10q-2 52 -12.5 104.5t-27 101.5t-32.5 92z" />
<glyph unicode="N" horiz-adv-x="970" d="M30 1431.5q-5 28.5 11 32.5q14 6 24.5 -4t17.5 -27.5t11 -36t8 -26.5q25 -61 52.5 -123.5t56.5 -122.5l43 -88q2 12 4 35t6 43.5t12.5 34.5t24.5 8q12 -4 12 -30.5t-4 -59.5t-10 -62.5t-6 -39.5q47 -88 98 -174t109 -170q53 -72 112.5 -145t132.5 -120q14 -10 36 -21 t38 -1q16 6 24.5 27.5t12.5 47t5 51t1 40.5q1 32 1 64q0 64 -5 126q-8 94 -18 191q-10 98 -21.5 193t-27.5 194q-10 86 -20.5 174t-33.5 174q0 6 -4 21.5t-5 32t3 27.5t21 11q14 -2 20 -13.5t8 -25.5t2 -29.5v-23.5q6 -72 17.5 -142.5t21.5 -142.5q20 -156 41 -312.5 t33 -313.5q0 -18 4 -57.5t5 -87.5v-19q0 -39 -3 -79q-4 -50 -15.5 -90t-34.5 -62q-17 -17 -42 -17q-9 0 -18 2q-45 10 -85 37.5t-75 64.5t-67 77t-58 75q-59 82 -113.5 169t-105.5 177v-14q-2 -49 -3 -101v-7q0 -49 15 -93l59 -188q4 -12 9.5 -30t6.5 -36t-6.5 -32.5 t-25.5 -20.5t-39 18q-18 27 -29.5 62.5t-16.5 73.5t-7 77t-4 72q-4 39 -5 75.5t-1 73.5l-50 142q-27 76 -52 148.5t-50 146.5q-4 8 -17.5 39.5t-24.5 66.5t-16 63.5zM125 1221q27 -92 55.5 -184.5t59.5 -186.5q0 23 4 31q0 45 6 86q-35 66 -65.5 127t-59.5 127zM287 682 q2 -31 4 -66.5t6 -71.5t13 -70t28 -60q3 18 3 39q1 31 -7 67q-12 60 -27 107q-4 14 -9 27.5t-11 27.5z" />
<glyph unicode="O" horiz-adv-x="1083" d="M30 744q6 96 40 187t93.5 170t131.5 132q98 73 219 103q82 20 165 21q39 0 79 -5q-37 14 -99.5 32.5t-132.5 30.5q-71 11 -143 13q-6 0 -11 1q-65 -1 -118 -17q-57 -18 -92 -59q-33 -40 -33 -108v-8q2 -10 7 -24.5t8 -30t2 -28.5t-13 -19q-16 -8 -24.5 3t-13.5 29.5 t-7 37t-2 24.5q-1 10 -1 20q-1 45 15 80q18 43 54 72t82.5 45t97.5 20q10 4 20.5 4h18.5h18q100 0 197 -20q106 -22 205 -66q43 -18 87 -43.5t82.5 -58.5t65.5 -74t37 -90q4 -24 4 -48t-4 -49q-8 -50 -26.5 -99.5t-45 -94.5t-53.5 -82q-119 -158 -291 -251q-67 -36 -151 -62 q-80 -25 -161 -25h-6q-83 1 -155 35.5t-115 120.5q-32 75 -32 157q0 12 1 24zM73 720q-1 -10 0 -19q0 -66 29 -123q43 -82 115 -109q55 -21 115 -20q19 -1 39 1q82 8 162.5 42t140.5 71q84 53 154.5 123t119.5 156q20 37 39 80t28 87q7 33 7 65q0 11 -1 22q-3 43 -28 82 q-41 61 -104.5 102t-128.5 68q-135 -10 -258 -46t-228 -133q-131 -129 -178 -305q-18 -66 -23 -144z" />
<glyph unicode="P" horiz-adv-x="1902" d="M37 1036q10 20 29.5 39t43 33t48 26.5t45.5 22.5q51 29 103 51.5t106 42.5q229 88 468.5 148.5t483.5 81.5q70 6 165 7h10q90 0 176 -16q91 -18 163.5 -63t97.5 -133q11 -30 11 -60q0 -15 -3 -31q-8 -46 -31.5 -88t-55 -80t-62.5 -67q-68 -72 -150.5 -126t-168.5 -101 q-51 -27 -101 -47q33 -72 80 -129q6 -8 19.5 -21.5t23.5 -29t14 -30.5t-10 -24q-8 -10 -20.5 -6t-24.5 15.5t-23.5 26t-19.5 20.5q-86 74 -184 123q-37 -10 -80 -19.5t-86 -13.5q-19 -2 -38 -2q-24 0 -47 3q-42 5 -77 23q-8 4 -16 13q-10 14 -7 27.5t21 13.5q23 -2 41 -13.5 t37 -17.5q27 -3 53 -3q22 0 44 2q48 5 95 17q-104 49 -211.5 84t-218 62.5t-223.5 49t-225 46.5q-20 4 -76.5 12t-113 25.5t-92.5 43.5q-22 16 -22 35q0 13 9 27zM66 1008q16 -18 50 -26.5t56 -12.5q27 -8 53.5 -14.5t53.5 -12.5q68 -16 131 -28.5t129 -28.5 q123 -29 237.5 -65t229.5 -77q57 -23 110 -44t107 -44q76 16 137 43q-37 76 -59.5 156t-26.5 166q0 12 -2 34.5t-1 45t6 43t17 31.5q16 14 22.5 4.5t7.5 -25.5t-2 -34.5t-3 -24.5q-10 -42 -10 -86q0 -54 15 -110q28 -102 73 -185q84 35 161.5 82t149.5 100q35 27 72 58.5 t68.5 68.5t55 78t33.5 86q4 20 4 37q0 27 -9 50q-15 38 -46 66.5t-72.5 48t-82.5 29.5q-109 28 -225 28q-38 0 -76 -3q-156 -12 -302 -39q-156 -27 -308 -67t-304 -93q-74 -27 -148.5 -56.5t-146.5 -64.5q-18 -8 -41.5 -19t-46 -25.5t-41 -32t-26.5 -37.5zM1280 627 q47 -23 91 -47.5t89 -53.5l-22 37q-35 49 -58 96q-27 -8 -51 -17t-49 -15z" />
<glyph unicode="Q" horiz-adv-x="1232" d="M38 948q25 115 90 218.5t158 185.5t193 131q2 4 8 4q10 45 34 70.5t57 33.5q17 4 35 4q17 0 34 -3q37 -7 72 -27q14 -6 28.5 -15.5t26.5 -19.5q16 -4 34.5 -9t35.5 -12l55 -34q14 -8 29.5 -16.5t25.5 -24.5q10 -14 5 -33t-27 -8q59 -66 112.5 -137.5t94.5 -153.5 q27 -55 45 -115.5t21 -120.5q1 -11 1 -22q0 -49 -12 -98q-14 -58 -51 -113q-55 -80 -134 -131t-171 -78q23 -16 46 -31.5t50 -27.5q16 -6 37.5 -17.5t21.5 -34.5q-2 -23 -22.5 -19.5t-45 17t-46 29.5t-27.5 20l-70 52q-91 -18 -190 -18h-26q-113 3 -214.5 38t-181.5 103.5 t-117 179.5q-24 72 -24 143q0 45 9 90zM70 896q-3 -22 -3 -45q0 -94 50 -185q43 -80 114.5 -130.5t157.5 -76t178 -28.5q16 -1 32 -1q75 0 144 12q-4 2 -21 19.5t-40 42t-44.5 51.5t-33.5 49.5t-9 36.5t32 14q39 -4 70.5 -24.5t70.5 -20.5q-18 -6 -35.5 -8t-36.5 2 q-14 4 -34.5 15.5t-36.5 7.5q8 -25 31.5 -47.5t39.5 -38.5q25 -23 50.5 -45.5t52.5 -42.5q68 16 132 49t116.5 80t85 107t36.5 134v20q0 88 -31 173q-36 96 -95.5 184t-134 163t-148.5 130q-33 7 -67 7q-23 0 -47 -3q-58 -8 -116 -31q-2 -12 -15 -23t-26 5 q-98 -49 -191 -136t-153.5 -192.5t-74.5 -223.5zM545 1511q68 25 143 25q-37 18 -78 22q-3 1 -7 1q-35 0 -56 -39q-2 -2 -2 -9z" />
<glyph unicode="R" horiz-adv-x="1335" d="M31 1409q2 18 16 31.5t32.5 23t39 15.5t37.5 10q81 18 163 18q25 0 50 -2q100 0 215.5 -15t225.5 -51t203 -98.5t148 -158.5q43 -74 51 -153q2 -23 3 -46q-1 -55 -15 -109q-20 -76 -61 -145.5t-97 -126.5q-31 -31 -65.5 -61.5t-69.5 -57.5l8 -49q141 31 286 40 q100 6 202 6q45 0 90 -1q25 -1 50 -1h25.5h25.5q25 0 48 -1q12 -2 29 -12t6 -27q-10 -16 -34.5 -13t-40.5 5q-54 10 -108 12q-27 1 -53.5 1t-51.5 -1q-119 0 -236 -10t-231 -37q4 -33 10 -66.5t18 -64.5q2 -6 9.5 -18.5t11.5 -24.5t2 -23.5t-15 -13.5q-14 -8 -25 4.5 t-15 22.5q-8 23 -11.5 44t-7.5 42q-20 41 -45 84q-31 -10 -61.5 -19.5t-59.5 -21.5q-8 -4 -21.5 -11t-27.5 -13.5t-26.5 -6.5t-18.5 13q-10 12 11.5 33.5t52 43t60.5 38t36 22.5q-70 94 -148 180t-159.5 170t-164.5 167t-159 173q-18 23 -45 53.5t-51 65.5q-23 34 -36 70 q-8 22 -8 44q0 14 3 27zM69.5 1367q10.5 -32 32 -67.5t47 -67.5t35.5 -46q49 -59 99.5 -118t103.5 -118q78 -90 157 -177t156 -179l107 -131l59 43q-20 129 -39.5 258t-62.5 252q-20 57 -43 94q-8 16 -22.5 36.5t-4.5 39.5q12 20 26.5 6t29 -41t24.5 -53.5t10 -30.5 q47 -129 72 -264t45 -271q51 41 98.5 88.5t84 101.5t60 115.5t27.5 129.5q1 9 1 19q0 62 -24 122q-26 68 -79 121q-43 47 -96 82t-112.5 59.5t-122 40.5t-124.5 29q-127 24 -254 24h-28q-59 0 -130 -6t-120 -41q-23 -18 -12.5 -50zM793 403q4 0 9 1.5t9 1.5l20 8l-8 10 q-6 -6 -13 -11t-17 -10zM831 430l13 -14l33 8q0 10 -1.5 17.5t-1.5 17.5q-10 -10 -21 -16.5t-22 -12.5zM868 383l19 -25q0 6 -1 11.5t-1 11.5v6q-4 0 -8.5 -2t-8.5 -2z" />
<glyph unicode="S" horiz-adv-x="1153" d="M31 655q0 72 22.5 150t64.5 145.5t102.5 116.5t137.5 66q-104 -41 -169.5 -133.5t-96.5 -196.5q-16 -53 -22 -109q-2 -21 -3 -41q0 -35 7 -71q16 -111 86.5 -183.5t168 -110.5t211.5 -40q7 0 13 -1q107 1 205 31q104 32 185 95t116 159q17 48 17 93q0 25 -6 49 q-16 66 -57.5 123t-99 103t-114.5 83q-104 66 -213 121t-221 106l-224 99q-10 2 -30.5 8t-40 15t-32.5 20.5t-7 25.5q-8 16 13.5 29.5t51 23t58 15.5t39.5 8q80 20 161.5 31.5t161.5 11.5q35 0 76 -2t81 -9t76.5 -21.5t63.5 -39.5q12 -10 16 -24q4 -18 -1 -38t-15 -37 t-24.5 -31.5t-28.5 -20.5q-14 -10 -31.5 -3t-7.5 27q10 16 26.5 26.5t28.5 23.5q10 10 14.5 22t0.5 29h-3v2q-29 23 -66.5 35t-79.5 18t-83 6t-76 -2q-139 -2 -278 -41q-29 -8 -54.5 -18t-54.5 -21q88 -43 176 -79.5t177 -77.5q98 -45 191 -92.5t183 -106.5 q66 -41 126.5 -87.5t107.5 -109.5q51 -71 62 -145q4 -25 4 -49q-1 -49 -15 -95q-22 -70 -72.5 -131t-120.5 -102q-147 -88 -315 -94q-15 -1 -30 -1q-152 0 -294 56q-119 57 -182 156.5t-63 234.5z" />
<glyph unicode="T" horiz-adv-x="1269" d="M31 1180q-12 18 30.5 42.5t101 48t112 40t63.5 20.5q139 39 280.5 57.5t284.5 34.5q-4 12 -11 31t-12.5 38t-5.5 34.5t13 21.5q16 6 27.5 -7t17.5 -34.5t9 -44t7 -35.5q225 23 444.5 53t440.5 81q8 2 18.5 2t17.5 -4.5t10 -11.5t-5 -17q-14 -18 -39 -19.5t-43 -5.5 l-182 -35q-164 -29 -328 -46t-328 -31q18 -104 26 -210q9 -105 12 -211q2 -79 2 -159v-53v-42q0 -84 3 -169q12 -23 28.5 -56.5t30 -69.5t17.5 -72t-8 -62q-16 -18 -31 -17q-8 0 -16 5.5t-12 9.5q-25 29 -31 69.5t-10 73.5q-4 43 -6.5 88t-2.5 90q-78 139 -193.5 252 t-258.5 184q-104 53 -213 77t-225 32q-18 0 -28.5 8t-6.5 19zM102 1194q76 -16 149 -35.5t144 -48.5q174 -72 314.5 -192.5t238.5 -280.5l8 -12q-4 139 -6 278t-12 277q-4 53 -10 103t-15 103q-160 -16 -316.5 -37.5t-309.5 -72.5q-47 -16 -95.5 -34.5t-89.5 -47.5zM997 518 q2 -23 1 -50.5t1 -57t8.5 -57t20.5 -48.5l8 -4h4v2q12 18 5 53t-11 58q-6 29 -16 54.5t-21 49.5z" />
<glyph unicode="U" horiz-adv-x="958" d="M31 520q-2 19 -2 37.5t2 38.5q4 39 12 76t14 67q16 80 37 164t36 170q16 86 22 171q2 32 2 63q0 53 -7 104q-4 23 -13 49.5t7 42.5q14 14 23.5 6t14.5 -26.5t7 -38t2 -25.5q1 -23 1 -45q0 -46 -3 -92q-4 -68 -12 -139q-12 -80 -28.5 -160t-32.5 -160 q-14 -66 -27.5 -135.5t-13.5 -140.5q0 -59 30.5 -88t75.5 -37q26 -5 54 -5q22 0 44 3q52 6 95 16q127 33 227 105.5t147 195.5q27 70 29 136.5t6 138.5q0 72 1 143.5t3 142.5q0 8 -2 43q-1 23 -1 48v24q1 37 7.5 66.5t22.5 29.5q14 8 23.5 -4t14 -31.5t7 -39t4.5 -27.5 q6 -66 6 -130.5t-4 -129.5q-4 -70 -13.5 -139.5t-25.5 -135.5q-10 -47 -10 -98q0 -14 1 -26q3 -64 7 -123q4 -53 12.5 -107.5t26.5 -103.5q8 -20 17.5 -32.5t19.5 -22t22.5 -19t26.5 -23.5q12 -16 6 -32.5t-28 -8.5q-39 14 -56 46q-18 29 -32.5 57.5t-24.5 62.5 q-20 66 -24.5 135.5t-6.5 141.5q-31 -80 -85 -140.5t-124.5 -102.5t-150.5 -65.5t-160 -29.5q-27 -2 -57.5 0t-58 9t-52 22.5t-39.5 40.5q-18 29 -22 67z" />
<glyph unicode="V" horiz-adv-x="870" d="M31 1511.5q-2 10.5 1 18.5t15 8q10 2 17.5 -4t13.5 -14.5t10 -18.5t8 -18q59 -162 111 -336q35 -119 66.5 -236.5t74.5 -234.5q8 -25 26.5 -73t43.5 -91q26 -42 60 -70q23 -18 49 -19q13 0 28 5q27 8 44 30.5t29.5 51.5t20.5 57.5t15 50.5q14 59 24 117t21 115 q18 125 34.5 248t44.5 245q6 33 16.5 79t28 90t44 80t65.5 48l23 9q-31 -23 -52.5 -58t-37 -75.5t-26.5 -82.5t-20 -77q-29 -121 -43 -244t-30 -248q-10 -66 -21.5 -129t-25.5 -127q-14 -51 -33 -105t-60 -91q-34 -35 -68 -37h-7q-31 1 -59 15q-32 16 -58.5 44.5t-44.5 59.5 q-63 102 -97 221t-69 235q-29 113 -59.5 224.5t-71.5 220.5q-14 43 -37 80q-4 6 -8 16t-6 20.5z" />
<glyph unicode="W" horiz-adv-x="989" d="M30 698q3 56 9 109q23 211 86 412q29 94 63 176q6 10 11.5 26.5t11.5 31.5t16.5 25.5t24.5 10.5q18 0 18 -13.5t-7 -29.5t-18.5 -31.5t-13.5 -21.5q-16 -37 -31.5 -75t-27.5 -75q-78 -225 -98 -461q-6 -58 -8 -116q-1 -13 -1 -25q0 -45 7 -88q2 -16 8 -42t24 -32 q10 -2 21 0q27 6 48.5 34t37.5 61.5t28.5 68.5t20.5 57q23 66 42.5 131.5t35.5 133.5q16 66 30.5 130t26.5 130q2 10 4 35.5t7.5 52t13.5 46t22 17.5q14 0 20 -24.5t8.5 -55t2.5 -60.5v-40q4 -92 15.5 -182t25.5 -180q16 -92 40 -182.5t54 -176.5q8 -20 25.5 -63t40 -85 t52.5 -72q25 -25 51 -25q5 0 11 1h3q43 14 60 60.5t23 85.5q14 79 14 159q0 9 1 18q0 71 -4 142q-6 154 -20.5 306.5t-24.5 306.5q-6 63 -10 125q-2 39 -2 79q0 23 1 46q0 10 -2 31.5t-1 43t7.5 37t22.5 12.5q14 -2 18.5 -16t3.5 -31.5t-4.5 -35t-3.5 -27.5q-1 -30 -1 -60 q0 -100 8 -200q10 -150 25.5 -297.5t21.5 -300.5q2 -74 3 -150q0 -7 1 -14q0 -69 -10 -139q-6 -53 -23.5 -113.5t-65.5 -91.5q-27 -16 -51 -16q-16 -1 -32 7q-38 18 -69.5 58.5t-54 88.5t-32.5 79q-57 139 -89 285.5t-48 294.5h-2q-12 94 -19 194l-29 -121q-4 -23 -18 -85 t-36.5 -141t-51.5 -163t-63 -146q-35 -62 -75 -90q-20 -14 -40 -14t-41 15q-29 20 -37 59t-10 74q-2 31 -2 63q0 25 1 49z" />
<glyph unicode="X" horiz-adv-x="946" d="M29 337.5q4 14.5 14 32t22.5 33t16.5 25.5q33 53 57.5 108.5t42.5 112.5q92 248 105 514q-10 35 -19.5 72t-15.5 74q-2 10 -12.5 56t-18.5 96t-8 91t18 41q18 8 30.5 -20.5t22 -68.5t13.5 -75.5t4 -42.5q2 -29 4 -59.5t-2 -58.5l35 -111q16 -59 37.5 -114.5t50.5 -112.5 q53 92 99 181t81 171q16 41 27.5 82t23.5 84q4 12 15.5 27.5t27.5 -0.5q14 -14 7 -35t-13 -37q-10 -27 -21 -54.5t-24 -56.5q-86 -205 -205 -399q47 -90 105.5 -171t130.5 -151q53 -47 116.5 -87t137.5 -40q55 2 96 36t73 80t57 98.5t48 93.5q14 16 23 34 q-23 -147 -111 -264q-62 -80 -128 -104q-38 -13 -76 -13q-30 -1 -58 7q-68 18 -134.5 66t-123.5 110.5t-104 130t-78 123.5q-51 -80 -102.5 -161t-104.5 -159q-8 -10 -30.5 -47t-50.5 -76t-54.5 -65.5t-38.5 -16.5q-12 6 -8 20.5zM127 471l23 35q55 78 120.5 176t126.5 203 q-61 115 -98 241q-16 -160 -57 -314.5t-101 -303.5z" />
<glyph unicode="Y" horiz-adv-x="765" d="M30 457.5q-1 31.5 9 60.5q20 53 69.5 90t96.5 64q39 18 88 39.5t103.5 37t106.5 18.5h16q43 0 81 -13q-18 3 -36 3t-38 -3q-39 -6 -77.5 -18.5t-74.5 -28t-67 -27.5q-31 -14 -65.5 -31.5t-67.5 -39t-60.5 -48t-39.5 -59.5q-8 -29 -4 -60.5t15 -62.5t25.5 -59.5 t26.5 -53.5q33 -55 72 -105t90 -87q67 -52 138 -52h3q72 1 119 78q37 59 55.5 131t24.5 148q5 57 5 114q0 19 -1 37q-2 76 -4 144q-4 143 -15.5 285.5t-25.5 285.5l-6 68q-18 -72 -51 -146.5t-80 -141.5t-106.5 -121t-131.5 -81q-36 -16 -64 -16q-12 0 -23 3 q-34 11 -53.5 41t-27.5 74q-7 39 -7 81v10q1 47 6 91t12 75q10 39 20 75.5t25 71.5q8 20 19 47t36 35q12 4 19.5 -2t4.5 -18q0 -23 -14 -40.5t-24 -35.5q-18 -35 -29.5 -72t-20.5 -78q-8 -43 -14 -86q-4 -26 -4 -52q0 -18 2 -36q0 -14 1 -36.5t5 -44t14.5 -39t26.5 -23.5h2 q15 -4 30 -4q23 0 46 9q39 15 75 43t65.5 60.5t49.5 59.5q66 84 110 182t58 205q5 33 5 68v11q-1 40 -7 79q-2 8 -6 22t-4 28.5t4 27t19 14.5q16 2 24 -12.5t11 -35t2 -41t-1 -30.5q2 -70 9.5 -139.5t15.5 -141.5q18 -180 33 -361q13 -144 13 -290q0 -38 -1 -76 q0 -61 -4 -144t-22.5 -163t-57.5 -145.5t-110 -91.5q-34 -13 -67 -13t-63 13q-63 24 -116 72t-94 109.5t-66 112.5q-14 25 -27.5 55.5t-20.5 62.5t-8 63.5z" />
<glyph unicode="Z" horiz-adv-x="1335" d="M31 57.5q-4 12.5 6 30.5q35 72 89 132.5t120 105.5q25 16 47 29.5t45 35.5q18 23 36.5 44.5t39.5 41.5l149 166q160 178 320.5 349t326.5 339q-116 -39 -236 -54q-95 -12 -189 -12q-25 0 -50 1q-31 0 -61.5 -1t-63.5 3q-8 2 -17 7t-15.5 11t-5.5 13.5t14 13.5q16 7 34 7 q14 0 32 -5q38 -10 67 -10q23 -3 46 -3q11 0 23 1l68 4q74 4 145.5 15t143.5 30q31 8 62.5 19t58.5 30q8 6 18 15t21.5 17.5t22.5 11.5t22 -5q12 -8 7 -20.5t-17.5 -25t-26 -21.5l-19.5 -13l-131 -127q-199 -205 -387 -412t-379 -418q167 63 349 78q161 13 318 13h42 q147 -2 294.5 -10.5t295.5 -37.5q-23 -2 -45 -3t-45 1h-90.5t-92.5 2q-143 4 -287 6q-23 0 -46 1q-121 0 -244 -11q-135 -10 -270.5 -34.5t-253.5 -90.5q-23 -23 -40.5 -42t-35.5 -42q-6 -8 -35 -43.5t-61.5 -72.5t-63.5 -62.5t-41 -13.5q-10 4 -14 16.5z" />
<glyph unicode="[" horiz-adv-x="333" d="M29 583.5q2 63.5 4 125.5l8 266q4 53 5 107.5t-1 107.5q-4 23 -10 48.5t4 43.5q20 37 48 38t69 -3q12 0 24.5 -1t24.5 -3q18 -4 36.5 -4t34.5 -11q14 -8 19.5 -26.5t-19.5 -20.5q-20 0 -39.5 10.5t-37.5 14.5q-31 4 -59.5 0t-57.5 -2q14 -35 9 -86t-9 -86 q0 -100 -4 -197.5t-8 -195.5q0 -47 -2 -95.5t2 -95.5q2 -20 4 -46t20 -38q25 -20 59.5 -14t59.5 22q6 2 18.5 13.5t25.5 20.5t25.5 12.5t18.5 -11.5q12 -25 -10.5 -43t-56 -29.5t-66.5 -16.5t-43 -5q-35 4 -57.5 23.5t-28.5 52.5q-12 61 -10 124.5z" />
<glyph unicode="\" horiz-adv-x="522" d="M55 1253q-2 12 1 27.5t9.5 25t14.5 8.5t16 -22q10 -14 9 -31.5t4 -35.5q2 -29 7 -56.5t11 -50.5q35 -129 83 -251t107 -238q25 -47 53.5 -98.5t62.5 -100.5t72 -92t85 -74h-4q-7 0 -11 2q-41 20 -77.5 56t-65.5 69q-129 154 -216 340.5t-130 376.5q-10 35 -19.5 73 t-11.5 72z" />
<glyph unicode="]" horiz-adv-x="358" d="M28 419q-1 9 5 15t24 4q29 -2 54.5 -14t54.5 -10q27 0 39 15t18 36.5t6 46.5t2 43q16 139 22.5 277.5t14.5 277.5q4 39 4 76t4 74q-14 -4 -29.5 -5.5t-31.5 -5.5q-25 -6 -55 -6q-23 -2 -44.5 -3t-43.5 9q-25 18 -7.5 32.5t39.5 8.5q10 -4 25.5 -6t28.5 -2q12 0 34.5 7 t46 13.5t44 8.5t26.5 -11q10 -4 15 -16q6 -12 5 -28.5t-4 -35t-8.5 -37t-7.5 -30.5l-8 -131l-16 -279q-4 -70 -8.5 -137t-16.5 -137q-4 -23 -10 -42t-27 -36q-16 -12 -36.5 -16t-44 -3t-45.5 5t-40 10q-12 4 -20 13.5t-9 18.5z" />
<glyph unicode="^" horiz-adv-x="499" d="M117 1051q-10 27 5 53t25 49q16 35 36 68.5t40 68.5q4 6 12.5 24.5t19.5 35t23.5 25.5t24.5 1q14 -4 16.5 -17t0 -30.5t-6.5 -34t-4 -26.5q4 -25 11.5 -54.5t25.5 -50.5q10 -16 25.5 -34.5t15.5 -36.5q0 -14 -6 -18.5t-15.5 -2.5t-18.5 8t-13 13q-10 14 -16.5 30.5 t-14.5 32.5q-23 49 -33 111q0 6 -1 10t-1 8q-35 -37 -62.5 -91t-39.5 -108q0 -6 -3 -16t-8 -19.5t-13.5 -13.5t-20.5 2z" />
<glyph unicode="_" horiz-adv-x="555" d="M28 601q3 9 15 12t31 -3q88 -23 177 -38t181 -3q4 0 23.5 1t39 -1t30 -10t-4.5 -24q-10 -10 -25.5 -12.5t-33 -1.5t-34.5 3t-30 2q-61 0 -124.5 5.5t-122.5 15.5q-23 4 -46.5 7t-46.5 9q-18 6 -25 17.5t-4 20.5z" />
<glyph unicode="`" horiz-adv-x="505" d="M27 1495q35 -16 62.5 -35.5t53.5 -42.5q59 -47 116.5 -98t113.5 -100q8 -6 27.5 -18.5t39 -27t30.5 -31t3 -28.5q-10 -16 -28.5 -11t-37 20.5t-34 33t-23.5 23.5q-59 49 -115.5 104t-109.5 111q-18 23 -40 42t-40 42q-4 4 -7 8t-11 8z" />
<glyph unicode="a" horiz-adv-x="593" d="M37 682q-6 39 17.5 57.5t59.5 24.5q27 4 55 4h19q38 -2 58 -8q8 -2 42 -15.5t70.5 -26.5t67.5 -22.5t35 -3.5q18 14 16 42t-14 57.5t-29.5 56t-30.5 37.5q-23 19 -55 29q-28 9 -58 9h-6q-34 -1 -67 -11.5t-57 -24.5q-16 -10 -31.5 -26.5t-34.5 -20.5q-20 -4 -23 4t2 20.5 t14 23.5t15 15q42 29 94 43q44 12 87 12h18q47 -2 86 -21t67 -52t42 -75q13 -37 12 -78v-11l22 18q16 12 38 12.5t12 -28.5q-8 -18 -28 -29.5t-36 -19.5q-74 -43 -154 -64q-47 -10 -97 -14q-14 -1 -28 -1q-35 0 -69 7q-16 2 -37.5 7t-42 14.5t-35 24t-16.5 34.5zM72 688 q0 -23 28.5 -34t65.5 -16q31 -4 60 -4h12q35 1 47 1q35 4 65.5 11t59.5 20q-47 14 -94.5 32.5t-94.5 28.5q-8 2 -33.5 3t-53.5 -2t-47 -12t-15 -28z" />
<glyph unicode="b" horiz-adv-x="563" d="M28 1093q2 173 13 345q2 22 2 46q0 18 -1 36q-1 12 -1 23q0 30 6 56q6 18 21.5 23.5t25.5 -16.5q8 -25 0 -63t-12 -64q-4 -41 -4 -81t-4 -81q-4 -90 -5 -178v-35q0 -71 3 -143q2 -74 5 -156t32 -154q10 29 20 57.5t23 55.5q16 37 40.5 76t55.5 71.5t68.5 56t80.5 27.5h8 q35 0 64 -16q33 -18 45 -53q10 -23 10 -47q0 -15 -4 -30q-10 -40 -34.5 -78t-56.5 -69.5t-56 -50.5q-14 -12 -36 -27.5t-45.5 -27.5t-47 -18.5t-41.5 0.5q-10 0 -15 4q-10 10 -8 20t13 16q23 10 46 11.5t46 11.5q35 16 65.5 41t59.5 53q14 16 32.5 42t30.5 53.5t12 55 t-20 50.5q-26 26 -56 26q-10 0 -20 -2q-41 -12 -79 -43.5t-67.5 -72.5t-43.5 -68q-14 -29 -25.5 -58.5t-17.5 -60.5q-2 -8 -4 -23.5t-5.5 -30.5t-10.5 -25.5t-19 -8.5q-18 -14 -30.5 9.5t-21 59.5t-11.5 69.5t-5 40.5q-21 155 -21 311v34z" />
<glyph unicode="c" horiz-adv-x="591" d="M31 688q-2 9 -2 17q0 25 13 49q17 32 45 60t60.5 49.5t59.5 31.5q57 23 116 23q15 0 31 -2q74 -8 142 -42q-46 8 -98 12l-32 2q-35 0 -67 -7q-37 -6 -75 -21.5t-69.5 -39t-53 -56.5t-27.5 -74q6 -18 27.5 -29.5t47 -18.5t50 -11t41.5 -4q21 -2 42 -2q32 0 63 4 q52 6 99 28q23 10 45.5 24.5t38.5 31.5q6 6 14.5 18t17.5 22.5t19.5 15.5t22.5 -1q14 -8 11 -21.5t-14 -27.5t-24.5 -25.5t-19.5 -17.5q-74 -66 -168 -86q-51 -13 -107 -13h-8q-60 1 -114 17q-16 6 -38 13t-41.5 18.5t-33.5 27t-14 35.5z" />
<glyph unicode="d" horiz-adv-x="630" d="M78 709q-8 29 9 44t44 21t55.5 5t44.5 -3q78 -12 150 -46t131 -81l-14 90q-12 82 -14 165q-1 50 0 100v66q1 83 3 166q1 42 1 83t-1 82q0 37 -7 71.5t-13 69.5q-2 18 5 28.5t16.5 12.5t17.5 -6t10 -27q14 -64 14 -132v-18q-2 -78 -6 -151q0 -92 -2 -182q-1 -45 -1 -90 t1 -90q2 -59 8.5 -126t30.5 -120q41 8 79 19.5t79 23.5q47 16 90 33.5t86 34.5l43 12q-100 -68 -205 -109q-76 -33 -158 -53q2 -10 0 -21.5t-12 -17.5q-14 -10 -29.5 2.5t-25.5 22.5q-63 -12 -129 -16q-11 -1 -22 0q-54 0 -107 14q-25 4 -52.5 13t-52 24.5t-43 36 t-24.5 49.5zM125 715q4 -33 36 -51.5t71.5 -28.5t79.5 -13.5t65 -3.5q47 0 94 7q-23 18 -46.5 32.5t-51.5 26.5q-10 4 -49 19.5t-84 25.5t-80 10t-35 -24z" />
<glyph unicode="e" horiz-adv-x="550" d="M39 598q-6 20 -6 40q0 27 11 52q19 45 55 84t80 71t79 52q14 8 43 25.5t60.5 30t60.5 13.5t43 -24q6 -8 6 -24q-4 -23 -20.5 -40.5t-32.5 -29.5q-4 -4 -43 -25.5t-84 -40t-82 -24.5t-37 20q-16 -14 -37.5 -36.5t-37 -48t-20.5 -52.5t11 -51q12 -18 30.5 -24.5t40 -5.5 t42 6t37.5 12q119 35 211 120t153 189q6 8 11 16t10 17q-18 -61 -50 -114.5t-77 -105.5q-63 -68 -148.5 -120t-179.5 -58q-8 -1 -15 -1q-34 -1 -65 15q-37 18 -49 62zM205 807q29 6 60.5 13t61 19.5t55.5 31t42 47.5q-16 0 -35 -7.5t-35 -13.5q-41 -16 -77.5 -39.5 t-71.5 -50.5z" />
<glyph unicode="f" horiz-adv-x="563" d="M31 696q-4 12 3 21.5t20.5 16.5t27.5 12.5t22 9.5q33 16 58.5 41.5t48.5 52.5q-14 129 -16 255v42q0 105 8 213q2 27 5 76t14 96t32.5 84t60.5 43q8 1 15 1q34 0 53 -32q23 -39 32 -94q8 -50 8 -99v-11q-1 -56 -3 -81q-6 -111 -34 -217t-83 -204q-12 -20 -24.5 -42 t-26.5 -40q2 -25 4 -49.5t6 -51.5q135 10 268 15q70 2 140 2q63 0 127 -2q43 -2 87 -5.5t87 -9.5q-23 0 -47.5 -2t-46.5 -2l-80 -6l-529 -33q18 -123 48 -234.5t77 -223.5q6 -18 3 -29.5t-12 -15t-20.5 2t-17.5 21.5t-10 29.5t-10 29.5q-18 61 -35 124t-31 126q-8 41 -15 82 t-14 84q-12 0 -44.5 -6t-66.5 -10t-60.5 -1t-28.5 21zM137 729l68 6q14 0 18 2l-8 62q-35 -39 -78 -70zM232 1168q1 -136 14 -271q53 84 83.5 179t47.5 196q8 57 9 116v13q0 52 -7 104q-4 33 -14.5 68t-40.5 49h-2q-20 -2 -34 -26.5t-21 -55.5t-11 -60.5t-6 -41.5 q-19 -126 -19 -252q0 -9 1 -18z" />
<glyph unicode="g" horiz-adv-x="450" d="M-127 74q-1 16 -1 32q0 77 24 153q30 91 114 140q-47 -43 -70.5 -98t-29.5 -115q-3 -26 -3 -53q0 -34 5 -69q8 -62 25 -119q51 -184 167 -328l44 -44t54.5 -46.5t60.5 -30.5q15 -5 29 -5q17 0 34 7q51 16 69.5 62.5t24.5 93.5q7 55 7 110q0 37 -3 74q-8 92 -21 182 q-25 193 -57.5 381.5t-36.5 380.5q-16 -23 -47 -50t-66 -42q-32 -14 -63 -14h-8q-35 2 -55 39q-18 29 -12.5 55.5t25 47t47.5 34.5t52 20q31 4 64 8h16q24 0 47 -8q2 4 3 20.5t5.5 32t11.5 22.5t21 -5q16 -16 10 -45t-10 -47q-4 -40 -4 -79q0 -26 2 -53q4 -65 14 -128 q16 -158 43.5 -312.5t45.5 -312.5q4 -33 10 -83t8 -104q1 -18 1 -36q0 -36 -3 -74q-4 -55 -19.5 -101t-47 -78t-83.5 -38q-12 -1 -23 -1q-36 0 -70 14q-44 20 -83 53.5t-70.5 74.5t-54.5 76q-59 90 -97 193.5t-46 212.5zM100 762q-4 -10 9 -27q10 -14 26.5 -15t33.5 4 t33.5 14.5t26.5 17.5q39 33 62 69q-20 6 -52 8.5t-63 -3t-53.5 -20.5t-22.5 -48z" />
<glyph unicode="h" horiz-adv-x="503" d="M57 1907q4 16 18.5 17t24.5 -11q14 -16 21 -44t11.5 -57.5t6.5 -59.5t4 -50q23 -198 24 -398q0 -48 -2 -97q-7 -249 -30 -494q6 14 24.5 65t45 98.5t57.5 71.5q11 9 22 8q19 0 38 -26q18 -29 19 -69t5 -75q2 -35 6 -83t29 -78q4 -4 8 -5.5t8 -3.5q23 0 40.5 21.5 t29.5 50.5t20.5 58.5t12.5 46.5l2 2l2 4q0 -51 -9.5 -101.5t-43.5 -87.5q-23 -23 -50 -28h-8q-41 0 -59 36q-20 40 -28.5 96t-10.5 111.5t-12 79.5q-25 -18 -42.5 -49t-31.5 -65.5t-25.5 -70.5t-19.5 -63q-4 -10 -10.5 -39.5t-15.5 -61.5t-22.5 -54.5t-27.5 -18.5 q-14 2 -17 14.5t-2 28t6 30.5t5 24q10 41 13 83t7 82q8 111 13.5 220.5t7.5 220.5q3 79 3 157q0 39 -1 77q-2 116 -12 233q-4 47 -9.5 94t-21.5 88q-6 16 -15.5 34.5t-7.5 37.5z" />
<glyph unicode="i" horiz-adv-x="204" d="M-219 1069q6 16 21.5 28.5t36 21.5t40 16.5t33.5 11.5q52 17 106 23q20 2 40 2q34 0 67 -7q-35 -2 -79 -8t-87 -18.5t-80 -32t-61 -47.5q20 -14 49 -14.5t60.5 7t60 17.5t49.5 18q51 23 109.5 52.5t99.5 70.5q-37 9 -73 9q-35 0 -69 -8q-70 -17 -135 -42q-12 -4 -33.5 -2 t-13.5 23q6 23 29.5 31t42.5 12q33 6 63.5 13t63.5 11q14 2 43 4.5t57.5 1.5t51 -11t22.5 -33q2 -20 -12.5 -38t-35 -32t-42 -25.5t-33.5 -17.5q-59 -35 -123.5 -60.5t-132.5 -31.5q-14 0 -40 -1t-49.5 3t-37.5 16t-8 37zM66 838q4 25 5 49t21 43q2 8 12 12q10 2 19.5 -5 t5.5 -17q0 -27 -12.5 -50.5t-12.5 -52.5q0 -64 23 -125q6 -16 13 -36.5t-3 -37.5q-4 -10 -13 -12t-20 6q-18 16 -18 45t-4 52q-16 70 -16 129z" />
<glyph unicode="j" horiz-adv-x="325" d="M-136 1144.5q3 8.5 12 10.5t22.5 -2t21.5 -10q-10 25 9.5 39t49 22t58.5 10.5t41 2.5q23 -2 64.5 -11.5t81.5 -27t69 -44.5q23 -21 23 -46q0 -7 -1 -13l-8 -16q-25 -27 -63 -35q-30 -6 -63 -6h-17q-43 2 -85 10t-71 19q-31 10 -74 28.5t-63 46.5q-10 14 -7 22.5z M-66 1133q18 -16 40 -28.5t44 -21.5q57 -16 123 -24q19 -2 37 -2q44 0 82 14q14 8 16 12q0 12 -10 22.5t-24.5 19t-29.5 14.5t-24 10q-41 18 -89 27q-17 4 -34 4q-29 0 -57 -11q-16 -10 -35.5 -26.5t-38.5 -9.5zM-36 264q3 78 26 150q-8 -54 -8 -108q0 -38 4 -76 q10 -93 28 -185q12 -57 26.5 -113.5t37.5 -109.5q6 -18 13 -40t17.5 -42.5t22.5 -38.5t29 -29q10 18 13 43t2 52.5t-4 54t-3 47.5l-16 268q-8 123 -15.5 247t-7.5 249v54t3 101.5t13.5 96.5t30.5 37q14 -4 16.5 -16.5t0 -29t-7.5 -32t-5 -25.5q-6 -78 -6 -156v-38 q0 -57 2 -118t6 -126l25 -408q7 -73 7 -146q0 -29 -1 -58v-63t-16 -58q-20 -27 -42 -18.5t-40.5 31t-32.5 51t-21 40.5q-35 86 -58 177t-34 184q-6 54 -6 109q0 21 1 42z" />
<glyph unicode="k" horiz-adv-x="569" d="M27 1321q0 29 28 22q18 -6 30.5 -31.5t21 -56t12.5 -61.5t6 -45q10 -84 10 -167v-167q-2 -41 -2 -80v-76q2 -25 2 -62.5t17 -55.5h4q-2 0 -4 -2h4q18 4 34.5 24.5t31 47t24.5 52t16 42.5q10 16 17.5 33.5t11.5 31.5q2 8 -1 20.5t-3 24.5t3 22.5t17 16.5q29 18 43 -16 q4 -16 -1 -29.5t-9 -26.5v-6q6 -20 26.5 -26.5t45 -5.5t48 6.5t38.5 9.5q41 10 78.5 26.5t78.5 32.5q10 4 19.5 7t19.5 8q-29 -18 -54.5 -36t-55.5 -34q-25 -12 -57.5 -27.5t-66.5 -23.5t-68 -8t-60 18l-15 8l-34 -80q-8 -12 -23.5 -41.5t-35 -57.5t-43 -44t-46.5 -2 q-27 16 -31 52t-8 63q-1 30 -1 59v29q1 43 1 86q3 72 3 143v35q-1 88 -13 180q-4 25 -9 49.5t-16 46.5q-10 18 -22 36t-12 36z" />
<glyph unicode="l" horiz-adv-x="210" d="M74 1735q0 12 9 18t19 4q20 -10 30.5 -39.5t15 -66.5t4.5 -71v-50q3 -57 3 -114q1 -62 -3 -124q-6 -118 -14.5 -237t-16.5 -238t-8 -237q0 -47 3 -96.5t11 -96.5q2 -23 12.5 -47.5t3.5 -46.5q-6 -23 -21.5 -15.5t-25.5 23.5q-6 14 -7 30.5t-1 33.5q-4 35 -7 70.5t-3 72.5 q-2 55 -2 110q0 119 9 238q13 174 24 348q4 88 7 175q1 29 1 58q0 58 -4 115q-2 25 -4.5 51.5t-8.5 55.5q-4 18 -16 36.5t-10 39.5z" />
<glyph unicode="m" horiz-adv-x="772" d="M60 692q-3 33 1 56q2 14 8.5 34.5t15.5 39t22.5 30.5t33.5 12q12 0 16.5 -10t0.5 -20q-6 -18 -23.5 -33t-25.5 -33q-6 -16 -10.5 -35.5t-2.5 -36.5q41 25 73 74t58 86q4 8 15.5 33.5t27 50.5t31.5 41t31 8q14 -2 17 -17.5t1 -34.5t-7 -38.5t-5 -32.5q-4 -31 -6 -61.5 t-2 -61.5v-60.5t18 -55.5q2 0 2 -1t4 -1q2 0 2 2q23 8 47.5 52t49 90t51 78t55.5 17l12 -10q14 -23 21.5 -54.5t18 -59t28.5 -46t55 -18.5h6q52 0 100 32q52 34 95 66q10 6 17.5 10t17.5 15q-35 -41 -76 -77t-88 -58q-29 -14 -59.5 -19.5t-61.5 4.5q-29 8 -45 27.5t-27.5 44 t-18.5 50.5t-15 48q-37 -41 -61.5 -93t-63.5 -97q-12 -16 -30.5 -30.5t-41.5 -10.5q-25 6 -35 29.5t-14 54t-2 61.5t2 49q0 53 6 113l-25 -37q-23 -35 -47 -69.5t-51 -67.5q-14 -16 -35.5 -40t-46.5 -24q-31 2 -34 35z" />
<glyph unicode="n" horiz-adv-x="673" d="M56 739.5q-1 34.5 1 55.5q0 8 7.5 48t21.5 80t31.5 65.5t40.5 6.5q8 -8 3 -24.5t-14.5 -37t-20.5 -38.5t-13 -31q-7 -24 -11 -56q-4 -27 -3 -53v-11q1 -32 10 -63.5t28 -51.5q18 14 34.5 35.5t30 45t26 47t24.5 42.5q12 18 25.5 41.5t31 46t37 39t43.5 22.5 q37 6 57.5 -19.5t35 -60t28.5 -69.5t41 -47q25 -8 47.5 -4t44 14t42 21.5t40.5 19.5l39 16q-35 -43 -85 -77.5t-110 -34.5q-41 2 -66.5 26.5t-41.5 59.5q-8 18 -16.5 48.5t-24.5 47.5q-18 18 -41 1.5t-44.5 -44t-38.5 -59t-26 -44.5q-10 -16 -23.5 -43.5t-29.5 -54.5 t-36.5 -45t-43.5 -18q-31 2 -48 28.5t-24.5 60.5t-8.5 68.5z" />
<glyph unicode="o" horiz-adv-x="514" d="M50 800q11 40 50 74q29 29 73 53.5t85 28.5q16 2 30.5 -9t-1.5 -27q-12 -12 -31.5 -15.5t-36.5 -7.5q33 -2 65.5 -4t63.5 -12q35 -10 68 -27.5t45 -52.5q8 -23 2 -45.5t-20.5 -41t-33 -33.5t-36.5 -24q-43 -25 -97 -32q-21 -3 -40 -3q-32 0 -62 7q-47 8 -79 34.5 t-44 61.5q-6 18 -6 38q0 18 5 37zM83 753.5q3 -28.5 24.5 -53t64.5 -32.5q31 -6 71 -6t76.5 11t66.5 32.5t38 58.5q2 10 2 22q-10 23 -30.5 36.5t-45 20.5t-51.5 9t-47 2q-10 0 -27.5 -4t-34 -5t-28.5 2t-15 17q-35 -23 -51 -52.5t-13 -58z" />
<glyph unicode="p" horiz-adv-x="811" d="M-135 856q-8 20 24.5 34.5t77.5 26t87 16.5t50 7q0 6 -9 29.5t-17 49t-8 46t18 20.5t27.5 -17t15.5 -40.5t8 -47.5t4 -36q67 6 134 6l268 -24q27 -6 74 -15.5t93 -27t79.5 -44t35.5 -65.5q0 -23 -12 -41t-30.5 -32.5t-40 -25.5t-39.5 -18q-74 -31 -158 -46t-166 -15 q-51 0 -102.5 6t-102.5 23q6 -104 12.5 -205t34.5 -199q6 -23 18.5 -47t8.5 -47q-4 -16 -18.5 -20.5t-24.5 12.5q-23 27 -28 76t-11 84q-8 59 -12 117.5t-23 111.5q-33 88 -84 172q-41 63 -104 111q-6 6 -21.5 13l-31 14t-24.5 16.5t-3 21.5zM-84 850q27 -16 49.5 -40 t40.5 -46q41 -51 72 -111.5t55 -122.5l17 -45q-4 41 -6.5 79t-6.5 77q-8 8 -10 18.5t8 16.5q-6 59 -11 115.5t-13 111.5q-49 -6 -97.5 -18.5t-97.5 -34.5zM150 905q8 -55 13 -112.5t9 -116.5q74 -29 146 -38q39 -5 80 -5q36 0 75 4q53 6 103.5 17.5t97.5 29.5l31.5 13.5 t34 17.5t29.5 23.5t19 29.5v8q-10 33 -52 50.5t-70 27.5q-88 29 -166 41q-86 12 -174 16q-25 1 -50 1z" />
<glyph unicode="q" horiz-adv-x="575" d="M-595 31.5q-1 11.5 11 27.5q53 63 125 111.5t144 85.5q174 88 365.5 134t383.5 65q2 96 3 189t7 187q-23 -39 -54.5 -89t-70 -96t-85 -78.5t-97.5 -37.5q-7 -1 -13 -1q-32 0 -50 17q-21 19 -26 48t1 62.5t21 62.5q35 72 96 126t135 85q12 4 26.5 9t28.5 11q12 4 27.5 7.5 t28.5 0.5q16 -4 22 -17t-8 -23q-18 -16 -44 -15.5t-48 -5.5q-37 -12 -72 -30.5t-65 -47.5q-16 -12 -44 -44t-49.5 -67.5t-28.5 -71.5t19 -56q2 -2 7 -5.5t10 -3.5q27 -10 55.5 1.5t54 33t47 47t35.5 43.5q45 51 81 107.5t65 116.5q6 88 18 182q2 10 5 26.5t8 32t13.5 27.5 t20.5 16q27 6 37 -10t8 -47t-12 -70t-22.5 -73.5t-24 -61.5t-13.5 -33q-10 -113 -12 -224.5t-2 -223.5q129 10 258 10l238 -9q248 -18 491 -73q72 -16 145.5 -37.5t145.5 -50.5l35 -16q-84 18 -166 37.5t-168 35.5q-244 43 -488 60q-107 8 -216 8q-137 0 -275 -12 q0 -172 3 -342t13 -340q4 -76 9.5 -151t15.5 -146q2 -14 8 -35t10.5 -40t4.5 -37.5t-9 -29.5q-14 -12 -23 2.5t-15.5 39t-9.5 49t-5 34.5q-14 150 -24 306q-8 174 -12.5 344t-4.5 344q-193 -23 -383 -69t-364 -136q-68 -35 -123.5 -78t-106.5 -100q-10 -14 -22.5 -17.5 t-20.5 2.5t-9 17.5zM496 1024q10 29 23 66q7 22 7 41q0 16 -4 30q-6 -10 -8 -22.5t-6 -22.5z" />
<glyph unicode="r" horiz-adv-x="610" d="M-24.5 861q-8.5 32 10.5 57q12 18 33.5 24t46 7t49 -3t43.5 -6l-8 29q-10 29 -21.5 54.5t-26.5 51.5q-4 6 -7 18.5t-3 23.5t5 17.5t22 -1.5q23 -6 30 -33t11 -45q10 -29 20 -59.5t19 -61.5q29 -6 66.5 -13.5t75.5 -21.5t68.5 -33.5t43.5 -50.5q8 -18 4 -36.5t-15.5 -36 t-27 -31t-27.5 -23.5q51 -8 117 -11q12 -1 24 -1q54 0 104 12q60 14 104 50t48 108q2 -13 2 -26q0 -35 -13 -63q-17 -38 -51 -62.5t-78 -38t-89 -15.5q-28 -2 -56.5 -2t-56.5 2q-56 4 -112 14q-29 -18 -51 -20q12 -49 26 -99.5t29 -97.5q10 -20 18 -41.5t19 -40.5 q8 -16 18 -34.5t4 -34.5l-8 -11q-14 -8 -24.5 0.5t-17.5 22.5t-12 30.5t-7 22.5q-23 66 -72 131q-41 53 -85 106.5t-85 106.5q-14 16 -38 43t-42 58.5t-26.5 63.5zM16 885q-1 -5 -1 -10q1 -25 17 -54q20 -35 34 -57q35 -63 75 -119q37 -53 77 -105.5t81 -105.5 q-16 47 -30.5 95.5t-28.5 97.5q-23 -4 -58 1t-47 29q-12 18 -2 28.5t26.5 15t36 5.5t25.5 1l-49 186q-10 0 -33.5 4t-50.5 6t-48.5 -1t-23.5 -17zM213 881q12 -43 24.5 -87t22.5 -89q12 0 24.5 -2.5t28.5 -4.5q25 16 57.5 40t39.5 55q0 2 -9 14q-35 31 -82 46.5t-90 25.5 q-6 2 -16 2z" />
<glyph unicode="s" horiz-adv-x="514" d="M14 604q12 66 52 120t86 99q-14 -23 -25.5 -46t-24.5 -46q-8 -12 -19 -32.5t-21.5 -43t-14.5 -45t2 -39.5q2 -12 32 -10t66.5 8t70.5 14.5t42 12.5q53 16 105.5 37.5t87.5 64.5h4q-16 29 -55.5 45.5t-67.5 26.5l-166 80q-18 10 -45 23.5t-49.5 30t-40 37t-17.5 44.5 q0 18 13.5 27.5t30 13.5t35 5t30.5 1q8 0 50 -4t88 -14t80 -25.5t26 -40.5q-6 -12 -15 -14h-8q-25 0 -54.5 17.5t-55.5 23.5q-18 4 -41 8t-46.5 7t-46 1t-39.5 -10q8 -23 36 -38t48 -25q31 -18 62 -34t61 -30q53 -27 112.5 -51.5t100.5 -65.5q6 -6 11.5 -14t5.5 -22 q0 -38 -33 -65q-35 -28 -82 -47.5t-96 -30.5t-76 -17q-25 -5 -61 -13q-26 -5 -51 -6q-10 0 -20 1q-33 3 -55 21q-15 12 -15 35q0 11 3 25z" />
<glyph unicode="t" horiz-adv-x="440" d="M-23.5 966.5q-5.5 12.5 5.5 22.5q4 14 25.5 13t49 -8t52 -15t34.5 -10q-1 50 -1 99q0 136 4 270q3 96 3 193q0 88 -2 177q0 16 -2 31.5t-2 32.5q0 18 7.5 27t16.5 9t17.5 -9t8.5 -27q2 -34 2 -68q1 -30 -1 -60q-4 -65 -4 -126q0 -141 -1 -278.5t-1 -274.5q42 -7 88 -9h17 q37 0 76 9q10 0 25.5 7t30.5 14t29.5 9t26.5 -6q18 -14 4 -26.5t-39.5 -20.5t-51 -12t-29.5 -4q-44 -6 -88.5 -6t-88.5 6v-101.5t2 -101.5q10 -16 36 -56t45.5 -84t26.5 -84t-19 -55q-31 -16 -51.5 -2.5t-35 45t-22.5 74.5t-12 84t-6 75t-2 48q-29 35 -55.5 70.5t-57.5 66.5 q-6 6 -19.5 16.5t-24.5 21.5t-16.5 23.5zM45 948q25 -41 50.5 -77.5t51.5 -75.5v22q-4 29 -4 56.5v56.5l-41 10zM193 700q2 -14 4 -56t9 -86t22.5 -74.5t41.5 -22.5q23 6 18 36.5t-20.5 67.5t-35 70t-25.5 45z" />
<glyph unicode="u" horiz-adv-x="432" d="M49 786q4 33 12.5 65t20.5 60q4 6 13 17.5t19.5 17.5t18.5 4t8 -20q2 -18 -10 -37t-22 -35q-6 -18 -11.5 -36.5t-9.5 -39.5q-2 -17 -2 -34q0 -50 18 -97q10 -27 32 -48t52 -17q33 2 60.5 22.5t48 49t35 62.5t22.5 62q8 29 13.5 57.5t9.5 57.5q-2 8 -4 23.5t-2 31t5 27.5 t19 12q20 2 24.5 -22.5t1.5 -57t-10.5 -63.5t-9.5 -39q-8 -39 -25.5 -85t-45 -86t-64.5 -66q-34 -25 -79 -25h-7q-41 0 -67.5 25.5t-42 62.5t-20.5 78q-3 23 -3 43q0 16 2 30z" />
<glyph unicode="v" horiz-adv-x="409" d="M2 1210.5q-2 28.5 12 34.5q14 8 24.5 -7t16.5 -37.5t9.5 -47.5t5.5 -37q16 -76 34.5 -151.5t36.5 -149.5q10 -41 20.5 -85t26.5 -85q6 -25 15.5 -59.5t32.5 -50.5q18 12 29 36.5t18.5 52t10.5 55.5t7 48q6 43 10 88q2 18 2 36q0 27 -4 52q0 10 -5 24.5t-8 30t-1 28.5 t14 20q14 6 22.5 -5.5t12.5 -29t5 -35t1 -23.5q4 -31 2 -60.5t-4 -59.5q-2 -12 -5 -41t-10 -66t-16.5 -75t-23.5 -66.5t-32.5 -42t-41.5 -0.5q-23 16 -35 46t-20 54q-16 35 -26.5 72t-18.5 74l-72 288q-2 12 -13 44t-20.5 67t-11.5 63.5z" />
<glyph unicode="w" horiz-adv-x="534" d="M29 813v12q0 30 8 54q10 23 27.5 19.5t17.5 -28.5q1 -10 1 -20q0 -24 -7 -50q-10 -36 -10 -71q4 -31 5 -67.5t21 -63.5q31 39 42 98.5t22 106.5q2 10 2 35.5t1 52.5t7 47t18 20q16 2 23.5 -20.5t10.5 -51t4 -57t1 -36.5q2 -16 13.5 -60.5t30 -87.5t43 -70.5t52.5 -9.5 q20 18 35 44t25 54.5t16 58.5t11 56q0 6 1 34t5 56.5t12.5 45.5t24.5 -1q12 -12 13 -33.5t-3 -46t-11.5 -48t-9.5 -37.5q-6 -25 -15 -63t-25.5 -75t-40 -63.5t-58.5 -28.5h-4q-34 0 -58 29q-26 31 -44.5 74t-28.5 87t-17 68q-4 -16 -10 -52t-17 -72t-27.5 -64.5t-41.5 -30.5 q-27 -4 -40 20.5t-18 57.5t-5 64.5v45.5q0 31 -2 68z" />
<glyph unicode="x" horiz-adv-x="610" d="M7 1044.5q1 14.5 16 18.5q14 8 29.5 -9.5t28.5 -43t22.5 -52t15.5 -36.5q29 -49 58.5 -97.5t62.5 -95.5q23 25 45 50.5t39 54.5q10 18 17 45.5t28 42.5q14 12 21 6t7 -18.5t-3 -27t-5 -20.5q-8 -16 -21.5 -33.5t-25.5 -33.5q-18 -25 -37.5 -49.5t-42.5 -47.5 q20 -27 45 -57.5t52.5 -58t60.5 -48t67 -24.5q31 -4 55.5 8t45 31.5t37 45.5t30.5 48q-16 -47 -38.5 -88t-65.5 -63q-30 -14 -59 -14h-8q-32 2 -64.5 17t-61 37.5t-51.5 45.5q-23 20 -41 42.5t-35 45.5q-23 -23 -44 -42.5t-46 -37.5l-22.5 -22.5t-34.5 -31t-35.5 -20.5 t-25.5 10q-8 4 -5 19q10 12 23 22q20 23 29.5 53.5t10.5 63.5v16q0 26 -2 50q-3 32 -7 61q-6 37 -14.5 74t-18.5 71q-4 8 -12.5 24.5t-14.5 35t-5 33zM66 928q12 -72 19 -144q3 -29 3 -58q0 -42 -6 -85q-2 -16 -4 -29.5t-6 -29.5q41 23 72.5 53.5t62.5 60.5 q-33 47 -63.5 96.5t-57.5 100.5z" />
<glyph unicode="y" horiz-adv-x="389" d="M-275 45q5 45 24.5 88t48 82t55.5 70q33 37 73.5 73.5t85.5 67.5t95.5 50.5t103.5 21.5q-59 -12 -114.5 -43t-103.5 -74t-89 -92t-72 -96q-29 -37 -52 -87q-18 -36 -18 -72q0 -12 2 -24q6 -33 24.5 -59.5t44.5 -48t54.5 -39t55.5 -29.5q59 -29 131 -44q28 -6 55 -6 q43 0 84 15q27 12 38 38t13 56.5t-1 62.5t-5 56q-16 176 -30 348q-6 79 -6 158q0 94 9 189q-12 -12 -29.5 -28.5t-38 -29t-42 -18.5t-41.5 4q-27 12 -32 35.5t-1 51.5t15.5 54.5t19.5 42.5l21.5 43t33.5 27q18 2 22.5 -5t1.5 -18.5t-9.5 -23t-10.5 -17.5 q-10 -12 -22.5 -30.5t-20.5 -38t-10 -39t6 -37.5q0 -4 1 -4t1 -2q16 -10 39 3t44.5 33.5t39 42t25.5 31.5q6 41 13 82t28 76q12 18 32.5 26t38.5 -10q14 -18 10 -43.5t-18 -53t-32.5 -52.5t-28.5 -39q-19 -131 -19 -263q0 -28 1 -57q5 -159 22 -319q4 -43 13 -101 q7 -47 7 -93v-20q-2 -56 -22.5 -102t-75.5 -63q-39 -12 -84 -12q-22 0 -46 3q-71 9 -138.5 38t-122.5 74t-82 102q-16 34 -16 70q0 9 1 18z" />
<glyph unicode="z" horiz-adv-x="622" d="M-80 317q-6 27 11.5 56.5t44 56.5t56 50.5t46.5 37.5q66 57 130 111.5t130 107.5q31 25 59.5 49.5t55.5 51.5q23 18 44 40.5t31 47.5q-10 20 -46 20t-78 -9t-81.5 -20.5t-54.5 -13.5q-18 -4 -52 -10t-70 -8q-10 -1 -21 -1q-25 0 -49 4q-33 5 -45 23q-6 10 -3 20.5 t17 12.5q18 6 37.5 -1t36.5 -9q18 -3 34.5 -3t30.5 3q53 4 103.5 16.5t99.5 22.5l50 10t58.5 5t50 -12t25.5 -42q2 -25 -11 -48.5t-34.5 -46t-45 -42t-38.5 -33.5q-66 -57 -135 -113.5t-139 -111.5q-35 -29 -67.5 -59.5t-67.5 -63.5q-14 -14 -40 -39t-30 -49q12 -2 28.5 2 t34 12t33 16.5t27.5 14.5q27 12 55.5 22.5t57.5 20.5q57 23 114.5 36t118.5 23q107 17 213 17q123 0 246 -23q84 -16 163 -41t156 -59l37 -17q-135 39 -268 66.5t-270 34.5q-25 1 -50 1q-139 0 -269 -29q-154 -34 -302 -99q-14 -6 -39.5 -18.5t-52.5 -18.5t-48.5 -2 t-27.5 30z" />
<glyph unicode="{" horiz-adv-x="337" d="M27 795q0 6 4 12q6 12 21.5 17t33.5 8.5t35.5 8.5t30.5 17q10 10 12 19.5t2 19.5q0 31 -11.5 60.5t-23.5 58t-20.5 58.5t-1.5 61q2 20 14 46.5t30.5 48t42 34t48.5 4.5q20 -12 16 -22.5t-19.5 -18.5t-33 -15.5t-23.5 -9.5q-35 -25 -40 -55.5t3.5 -63t23.5 -67.5t25.5 -69 t8.5 -64.5t-31 -57.5q-10 -10 -27 -18q41 -20 41 -55q-4 -45 -27.5 -87t-39.5 -83q-6 -16 -17.5 -39t-20.5 -47.5t-12 -49t3 -43.5q6 -14 18 -16q20 -10 44 -5t46.5 17.5t41 29.5t30.5 32q6 6 16.5 12t19.5 7t14 -4t3 -21q-4 -20 -22.5 -37t-34.5 -27q-31 -18 -68 -33 q-78 -29 -120 3t-21 110q12 47 31.5 93t40.5 93q2 6 10 20.5t15 30t11.5 30t0.5 22.5q-8 12 -24.5 13t-34 0t-34 -1t-24.5 12q-6 2 -6 11z" />
<glyph unicode="|" horiz-adv-x="172" d="M29 1321.5q-6 21.5 8 38.5q2 10 16 10l10 -6q14 -10 21.5 -37t9.5 -57.5t2 -60v-44.5q12 -152 12.5 -301t4.5 -299q4 -72 5 -143.5t7 -142.5q2 -35 5 -74t13 -74q-29 45 -39 97.5t-16 105.5q-16 137 -19 276.5t-6 278.5q-2 70 -4 137.5t-6 136.5q0 62 -12 121 q-6 16 -12 37.5z" />
<glyph unicode="}" horiz-adv-x="329" d="M33 420q-6 10 0 18t16 13q18 2 36.5 -5.5t35.5 -7.5q27 0 50.5 10.5t39.5 29t25.5 43t7.5 50.5q-4 27 -15.5 49.5t-26 45t-24.5 45t-10 49.5q-2 20 9 35.5t28 27.5q-16 6 -30.5 11.5t-27.5 13.5q-16 10 -28.5 26.5t-7.5 34.5q4 39 23.5 77t31.5 73q10 25 19.5 58.5 t-3.5 62.5q-6 16 -20.5 21t-30.5 4t-33.5 -3t-31.5 0q-16 2 -21.5 10.5t-2.5 16.5t12 15t24 7q27 2 60.5 -2t54.5 -22q18 -14 24 -33.5t6 -41.5t-4 -42t-8 -39q-14 -39 -31.5 -77t-27.5 -76q-2 -10 -3.5 -13.5t1.5 -9.5q12 -14 35.5 -18.5t48 -7.5t44 -9t21.5 -20 q4 -14 -7 -22.5t-26.5 -14.5t-32 -13.5t-22.5 -15.5q-8 -12 -4 -28.5t14 -34t21.5 -33.5t15.5 -29q8 -16 14.5 -34.5t6.5 -41.5q6 -53 -22 -97t-75 -64q-29 -10 -59.5 -16.5t-59.5 1.5q-12 4 -19 10.5t-11 12.5z" />
<glyph unicode="~" horiz-adv-x="690" d="M141 782.5q4 26.5 10.5 52t8.5 31.5q16 43 40.5 70t52.5 31t57.5 -18t60.5 -75q14 -25 33.5 -57.5t40 -53t42 -21.5t41.5 40q8 14 21.5 36t36.5 24q23 0 21.5 -16.5t-12.5 -38t-25.5 -40t-18.5 -20.5q-35 -33 -65.5 -29t-58.5 29t-52.5 63.5t-48.5 75.5q-41 63 -84 45 t-54 -102q-4 -16 -4 -42t-18 -38q-20 -10 -24.5 8.5t-0.5 45z" />
<glyph unicode="&#xa1;" horiz-adv-x="483" d="M14 1083q0 31 11.5 64t29 64.5t37 61.5t37.5 54q41 51 96.5 104.5t122.5 61.5q31 2 54.5 -11t31.5 -44q6 -29 0 -58.5t-19.5 -58.5t-30.5 -54.5t-36 -45.5q-10 -12 -33.5 -38t-53.5 -48.5t-60.5 -35t-50.5 2.5q-10 -10 -33 -26.5t-46.5 -27t-41 -5t-15.5 39.5zM49 1075 q23 -2 48.5 15.5t49 41t44 48t32.5 41.5q23 29 42.5 54t37.5 54q-20 -47 -45 -89t-59 -83q70 29 122 95.5t68 138.5q0 8 2 15t2 13q2 27 -30.5 28t-63.5 -20q-51 -27 -90 -70.5t-72 -90.5q-12 -18 -28.5 -42t-31 -49.5t-23.5 -51t-5 -48.5zM82 412.5q2 19.5 11 43t20.5 45 t15.5 31.5q41 129 74 263.5t55 267.5v-8q6 -35 3 -71t-7 -71q-8 -98 -28.5 -198.5t-53.5 -196.5q-4 -10 -9 -33.5t-14.5 -48t-22.5 -41t-30 -8.5q-16 6 -14 25.5z" />
<glyph unicode="&#xa2;" horiz-adv-x="440" d="M37 776q14 59 59 102.5t92 73.5q8 35 15.5 67t17.5 66q8 35 17.5 71t23.5 69q8 16 19.5 21t20.5 1t12 -15t-5 -30q-12 -35 -24.5 -64.5t-22.5 -62.5l-12 -46t-10 -46q8 2 29.5 13.5t44 18.5t42 6t21.5 -22q2 -12 -6.5 -18t-18.5 -11t-22.5 -7t-20.5 -5q-20 -4 -40.5 -12 t-39.5 -20q-10 -53 -19 -109.5t-17 -109.5q68 23 125 68.5t94 105.5q-12 -47 -37 -82t-60 -64q-12 -12 -16 -14q-25 -18 -53.5 -33.5t-57.5 -23.5q-12 -98 -21 -192.5t-20 -190.5q-8 47 -9 90t-3 90q0 49 4 97t8 97q-57 -8 -94 27t-16 94zM78 723q2 -15 22 -25q23 -8 50 -2 q6 47 12 96.5t14 96.5q-16 -12 -35.5 -30.5t-36 -41t-25.5 -46t-1 -48.5z" />
<glyph unicode="&#xa3;" horiz-adv-x="942" d="M31 569q-4 16 17.5 25.5t51 15.5t56 9.5t37.5 5.5l122 24q0 39 -8 72q-18 -2 -38.5 -3t-39.5 -5q-16 -4 -38.5 -11.5t-40.5 3.5q-10 4 -14.5 13t5.5 19q18 20 52 17.5t59 -0.5q12 0 24.5 1t24.5 1q-2 23 -6 41t-8 41q-27 -4 -53.5 -4h-53.5q-25 0 -56.5 -6.5t-57.5 6.5 q-10 6 -13.5 16t8.5 20q18 14 48 9t51 -7q29 -2 59.5 -1t59.5 3q-6 33 -23.5 107t-25 152.5t6 140t70.5 69.5q51 6 102.5 -11t98.5 -48t87 -69.5t69 -75.5q23 -29 41 -60.5t24 -70.5q2 -10 0 -27.5t-9 -34t-18.5 -26t-27.5 1.5q-10 6 -9 16t6 22.5t11 24.5t6 21 q2 35 -24.5 72.5t-53.5 64.5q-39 45 -85 81t-99 58q-25 10 -59.5 21.5t-63.5 1.5q-23 -8 -29 -35t-6 -58.5t4 -62.5t7 -47q6 -59 17 -114.5t21 -113.5q35 4 69 6.5t67 8.5q20 4 46.5 15t47.5 1q25 -10 12.5 -26.5t-31.5 -20.5q-23 -6 -44 -6t-44 -4l-114 -8q4 -18 7 -37 t7 -35v-8q31 2 63.5 3t63.5 11q18 4 46 12.5t42 -8.5q16 -16 3 -25.5t-36.5 -14.5t-47 -6t-30.5 -1q-25 -4 -49 -4t-49 -4q4 -16 6 -32.5t4 -33.5q96 18 192.5 36t192.5 28q12 0 40 4t56.5 4t51 -8t24.5 -33q0 -12 -17 -14t-41 0t-45.5 6t-27.5 4q-106 -2 -212.5 -23.5 t-211.5 -42.5q2 -10 3 -23t-2 -26.5t-10 -23.5t-19 -13q-12 0 -15 11q0 -2 -2 -2q-6 -10 -14 -6q-35 16 -62.5 25t-68.5 9q-12 0 -33.5 -5t-44 -8t-40 -2t-19.5 15zM176 580q20 0 37 -7q18 -2 37 -6t37 -6q16 0 22 -6q-2 14 1 26.5t5 28.5z" />
<glyph unicode="&#xa4;" horiz-adv-x="745" d="M29 505.5q2 16.5 13 37t25.5 38t18.5 21.5q23 27 46.5 54.5t49.5 50.5q-12 25 -14 51t0 53q6 39 20.5 86t42.5 76q-6 8 -17 10t-9 16l-18.5 18.5t-20.5 26t-9 26.5t15 22q12 6 22.5 -1.5t19.5 -19.5t15.5 -25.5t10.5 -21.5q41 4 84 0t79 -12q16 -4 33 -9.5t31 -13.5 q10 25 31.5 37t38.5 29q16 16 32.5 28.5t36.5 24.5q8 6 21.5 16.5t28 17.5t28.5 8t27 -11q12 -10 0.5 -21.5t-30.5 -21t-39.5 -16.5t-27.5 -11q-29 -23 -53 -53.5t-55 -48.5q18 -12 33.5 -29.5t21.5 -40.5q8 -31 -2 -59.5t-29.5 -54t-45 -47t-48.5 -36.5q12 -14 14.5 -35.5 t6.5 -37.5q6 -20 19 -42t23.5 -40.5t12.5 -31.5t-14 -13q-20 0 -33.5 12t-23 30.5t-14.5 39t-9 34.5t-12.5 31t-8.5 33q-20 -10 -46.5 -18.5t-53.5 -11.5t-51.5 3t-42.5 27q-20 -23 -39 -45.5t-35 -44.5q-6 -10 -14.5 -27.5t-18.5 -35t-22.5 -30t-26.5 -10.5q-20 2 -18 18.5 zM213 731q25 18 49.5 31.5t54.5 21.5q-25 -16 -48 -35.5t-42 -41.5q14 -18 37 -21.5t46.5 1.5t46 15.5t36.5 18.5q18 10 44 27.5t47.5 39t33.5 47t4 52.5q-1 21 -24 39q-41 37 -103.5 50t-115.5 5q4 -4 4 -14l75 -95q-23 16 -43 31t-41 33l-4 4q-35 -45 -55 -97t-2 -112z " />
<glyph unicode="&#xa5;" horiz-adv-x="716" d="M31 1237q-4 10 4 19.5t20 5.5q14 0 29.5 -15.5t29 -36t23.5 -40t19 -31.5q18 -31 33.5 -64t31.5 -67q14 -27 31.5 -64t46.5 -51q2 0 4 -2t6 2q18 0 38 22.5t39.5 54t36.5 68.5t33.5 67t31 47t26.5 11q16 -6 13 -28.5t-15 -50t-26.5 -52t-18.5 -33.5l-96 -208q43 8 87 18 t87 20q25 6 49 12.5t51 8.5q16 4 33.5 -10.5t-4.5 -30.5q-16 -14 -45 -12t-51 -2q-59 -6 -114.5 -21.5t-109.5 -28.5l-39 -94q53 12 107.5 26.5t107.5 29.5q-29 -16 -55 -29.5t-57 -28.5q-29 -12 -58.5 -22.5t-60.5 -18.5q-12 -41 -24.5 -82t-8.5 -82q4 -18 12.5 -35.5 t8.5 -35.5q0 -23 -18.5 -19t-28.5 15q-12 14 -15.5 33.5t-2.5 40t5 40t9 35.5q4 23 10 41.5t12 38.5q-16 -4 -28.5 -6t-24.5 -2q-25 -4 -50.5 -7t-50.5 3q-14 6 -23 21.5t13 25.5q18 8 39 5t39 -5q25 -4 49.5 1t48.5 9l37 94q-18 -4 -36.5 -7t-39.5 -7q-27 -2 -51 -6t-53 -2 q-12 0 -21.5 6t-12.5 15t2 16.5t22 11.5q20 4 42.5 0t45.5 -4q31 2 60.5 7t60.5 11q12 29 24 59.5t29 59.5q-16 -18 -43 -35.5t-51 -3.5q-23 10 -38.5 28.5t-27.5 41t-23.5 47t-21.5 45.5q-29 53 -58.5 100t-70.5 90q-10 10 -14 27z" />
<glyph unicode="&#xa6;" horiz-adv-x="262" d="M83 429q1 75 6 141.5t7 80.5q4 18 7 46t24 40q16 6 24.5 -6t6.5 -24q-2 -25 -13.5 -49.5t-15.5 -49.5q-2 -14 -3 -51t-3 -77t-2 -75.5v-48.5q0 -6 7 -27.5t12 -44t4 -40t-19 -15.5q-27 4 -35 64.5t-7 135.5zM96 1044q-2 43 0 93.5t5 95.5t6.5 79t3.5 44q0 20 -3.5 48 t13.5 44q16 8 26.5 -2t10.5 -23q4 -25 -1 -51t-5 -51q2 -14 -2.5 -51t-8.5 -78t-8 -77t-4 -48q0 -6 7 -27.5t12.5 -44t4.5 -40t-20 -15.5q-18 2 -26.5 31.5t-10.5 72.5z" />
<glyph unicode="&#xa7;" horiz-adv-x="425" d="M31 862q8 31 35.5 57.5t50.5 47.5q-39 8 -56.5 23.5t-17.5 33.5t14.5 39.5t38.5 46.5q12 12 34 28.5t45.5 29t46 13.5t36.5 -20q6 -14 -1 -21t-17 -10q-14 -6 -30.5 -6t-33.5 -6q-29 -12 -57.5 -38.5t-40.5 -57.5q27 -20 65.5 -26.5t77.5 -10.5t75 -15.5t58 -43.5 q23 -31 3.5 -61.5t-48.5 -45.5q53 -10 72.5 -43t14.5 -72.5t-28.5 -80.5t-54.5 -68v-2q-16 -12 -36.5 -23.5t-43 -17.5t-44 -5t-39.5 15q-16 12 -12.5 26.5t22.5 14.5q16 2 31.5 -4t31.5 -4q47 6 81 43t46 78q10 23 11 53.5t-27 44.5q-47 20 -104.5 18.5t-108.5 2.5 q-20 4 -51 7.5t-37 28.5q-10 16 -2 31zM61 842l2 -2v2h-2zM70 842q12 -6 29.5 -7t33.5 -4q14 12 39 10.5t43 -1.5q23 0 46.5 3t45.5 15q31 23 15 42.5t-43 27.5q-25 10 -52.5 16t-54.5 12q-6 -12 -24.5 -26.5t-38 -27.5t-33 -28.5t-6.5 -31.5z" />
<glyph unicode="&#xa8;" horiz-adv-x="387" d="M27 1335q16 -23 32.5 -42t32.5 -40q20 -23 46 -42t38 -37t5 -33t-29 -11q-25 6 -36.5 23.5t-23.5 36.5q-16 23 -32.5 47.5t-26.5 52.5zM220 1299.5q-3 17.5 1 28.5t23 7q10 -4 15 -14t8 -22.5t5 -25.5t7 -22q10 -23 21 -47t26 -41q2 -2 11 -12t15 -21.5t6 -20.5t-16 -9 q-33 -4 -47 23.5t-25 50.5q-18 47 -24 57t-8 14q-2 6 -8.5 21.5t-9.5 33z" />
<glyph unicode="&#xa9;" horiz-adv-x="733" d="M34 947q11 97 68 169q27 33 61 49.5t72.5 21.5t77.5 3t76 -8q92 -12 165 -73.5t112 -144.5t37.5 -176.5t-58.5 -169.5q-31 -41 -75 -71.5t-94 -48t-104.5 -19.5t-103.5 15q-90 31 -147 105.5t-80 164.5q-18 86 -7 183zM69 837.5q5 -59.5 24.5 -114.5t55 -100t89.5 -70 q43 -23 92 -29t96 2.5t90 32t78 57.5q63 68 69.5 156t-28.5 169t-105.5 139.5t-158.5 66.5q-10 -18 -31 -14t-37 8q-29 -10 -55.5 -32t-36.5 -50q-10 -20 -5 -43t-7 -39q-12 -14 -20.5 -8t-12.5 19t-6 28.5t0 21.5q6 31 25.5 60.5t43.5 48.5q-37 -6 -62.5 -24.5t-44 -46 t-30.5 -60.5t-18 -66q-10 -53 -5 -112.5zM211 768q-8 37 7 66.5t43 53t62.5 40t63.5 24.5q12 4 32.5 11.5t44 12.5t45 4t36.5 -13q14 -14 8 -22.5t-21.5 -13.5t-32 -7t-20.5 -2q-63 0 -123 -27q-16 -8 -36.5 -20.5t-37 -29t-25.5 -37t-3 -40.5q31 -29 76 -36t93 -1t93 23.5 t76 40.5q-25 -35 -59.5 -55.5t-75.5 -32.5q-27 -6 -66 -11.5t-77 -1.5t-67.5 20.5t-35.5 53.5z" />
<glyph unicode="&#xaa;" horiz-adv-x="593" d="M37 958q-6 39 17.5 57.5t59.5 25t73.5 4t58.5 -8.5q8 -2 42 -15t70.5 -26.5t67.5 -22.5t35 -3q18 14 16 41.5t-14 57.5t-29.5 56.5t-30.5 36.5q-23 20 -54.5 29.5t-65 8.5t-66.5 -11t-57 -25q-16 -10 -31.5 -26.5t-34.5 -20.5q-20 -4 -23 4t2 20.5t14 24t15 15.5 q41 29 93.5 43t105.5 12q47 -2 86 -21.5t66.5 -52.5t42 -75t12.5 -89l22 19q16 12 38 12t12 -29q-8 -18 -28 -29.5t-36 -19.5q-74 -43 -154 -63q-47 -10 -97 -14.5t-97 6.5q-16 2 -37.5 7t-42 14t-35 23.5t-16.5 34.5zM72 965q0 -23 28.5 -34t65.5 -16.5t72 -4.5t47 1 q35 4 65.5 11.5t59.5 19.5q-47 14 -94.5 32.5t-94.5 29.5q-8 2 -33.5 3t-53.5 -2.5t-47 -12.5t-15 -27z" />
<glyph unicode="&#xab;" horiz-adv-x="718" d="M35.5 745.5q-17.5 22.5 3.5 53.5q25 33 58.5 58.5t70.5 48t74 46t67 52.5q10 12 27.5 28.5t36.5 5.5q12 -4 12 -15t-6 -19q-16 -29 -51 -47.5t-60 -36.5q-29 -18 -58.5 -39t-57.5 -41q-18 -12 -47 -30.5t-39 -41.5q23 -23 61.5 -37t69.5 -24q35 -12 77.5 -18.5 t75.5 -22.5q16 -8 19.5 -17.5t-3 -17.5t-18.5 -11.5t-24 1.5q-29 10 -55.5 21.5t-55.5 21.5q-18 4 -55 14t-71 27.5t-51.5 40zM277.5 796.5q-15.5 22.5 13.5 45.5q33 27 74 44t84 31.5t87 30t80 35.5q12 10 33 22.5t39 2.5q12 -6 11 -16.5t-11 -16.5q-23 -23 -63.5 -34 t-69.5 -23q-33 -12 -67.5 -25.5t-69.5 -30.5q-23 -6 -56.5 -18.5t-46.5 -32.5q16 -23 56.5 -41t70.5 -31q35 -18 79 -28.5t79 -30.5q14 -10 15 -18.5t-6 -14.5t-20.5 -8t-27.5 4q-29 12 -55 26.5t-55 26.5q-18 6 -56.5 21.5t-70 36t-47 43z" />
<glyph unicode="&#xac;" horiz-adv-x="536" d="M66 825q0 27 46 41.5t104 22.5t112.5 10t68.5 2q20 0 47 1t43 -17q10 -16 -6 -29q-8 -16 -12 -32.5t-8 -28.5q0 -6 5 -28t7 -44.5t-1 -38.5t-21 -12q-23 4 -30 24.5t-6 48t7 56t12 49.5q-18 4 -36.5 8t-39.5 4q-14 0 -36.5 -1t-47 -3t-47 -5l-37.5 -5q-6 0 -25.5 -10.5 t-41 -19.5t-38.5 -10t-19 17z" />
<glyph unicode="&#xad;" horiz-adv-x="473" d="M66 748q0 27 37.5 41t86 22t93.5 10t59 2q20 0 47 1t43 -17q10 -16 -1 -24.5t-25 -8.5q-25 -4 -50.5 3t-52.5 7q-29 0 -56.5 -4t-56.5 -10q-6 0 -25.5 -10t-41 -19.5t-38.5 -10.5t-19 18z" />
<glyph unicode="&#xae;" horiz-adv-x="829" d="M33.5 808q17.5 85 60.5 150q27 41 64 75t80 59l36 18q4 2 19.5 8t31 7t24.5 -3t1 -22q23 27 68 31t78 2q72 -6 137 -39t112 -82q33 -35 45.5 -76t8.5 -84t-22.5 -84t-47.5 -76q-72 -90 -182.5 -139t-222.5 -53q-43 -2 -85 5t-80 24.5t-68 47t-46 72.5q-29 74 -11.5 159z M66 764q-4 -86 29.5 -136t91 -70.5t129 -16.5t142 25.5t132 58.5t100.5 80q35 41 53.5 85t17.5 86t-23.5 80.5t-67.5 71.5q-47 33 -106.5 52.5t-119.5 11.5q-6 -2 -25.5 -10.5t-38 -12.5t-30.5 -1t-2 24q-14 -16 -35.5 -19.5t-38.5 -9.5q-27 -10 -48 -25.5t-42 -31.5 q-51 -47 -82.5 -109.5t-35.5 -132.5zM206 975.5q5 9.5 19.5 16.5t31.5 11.5t22 4.5q29 4 54 11t54 17q16 6 40 13.5t46.5 10.5t44 0t35.5 -22q16 -25 7 -55.5t-21 -54.5q-27 -53 -67 -101.5t-91 -89.5l-4 -6q39 6 79 11.5t81 2.5q25 -2 55.5 -1t52.5 -17q14 -16 10 -23.5 t-16 -10.5t-27.5 -1t-21.5 4q-59 16 -127 11t-125 -19q4 -10 7 -21.5t1 -23.5q0 -10 -9 -16t-20 -2q-12 8 -17 21t-9 26q-6 -2 -16.5 -5t-20.5 -5.5t-17.5 1t-9.5 13.5q-6 18 17 31q10 6 19 9t20 7v6q-6 31 -11.5 64.5t-9.5 68.5q-2 20 -11 44t-5 46q-17 -4 -27 4 q-18 10 -13 19.5zM287 961q16 -20 14 -46t0 -51q4 -31 7 -61.5t9 -63.5q45 27 80 62t64 73q16 23 28.5 43.5t22.5 43.5q2 2 4 10t3 17t3 18l2 8l-10 8q-26 2 -53 -6q-23 -4 -44.5 -11.5t-43.5 -13.5z" />
<glyph unicode="&#xaf;" horiz-adv-x="583" d="M66 1208q0 25 42 40.5t96 22.5t103.5 9t63.5 2q8 0 29.5 1t44 0t43 -5t26.5 -12q10 -16 -1 -24.5t-24 -8.5q-12 -2 -33.5 0t-45 4t-45 4t-33.5 2q-29 0 -71 -4t-71 -10q-6 0 -25.5 -10.5t-41 -18.5t-38.5 -9t-19 17z" />
<glyph unicode="&#xb0;" horiz-adv-x="342" d="M29 1025q0 38 12 73q6 16 21.5 40.5t36 44t43 25.5t42.5 -14q14 -27 -12 -33q-16 -6 -29.5 -8t-25.5 -12q-33 -27 -45.5 -72t2.5 -84q4 -10 13 -21.5t22 -11.5q27 -4 59.5 16.5t58 51.5t40 65.5t7.5 61.5q-4 12 -15 24.5t-21 22.5q-29 25 -62 25q-10 0 -22.5 -3.5 t-25.5 -4.5t-23.5 2.5t-16.5 13.5q-10 14 -1 22t25.5 11.5t33 3.5t22.5 -2q57 -6 92 -41q14 -10 29.5 -28.5t19.5 -35.5q12 -41 -16.5 -96t-73.5 -96t-93 -52.5t-79 39.5q-18 35 -18 73z" />
<glyph unicode="&#xb1;" horiz-adv-x="733" d="M88 846q6 12 22.5 13t37 -4t39 -11t28.5 -6q47 -4 92 -2t90 6q4 35 8.5 68.5t4.5 66.5q-4 23 -10.5 45t-10.5 45q-2 20 13.5 26.5t29.5 -10.5q16 -23 13 -50t-1 -52q4 -35 0 -66.5t-8 -66.5l158 26q-31 -18 -58.5 -31.5t-62.5 -23.5l-39 -8q0 -8 -2 -10q0 -6 2 -28.5 t0 -44t-8 -37t-25 -7.5q-14 8 -17 23.5t-1 33t7 35t5 27.5q-47 -8 -93 -11.5t-91 1.5q-8 0 -31.5 1t-47 6t-39 15t-5.5 31zM205 500q0 27 38 41t86 21t93 9t59 2q18 0 46 1t42 -17q10 -14 -1 -23.5t-23 -9.5q-25 -2 -51.5 4.5t-51.5 6.5q-61 0 -112 -13q-6 -2 -26.5 -12 t-42 -18.5t-39 -9.5t-17.5 18z" />
<glyph unicode="&#xb2;" horiz-adv-x="538" d="M31 1260q-8 18 4 42.5t31.5 49t41 44t33.5 29.5q27 20 61 32.5t67.5 14t63 -13t48.5 -49.5q14 -29 15 -62.5t-5 -67.5t-16 -66.5t-21 -59.5q-25 -72 -57.5 -138.5t-67.5 -129.5l-41 -76l17 8q59 37 127.5 64.5t140.5 40.5q10 2 31.5 8t44 8t40 -3t19.5 -24 q2 -14 -16.5 -19t-43 -6t-49 0t-32.5 -1q-100 -23 -184 -68q-49 -23 -90 -55q-14 -12 -28.5 -27.5t-35.5 -19.5q-10 -4 -18 4q-12 8 -10.5 21.5t9 26.5t17.5 26.5t16 21.5q29 43 53.5 88t47.5 92q25 49 48 101.5t40 105.5q6 18 13 43t12 50.5t4 51t-13 46.5q-25 41 -71 41 t-87 -23q-29 -16 -53 -39.5t-41 -50.5q0 -4 -7 -23.5t-17.5 -35t-21.5 -20.5t-19 18z" />
<glyph unicode="&#xb3;" horiz-adv-x="538" d="M-25.5 1267.5q-1.5 8.5 5 17.5t17.5 17.5t17 12.5q31 12 64 23.5t65 21.5q37 12 90.5 24.5t108.5 15.5t103.5 -9.5t74.5 -53.5q27 -39 9.5 -76.5t-53.5 -69.5t-78 -58.5t-66 -40.5q-25 -16 -49.5 -30.5t-46.5 -33.5l81 -20q18 -4 49 -12.5t60 -21.5t50.5 -31.5 t21.5 -45.5q0 -31 -39 -41q-37 -14 -80 -14t-84 -4q-39 -4 -74 -11.5t-69 -17.5q-18 -6 -29.5 -2t-14 13t4 19.5t22.5 16.5q29 8 59.5 10t59.5 6h43t65.5 1t62.5 6.5t34 17.5q-4 12 -15.5 20.5t-26 15.5t-29.5 13t-26 10q-29 8 -55 14.5t-55 10.5q-18 2 -42 0t-38 10 q-12 6 -12 17q-10 14 18.5 36.5t74.5 48t99.5 55.5t91 61.5t51 62.5t-19.5 59q-25 18 -55.5 25.5t-63 6.5t-65.5 -7t-60 -13q-33 -6 -63.5 -16t-63.5 -22q-25 -10 -53 -31t-57 -17q-18 2 -19.5 10.5z" />
<glyph unicode="&#xb4;" horiz-adv-x="567" d="M31 1129.5q-4 9.5 2 21.5t22 20q25 10 49.5 18.5t51.5 20.5l106 50l277 133q-25 -23 -51.5 -43.5t-55.5 -40.5q-66 -41 -133.5 -78t-134.5 -68q-23 -10 -43 -22.5t-43 -22.5q-18 -6 -30.5 -2t-16.5 13.5z" />
<glyph unicode="&#xb5;" horiz-adv-x="686" d="M29.5 51.5q-0.5 16.5 7.5 35.5t19.5 37.5t13.5 22.5q18 47 27 97.5t20 99.5q14 113 20 224.5t10 226.5q4 80 0 157q0 8 -2 28.5t-2 41t6.5 34t24.5 5.5q14 -6 18.5 -23.5t3.5 -39t-4.5 -43t-3.5 -33.5q0 -16 1 -39t4.5 -45.5t10.5 -44t19 -33.5q2 0 2 -1t2 -1q0 -2 2 -2 q8 -4 16.5 2t16.5 15t13.5 19.5t7.5 14.5q10 20 16 42.5t10 45.5q4 20 3 40.5t5 41.5q4 14 15.5 22.5t23.5 -4.5q12 -14 13.5 -33.5t3.5 -35.5q0 -35 13 -77t54 -50q27 -10 57.5 2t53.5 24q27 16 54.5 34t51.5 36q-20 -29 -42.5 -50.5t-51.5 -43.5q-31 -23 -64.5 -34 t-64.5 -6t-55.5 26.5t-38.5 62.5q-6 -16 -15.5 -42t-24.5 -47.5t-35.5 -34.5t-45.5 -5q-8 2 -20 10l-17 23q-2 -137 -11 -275.5t-44 -271.5q-4 -16 -8 -42t-12.5 -51.5t-22 -48t-31.5 -28.5q-23 -2 -23.5 14.5z" />
<glyph unicode="&#xb6;" horiz-adv-x="909" d="M86 942q-6 37 22.5 68.5t71.5 56.5t88 43t72 31q94 37 191.5 66.5t195.5 54.5q41 10 83 23t83 22q29 6 42 -12.5t-20 -34.5q-23 -8 -45 -9.5t-43 -5.5q-45 -8 -87 -18t-83 -23q8 -18 4 -41.5t-13 -49.5t-19.5 -49.5t-14.5 -39.5l-61 -184q-29 -88 -52.5 -176.5 t-33.5 -180.5q-8 -37 -2 -77q0 -6 4 -23.5t4 -34t-5 -29t-19 -8.5q-18 6 -24.5 30t-6.5 52.5t4 55t6 38.5q16 145 63.5 285.5t92.5 282.5q10 35 14 69.5t12 69.5l-98 -33q6 -23 -8.5 -49.5t-20.5 -48.5q-12 -31 -20 -63.5t-19 -65.5q-18 -63 -34.5 -124.5t-30.5 -125.5 q-6 -31 -11.5 -61.5t-9.5 -61.5q0 -16 2 -45t-18 -41q-20 -14 -25.5 6.5t-3.5 51t8.5 59.5t8.5 33q12 68 28.5 134t34.5 134q-41 -10 -90 -11t-90 3q-29 0 -64.5 5t-54.5 30q-4 6 -5 11t-3 11zM121 946q0 -2 4 -2q12 -16 36.5 -21t52.5 -5t54.5 3t44.5 5q20 4 45 12t48 2 l28 96q8 27 13.5 54.5t13.5 52.5q-53 -18 -106.5 -39t-104.5 -45q-14 -8 -34.5 -18.5t-40 -22.5t-35 -27.5t-19.5 -34.5v-8v-2z" />
<glyph unicode="&#xb7;" horiz-adv-x="223" d="M85 806.5q-5 18.5 3 41.5q10 18 27.5 27.5t34.5 -1.5q14 -6 19 -24.5t-3 -40.5q-10 -18 -27.5 -27.5t-34.5 0.5q-14 6 -19 24.5z" />
<glyph unicode="&#xb8;" horiz-adv-x="389" d="M33 248q-10 12 5 25.5t37.5 24.5t46 20.5t30.5 15.5q59 41 106 94t66 121q-2 2 -5 6q-2 0 -2 4q0 2 -2 2q-12 6 -27.5 2t-25.5 -8t-30.5 -20.5t-42 -31t-42 -22.5t-28.5 4q-12 6 -12.5 19.5t5 28t13.5 28.5l12 21q2 2 4 8q2 4 4 10t7 16q2 6 7 22.5t13 32t18.5 22.5 t22.5 -5q8 -8 7 -20.5t-6 -25.5t-12 -24.5t-12 -19.5q-4 -10 -11 -21.5t-7 -23.5l66 33q14 6 35.5 10t40 1t31.5 -13.5t13 -34.5q2 -37 -16 -72t-46 -67.5t-60.5 -59t-59.5 -47.5q-10 -6 -28.5 -21.5t-40 -27.5t-42 -16.5t-32.5 10.5z" />
<glyph unicode="&#xb9;" horiz-adv-x="235" d="M84 827.5q0 20.5 1 40t1 33.5q-2 59 1 118.5l6 119t3 119t-10 118.5q-6 14 0 27q2 12 12.5 16t20.5 -2q12 -8 16 -26.5t4 -40t-2 -42t-2 -32.5q0 -100 -10 -198.5t0 -198.5q0 -6 5 -31t6 -49.5t-5 -39t-27 2.5q-12 8 -16 26.5t-4 39z" />
<glyph unicode="&#xba;" horiz-adv-x="458" d="M-6 1102v16q0 35 9 64.5t24 58.5q4 6 15 21.5t25.5 26.5t28 14.5t23.5 -13.5q6 -10 1 -19t-14.5 -19.5t-20.5 -18.5t-15 -14q-12 -12 -18.5 -34t-10.5 -38q-6 -33 0 -66.5t21.5 -64.5t40 -55.5t55.5 -38.5q57 -25 106 -10.5t83 52t50.5 90t8.5 103.5q-10 59 -49.5 97 t-90.5 62.5t-107.5 40t-105.5 29.5q123 10 226 -34q63 -29 110 -75t62 -112q16 -72 -8.5 -141.5t-84.5 -114.5q-59 -47 -121.5 -48t-114.5 30t-88 87t-40 124z" />
<glyph unicode="&#xbb;" horiz-adv-x="671" d="M33 615.5q10 19.5 31.5 38t45 33.5t27.5 20q23 18 49.5 33.5t53 33t50 35.5t42.5 41q-23 23 -57.5 33t-63.5 22q-12 6 -31.5 13.5t-40 18.5t-35 24.5t-16.5 29.5q-2 23 10.5 23t28.5 -9.5t32.5 -21.5t20.5 -16q33 -23 71 -38.5t75 -31.5q16 -6 30.5 -17.5t14.5 -29.5 q0 -16 -11.5 -30.5t-28 -27t-33.5 -21.5t-30 -17q-35 -23 -66.5 -44.5t-60.5 -45.5q-8 -8 -20 -23.5t-25.5 -29t-28 -21.5t-26.5 -2q-18 8 -8 27.5zM260 687q12 15 37 30.5t50.5 28t31.5 14.5q27 14 56.5 26.5t60 25.5t58.5 27.5t48 32.5q-27 18 -63.5 29.5t-67.5 24.5 q-12 6 -34.5 13t-44 18.5t-37 23.5t-15.5 27q-2 18 11.5 18t31.5 -9t35.5 -20.5t21.5 -15.5q35 -23 76 -37t78 -31q16 -8 33.5 -17t17.5 -26q-2 -14 -16.5 -26.5t-32.5 -21.5t-38.5 -16t-33.5 -13q-37 -18 -72.5 -35t-70.5 -37q-10 -6 -23.5 -18.5t-29 -23.5t-32 -16 t-28.5 1q-20 8 -8 23z" />
<glyph unicode="&#xbc;" horiz-adv-x="946" d="M71 1360.5q-3 19.5 9 32.5q10 8 18 4t15 -13q16 -23 14 -59.5t0 -62.5q4 -55 5 -110.5t3 -111.5q2 -49 9.5 -96t13.5 -96q4 -18 -2 -29.5t-15.5 -13.5t-18.5 6t-13 29l-7 100q-8 96 -6 194.5t-18 192.5q-4 14 -7 33.5zM96 289q-10 47 0 97t23 93q53 193 155.5 371 t233.5 321q27 29 51.5 57.5t50.5 53.5q8 8 22.5 14.5t27 6.5t17.5 -8.5t-7 -26.5q-10 -16 -25.5 -26.5t-28.5 -22.5q-20 -16 -38.5 -36t-34.5 -40q-88 -98 -161 -209t-136 -227q-25 -47 -49.5 -99.5t-46 -108t-36 -110.5t-14.5 -110q-2 0 -2 2q-2 2 -2 8zM487 948v10 q-4 12 4.5 19.5t20.5 5.5q8 -2 15.5 -11t11.5 -16q16 -29 16 -65.5v-71.5h-2q0 -41 -5 -82t-9 -82q0 -16 -3.5 -35.5t-3.5 -39t4.5 -37t14.5 -29.5q14 -18 47 -8t68.5 33.5t66.5 49t41 38.5q-2 29 -2 58.5v57.5q0 29 -1 56.5t3 56.5q0 8 6 17.5t13.5 15.5t14.5 4t13 -14 q10 -23 1 -54.5t-11 -54.5q-4 -27 -2 -53.5t2 -52.5q10 6 25.5 9t19.5 -16q4 -18 -12.5 -33.5t-28.5 -25.5q6 -90 17.5 -179t33.5 -179q4 -12 5 -29.5t-9 -28.5q-18 -14 -33 8q-16 25 -16 66t-6 70q-8 61 -15.5 123.5t-11.5 123.5l-45 -30q-27 -18 -64.5 -40t-74.5 -29 t-63.5 8.5t-32.5 70.5t2 110.5t12 112.5q4 41 0 80q-2 29 -10 49.5t-17 42.5z" />
<glyph unicode="&#xbd;" horiz-adv-x="995" d="M107.5 1360.5q-3.5 19.5 9.5 32.5q8 8 17 4t16 -13q16 -23 13 -59.5t1 -62.5q4 -55 4 -110.5t4 -111.5q2 -49 8 -96t13 -96q4 -18 -1.5 -29.5t-14.5 -13.5t-19.5 6t-14.5 29l-6 100q-8 96 -4.5 194.5t-19.5 192.5q-2 14 -5.5 33.5zM132 386q9 50 24 93q51 193 154.5 371 t234.5 321q25 29 49 57.5t53 53.5q8 8 22.5 14.5t26 6.5t16.5 -8.5t-7 -26.5q-10 -16 -24.5 -26.5t-27.5 -22.5q-23 -16 -41 -36t-34 -40q-88 -98 -161 -209t-134 -227q-25 -47 -50.5 -99.5t-47 -108t-36 -110.5t-14.5 -110q-2 0 -2 2v8q-10 47 -1 97zM431 142.5 q3 13.5 13.5 26.5t23.5 24.5t19 17.5q39 47 74 94t66 98q78 109 125 230q8 20 18 48t14 55.5t2 55t-18 48.5q-12 20 -41 24q-27 8 -53.5 2t-51 -19t-44 -33.5t-31.5 -43.5q-4 -6 -7 -23.5t-9.5 -34t-15.5 -25.5t-23 1q-18 20 -10.5 49t27 55.5t44.5 48t39 31.5 q20 14 50 23.5t59.5 10.5t55 -9t42.5 -35q23 -31 25.5 -70.5t-6.5 -80.5t-24.5 -79t-29.5 -69q-35 -76 -80 -147.5t-94 -136.5q57 35 120.5 57t133.5 24q27 0 54.5 1t51.5 -9q8 -4 16.5 -11t12.5 -14.5t1 -15.5t-17 -10q-29 -4 -57.5 8.5t-57.5 12.5q-27 0 -53.5 -3.5 t-53.5 -13.5q-57 -16 -110 -45t-96 -70q-8 -6 -18.5 -20t-23 -26.5t-26 -20.5t-25.5 -2q-14 8 -11 21.5z" />
<glyph unicode="&#xbe;" horiz-adv-x="1257" d="M22.5 1338.5q-4.5 7.5 1 18.5t14.5 22.5t15 15.5q29 16 60.5 24t62.5 13q33 6 84 5t99.5 -13.5t84 -40t37.5 -76.5q2 -33 -13 -63t-40 -55.5t-53.5 -47t-52.5 -35.5q-20 -14 -39 -24.5t-37 -20.5l92 -23q25 -6 69 -19t81.5 -34.5t60 -52.5t6.5 -70q-6 -25 -30.5 -38 t-55.5 -18t-61.5 -5h-49.5q-49 4 -102 15t-92 42q-27 20 -34 47t11 56q14 23 37 34t49 17q-16 -12 -32.5 -30.5t-26.5 -37.5q-6 -14 -2 -31q8 -16 18 -24q27 -18 72 -31.5t94 -17.5t92 4t66 35q10 18 -2 33.5t-33.5 27.5t-45.5 21.5t-34 13.5q-39 16 -75.5 24.5t-77.5 14.5 q-6 0 -21.5 1t-31 4t-26.5 10t-9 22q-2 14 12 24t33.5 18.5t39 13.5t29.5 9q33 16 61.5 38t57.5 44q10 10 23.5 26.5t23.5 35t13.5 37t-9.5 34.5q-16 25 -43.5 39t-60.5 21.5t-67 8.5t-58 -1q-29 -4 -58.5 -11.5t-52.5 -23.5q-12 -8 -24.5 -16.5t-26.5 -12.5 q-18 -4 -22.5 3.5zM431 386q9 50 22 93q53 193 156.5 371t234.5 321q25 29 49.5 57.5t52.5 53.5q8 8 22.5 14.5t26 6.5t16.5 -8.5t-7 -26.5q-10 -16 -24.5 -26.5t-29.5 -22.5q-20 -16 -38.5 -36t-34.5 -40q-88 -98 -161 -209t-136 -227q-25 -47 -49.5 -99.5t-46 -108 t-36 -110.5t-14.5 -110q-2 0 -2 2v8q-10 47 -1 97zM821 948v10q-4 29 25 25q8 -2 16 -11t12 -16q14 -29 15.5 -65.5t1.5 -71.5h-4q0 -41 -4 -82t-9 -82q-2 -16 -4 -35.5t-3 -39t3 -37t15 -29.5q14 -18 48 -8t68.5 33.5t65.5 49t41 38.5q-2 29 -2 58.5v57.5q0 29 -1 56.5 t3 56.5q2 8 7 17.5t13.5 15.5t15.5 4t11 -14q10 -23 1 -54.5t-11 -54.5q-2 -27 -1 -53.5t1 -52.5q10 6 26.5 9t20.5 -16q4 -18 -12.5 -33.5t-28.5 -25.5q6 -90 16.5 -179t32.5 -179q4 -12 6 -29.5t-8 -28.5q-20 -14 -35 8q-16 25 -15 66t-5 70q-10 61 -17.5 123.5 t-11.5 123.5l-45 -30q-27 -18 -64.5 -40t-73.5 -29t-63.5 8.5t-31.5 70.5q-6 55 1 110.5t11 112.5q6 41 0 80q-2 29 -10.5 49.5t-16.5 42.5z" />
<glyph unicode="&#xbf;" horiz-adv-x="520" d="M-2 529.5q6 37.5 23.5 75.5t41 74t37.5 60q39 66 81 131.5t69 137.5q8 18 9 38.5t9 40.5q4 14 16.5 22.5t22.5 -7.5q8 -10 7 -24.5t-5 -26.5q-10 -41 -31.5 -82t-41.5 -80q-29 -49 -60 -99.5t-63 -99.5q-12 -20 -27.5 -43.5t-28 -50.5t-19.5 -52.5t-1 -49.5l4 -11l8 -8 q27 -16 56.5 -14t59.5 14t55.5 30.5t45.5 35.5q41 37 75 84t54 98q14 41 14.5 66.5t-6.5 66.5q-4 12 0.5 29.5t24.5 9.5q12 -4 18.5 -17.5t10.5 -23.5q6 -47 -8.5 -94t-36.5 -88q-23 -41 -65 -95.5t-94 -95.5t-110.5 -57t-111.5 18q-6 4 -11.5 9.5l-9.5 9.5q-18 31 -12 68.5 zM49 1236.5q-2 16.5 5 34t20.5 33t25.5 25.5q25 20 60 44t74.5 41.5t79.5 23.5t73 -6q6 -5 16 -15q25 -25 17 -55.5t-30.5 -60t-51.5 -54t-45 -37.5q-29 -18 -68 -41.5t-75 -27.5q-10 0 -21.5 3t-15.5 19q-2 18 19.5 25.5t31.5 9.5q29 8 63.5 25.5t65.5 42t53.5 55.5 t24.5 63l-2 2q-20 8 -46 4t-52.5 -14t-50 -23.5t-40.5 -21.5q-29 -14 -54.5 -33.5t-37.5 -48.5l4 -4q14 -6 34.5 -3t37.5 7q25 6 48.5 7t45.5 4q-35 -27 -86 -46.5t-98 -3.5q-23 10 -25 26.5z" />
<glyph unicode="&#xc0;" horiz-adv-x="1345" d="M31 719q2 18 14 32.5t27 26.5q63 57 148 87t167 48q86 23 173 35.5t177 18.5q35 78 69 157.5t62 159.5q2 8 9.5 39t16.5 63.5t20.5 56t25.5 21.5q14 6 32.5 -23.5t35 -70.5t28 -79t15.5 -46q25 -70 46 -141.5t40 -142.5q66 -6 104.5 -11.5t69.5 -15.5q6 -2 15 -8 t15.5 -13.5t5.5 -14.5t-14 -13q-16 -10 -39.5 -2t-40.5 14q-27 10 -59.5 13t-42.5 3q18 -68 34.5 -134t37 -132.5t46 -132t60.5 -127.5q29 -53 65 -104.5t81 -92.5q14 -16 28.5 -29.5t30.5 -23.5t36.5 -15t31.5 -22q8 -8 7 -18t-12 -14q-25 -10 -54.5 7t-57 42.5t-51 53.5 t-33.5 40q-63 78 -107.5 163t-77 175t-58 183t-50.5 188q-141 10 -293 6q-43 -92 -92 -179.5t-100 -175.5q-6 -10 -18.5 -35.5t-28 -52t-32 -43t-30.5 -6.5q-12 4 -5 29.5t21.5 56.5t29.5 59.5t20 36.5q35 74 69.5 150t69.5 154q-115 -6 -228.5 -26t-224.5 -56 q-25 -8 -53.5 -19.5t-56 -26t-51 -34t-35.5 -43.5q39 -16 93 -15.5t95 7.5q-14 -4 -53 -13.5t-79 -14.5t-69.5 2t-25.5 38zM575 569q35 55 67 112t63 112q16 35 33.5 66.5t33.5 62.5h-43q-41 -86 -81 -173t-73 -180zM641 1909q35 -16 61.5 -36t55.5 -40q59 -47 116.5 -98.5 t112.5 -102.5q6 -6 26.5 -18t40 -26.5t31 -30t2.5 -29.5q-10 -16 -28.5 -11t-36.5 20t-33.5 32.5t-23.5 23.5q-59 51 -115.5 105.5t-112.5 111.5q-18 20 -40 39.5t-40 42.5q-4 10 -16 17zM750 967q12 0 23 1t24 1l59 139q16 37 31 88q4 23 6 41t29 31q16 8 17 -8.5t-4 -40 t-12.5 -46t-7.5 -24.5q-18 -47 -36 -91t-41 -89q66 4 130 2t130 -6q-31 111 -65 222t-91 212q-49 -106 -96 -215t-96 -217z" />
<glyph unicode="&#xc1;" horiz-adv-x="1345" d="M31 719q2 18 14 32.5t27 26.5q63 57 148 87t167 48q86 23 173 35.5t177 18.5q35 78 69 157.5t62 159.5q2 8 9.5 39t16.5 63.5t20.5 56t25.5 21.5q14 6 32.5 -23.5t35 -70.5t28 -79t15.5 -46q25 -70 46 -141.5t40 -142.5q66 -6 104.5 -11.5t69.5 -15.5q6 -2 15 -8 t15.5 -13.5t5.5 -14.5t-14 -13q-16 -10 -39.5 -2t-40.5 14q-27 10 -59.5 13t-42.5 3q18 -68 34.5 -134t37 -132.5t46 -132t60.5 -127.5q29 -53 65 -104.5t81 -92.5q14 -16 28.5 -29.5t30.5 -23.5t36.5 -15t31.5 -22q8 -8 7 -18t-12 -14q-25 -10 -54.5 7t-57 42.5t-51 53.5 t-33.5 40q-63 78 -107.5 163t-77 175t-58 183t-50.5 188q-141 10 -293 6q-43 -92 -92 -179.5t-100 -175.5q-6 -10 -18.5 -35.5t-28 -52t-32 -43t-30.5 -6.5q-12 4 -5 29.5t21.5 56.5t29.5 59.5t20 36.5q35 74 69.5 150t69.5 154q-115 -6 -228.5 -26t-224.5 -56 q-25 -8 -53.5 -19.5t-56 -26t-51 -34t-35.5 -43.5q39 -16 93 -15.5t95 7.5q-14 -4 -53 -13.5t-79 -14.5t-69.5 2t-25.5 38zM575 569q35 55 67 112t63 112q16 35 33.5 66.5t33.5 62.5h-43q-41 -86 -81 -173t-73 -180zM750 967q12 0 23 1t24 1l59 139q16 37 31 88q4 23 6 41 t29 31q16 8 17 -8.5t-4 -40t-12.5 -46t-7.5 -24.5q-18 -47 -36 -91t-41 -89q66 4 130 2t130 -6q-31 111 -65 222t-91 212q-49 -106 -96 -215t-96 -217zM788.5 1563.5q-4.5 9.5 2 21.5t22.5 21q25 10 49.5 18t50.5 21l107 49l276 133q-25 -23 -52 -43.5t-56 -40.5 q-63 -41 -131 -78t-135 -68q-23 -10 -43 -22.5t-43 -22.5q-18 -6 -30.5 -2t-17 13.5z" />
<glyph unicode="&#xc2;" horiz-adv-x="1345" d="M31 719q2 18 14 32.5t27 26.5q63 57 148 87t167 48q86 23 173 35.5t177 18.5q35 78 69 157.5t62 159.5q2 8 9.5 39t16.5 63.5t20.5 56t25.5 21.5q14 6 32.5 -23.5t35 -70.5t28 -79t15.5 -46q25 -70 46 -141.5t40 -142.5q66 -6 104.5 -11.5t69.5 -15.5q6 -2 15 -8 t15.5 -13.5t5.5 -14.5t-14 -13q-16 -10 -39.5 -2t-40.5 14q-27 10 -59.5 13t-42.5 3q18 -68 34.5 -134t37 -132.5t46 -132t60.5 -127.5q29 -53 65 -104.5t81 -92.5q14 -16 28.5 -29.5t30.5 -23.5t36.5 -15t31.5 -22q8 -8 7 -18t-12 -14q-25 -10 -54.5 7t-57 42.5t-51 53.5 t-33.5 40q-63 78 -107.5 163t-77 175t-58 183t-50.5 188q-141 10 -293 6q-43 -92 -92 -179.5t-100 -175.5q-6 -10 -18.5 -35.5t-28 -52t-32 -43t-30.5 -6.5q-12 4 -5 29.5t21.5 56.5t29.5 59.5t20 36.5q35 74 69.5 150t69.5 154q-115 -6 -228.5 -26t-224.5 -56 q-25 -8 -53.5 -19.5t-56 -26t-51 -34t-35.5 -43.5q39 -16 93 -15.5t95 7.5q-14 -4 -53 -13.5t-79 -14.5t-69.5 2t-25.5 38zM575 569q35 55 67 112t63 112q16 35 33.5 66.5t33.5 62.5h-43q-41 -86 -81 -173t-73 -180zM750 967q12 0 23 1t24 1l59 139q16 37 31 88q4 23 6 41 t29 31q16 8 17 -8.5t-4 -40t-12.5 -46t-7.5 -24.5q-18 -47 -36 -91t-41 -89q66 4 130 2t130 -6q-31 111 -65 222t-91 212q-49 -106 -96 -215t-96 -217zM807 1526q-10 27 5 53.5t26 48.5q35 72 77 137q4 8 11.5 25.5t18.5 34t23.5 26t26.5 0.5q14 -4 16.5 -17t-0.5 -29.5 t-7.5 -34t-2.5 -27.5q2 -25 9.5 -53.5t25.5 -51.5q10 -14 25.5 -33.5t15.5 -37.5q0 -14 -6 -18.5t-15 -2.5t-17.5 8.5t-12.5 12.5q-10 14 -17.5 30.5t-13.5 32.5q-25 53 -32 111q0 6 -2.5 10t-2.5 8q-35 -37 -61.5 -91t-40.5 -107q0 -6 -3 -16.5t-8 -19.5t-12.5 -13.5 t-19.5 1.5z" />
<glyph unicode="&#xc3;" horiz-adv-x="1345" d="M31 719q2 18 14 32.5t27 26.5q63 57 148 87t167 48q86 23 173 35.5t177 18.5q35 78 69 157.5t62 159.5q2 8 9.5 39t16.5 63.5t20.5 56t25.5 21.5q14 6 32.5 -23.5t35 -70.5t28 -79t15.5 -46q25 -70 46 -141.5t40 -142.5q66 -6 104.5 -11.5t69.5 -15.5q6 -2 15 -8 t15.5 -13.5t5.5 -14.5t-14 -13q-16 -10 -39.5 -2t-40.5 14q-27 10 -59.5 13t-42.5 3q18 -68 34.5 -134t37 -132.5t46 -132t60.5 -127.5q29 -53 65 -104.5t81 -92.5q14 -16 28.5 -29.5t30.5 -23.5t36.5 -15t31.5 -22q8 -8 7 -18t-12 -14q-25 -10 -54.5 7t-57 42.5t-51 53.5 t-33.5 40q-63 78 -107.5 163t-77 175t-58 183t-50.5 188q-141 10 -293 6q-43 -92 -92 -179.5t-100 -175.5q-6 -10 -18.5 -35.5t-28 -52t-32 -43t-30.5 -6.5q-12 4 -5 29.5t21.5 56.5t29.5 59.5t20 36.5q35 74 69.5 150t69.5 154q-115 -6 -228.5 -26t-224.5 -56 q-25 -8 -53.5 -19.5t-56 -26t-51 -34t-35.5 -43.5q39 -16 93 -15.5t95 7.5q-14 -4 -53 -13.5t-79 -14.5t-69.5 2t-25.5 38zM575 569q35 55 67 112t63 112q16 35 33.5 66.5t33.5 62.5h-43q-41 -86 -81 -173t-73 -180zM736 1620q3 27 10.5 52.5t9.5 31.5q16 43 39.5 69.5 t51 30.5t57.5 -17.5t61 -72.5q14 -25 33.5 -57.5t40 -54t42 -22.5t41.5 40q8 14 21.5 35.5t36.5 23.5q23 0 21.5 -16t-12.5 -37.5t-25.5 -40t-18.5 -20.5q-35 -33 -65.5 -29t-57.5 28.5t-51.5 63.5t-48.5 76q-20 33 -43 43t-42.5 2t-34 -33.5t-20.5 -68.5q-2 -16 -3 -42 t-19 -38q-18 -10 -22.5 8t-1.5 45zM750 967q12 0 23 1t24 1l59 139q16 37 31 88q4 23 6 41t29 31q16 8 17 -8.5t-4 -40t-12.5 -46t-7.5 -24.5q-18 -47 -36 -91t-41 -89q66 4 130 2t130 -6q-31 111 -65 222t-91 212q-49 -106 -96 -215t-96 -217z" />
<glyph unicode="&#xc4;" horiz-adv-x="1345" d="M31 719q2 18 14 32.5t27 26.5q63 57 148 87t167 48q86 23 173 35.5t177 18.5q35 78 69 157.5t62 159.5q2 8 9.5 39t16.5 63.5t20.5 56t25.5 21.5q14 6 32.5 -23.5t35 -70.5t28 -79t15.5 -46q25 -70 46 -141.5t40 -142.5q66 -6 104.5 -11.5t69.5 -15.5q6 -2 15 -8 t15.5 -13.5t5.5 -14.5t-14 -13q-16 -10 -39.5 -2t-40.5 14q-27 10 -59.5 13t-42.5 3q18 -68 34.5 -134t37 -132.5t46 -132t60.5 -127.5q29 -53 65 -104.5t81 -92.5q14 -16 28.5 -29.5t30.5 -23.5t36.5 -15t31.5 -22q8 -8 7 -18t-12 -14q-25 -10 -54.5 7t-57 42.5t-51 53.5 t-33.5 40q-63 78 -107.5 163t-77 175t-58 183t-50.5 188q-141 10 -293 6q-43 -92 -92 -179.5t-100 -175.5q-6 -10 -18.5 -35.5t-28 -52t-32 -43t-30.5 -6.5q-12 4 -5 29.5t21.5 56.5t29.5 59.5t20 36.5q35 74 69.5 150t69.5 154q-115 -6 -228.5 -26t-224.5 -56 q-25 -8 -53.5 -19.5t-56 -26t-51 -34t-35.5 -43.5q39 -16 93 -15.5t95 7.5q-14 -4 -53 -13.5t-79 -14.5t-69.5 2t-25.5 38zM575 569q35 55 67 112t63 112q16 35 33.5 66.5t33.5 62.5h-43q-41 -86 -81 -173t-73 -180zM750 967q12 0 23 1t24 1l59 139q16 37 31 88q4 23 6 41 t29 31q16 8 17 -8.5t-4 -40t-12.5 -46t-7.5 -24.5q-18 -47 -36 -91t-41 -89q66 4 130 2t130 -6q-31 111 -65 222t-91 212q-49 -106 -96 -215t-96 -217zM764 1821q16 -20 31.5 -41t31.5 -39q20 -23 46 -42.5t40 -37.5q12 -18 4 -33.5t-30 -11.5q-25 6 -36 24.5t-24 36.5 q-16 20 -32.5 46t-26.5 55zM957.5 1785.5q-3.5 16.5 0 28t21.5 7.5q10 -4 15 -14.5t8.5 -22.5t5.5 -24.5t6 -20.5q10 -23 21.5 -48.5t25.5 -41.5q2 -2 11 -11.5t15.5 -20.5t6.5 -20.5t-17 -11.5q-16 -2 -27.5 5t-19.5 19.5t-13 26t-11 25.5q-18 47 -23.5 57.5t-9.5 14.5 l-7 21t-8.5 31.5z" />
<glyph unicode="&#xc5;" horiz-adv-x="1345" d="M31 719q2 18 14 32.5t27 26.5q63 57 148 87t167 48q86 23 173 35.5t177 18.5q35 78 69 157.5t62 159.5q2 6 6.5 22.5t8.5 38t10 44t14 38.5q-12 0 -24.5 -1t-26.5 -1q-47 -2 -100.5 0t-93.5 29q-29 16 -34 35.5t4 39t28.5 35t39.5 25.5q63 31 135 39t144 4 q-47 -6 -97.5 -15t-97.5 -26q-31 -10 -65.5 -25.5t-52.5 -43.5q-10 -14 -2 -24.5t22 -16.5t31.5 -9.5t25.5 -5.5q78 -8 161 3.5t155 35.5q25 8 52.5 18.5t54 26t48 35t33.5 43.5q2 0 1 5t-1 3q-6 20 -30.5 32.5t-55.5 20t-61.5 10.5t-46.5 3q-129 18 -256 -2 q-41 -6 -92.5 -21.5t-77.5 -54.5q-14 -20 -11.5 -39.5t0.5 -42.5q0 -12 -10 -17t-20 1q-13 4 -17 18q0 4 -1 6t-1 6q-10 37 6.5 67t44 51.5t62.5 36.5t63 22q104 29 222 25.5t223 -34.5q31 -10 56.5 -26.5t37.5 -36t8 -44t-28 -50.5q-55 -55 -131 -85t-154 -44 q12 -20 24.5 -51t22.5 -60t17.5 -52.5t9.5 -29.5q25 -70 46 -141.5t40 -142.5q66 -6 104.5 -11.5t69.5 -15.5q6 -2 15 -8t15.5 -13.5t5.5 -14.5t-14 -13q-16 -10 -39.5 -2t-40.5 14q-27 10 -59.5 13t-42.5 3q18 -68 34.5 -134t37 -132.5t46 -132t60.5 -127.5 q29 -53 65 -104.5t81 -92.5q14 -16 28.5 -29.5t30.5 -23.5t36.5 -15t31.5 -22q8 -8 7 -18t-12 -14q-25 -10 -54.5 7t-57 42.5t-51 53.5t-33.5 40q-63 78 -107.5 163t-77 175t-58 183t-50.5 188q-141 10 -293 6q-43 -92 -92 -179.5t-100 -175.5q-6 -10 -18.5 -35.5t-28 -52 t-32 -43t-30.5 -6.5q-12 4 -5 29.5t21.5 56.5t29.5 59.5t20 36.5q35 74 69.5 150t69.5 154q-115 -6 -228.5 -26t-224.5 -56q-25 -8 -53.5 -19.5t-56 -26t-51 -34t-35.5 -43.5q39 -16 93 -15.5t95 7.5q-14 -4 -53 -13.5t-79 -14.5t-69.5 2t-25.5 38zM575 569q35 55 67 112 t63 112q16 35 33.5 66.5t33.5 62.5h-43q-41 -86 -81 -173t-73 -180zM750 967q12 0 23 1t24 1l59 139q16 37 31 88q4 23 6 41t29 31q16 8 17 -8.5t-4 -40t-12.5 -46t-7.5 -24.5q-18 -47 -36 -91t-41 -89q66 4 130 2t130 -6q-31 111 -65 222t-91 212q-49 -106 -96 -215 t-96 -217z" />
<glyph unicode="&#xc6;" horiz-adv-x="1763" d="M31 719q2 18 14 32.5t27 26.5q63 57 148 87t167 48q86 23 173 35.5t177 18.5q35 78 69 157.5t62 159.5v2q0 2 2 4h-8l-166 -41q-6 -2 -19 -3t-24.5 2t-16.5 9.5t3 18.5q6 10 31.5 17t55.5 12.5t57.5 8.5t39.5 7l43 8q8 0 13 2q6 20 12 45t13 45.5t16.5 32.5t19.5 10 q16 6 34.5 -26.5t35.5 -73.5q141 35 281.5 57.5t283.5 5.5q41 -2 81 -5t81 -13q6 -2 14 -8t13 -13.5t4 -14.5t-13 -13q-18 -10 -39.5 0t-40.5 16q-49 14 -105.5 18.5t-109.5 4.5q-111 0 -219 -21.5t-217 -48.5l27 -84q25 -70 46 -141.5t40 -142.5q111 -10 215 -35t182 -54 q8 -2 17.5 -8t14.5 -13t4 -14.5t-14 -13.5q-16 -10 -39.5 -1t-39.5 16q-88 33 -174 54t-152 21q25 -98 48.5 -195t62.5 -192q16 -6 32.5 -10t32.5 -8l47 -8q86 -16 179.5 -24.5t179.5 1.5q16 2 40.5 5t34.5 -13q6 -8 3 -17.5t-11 -13.5q-29 -14 -68.5 -8t-66.5 6 q-80 2 -154.5 8.5t-150.5 22.5l-43 8l-35 4q10 -23 21.5 -46t25.5 -46q29 -53 65 -104.5t81 -92.5q14 -16 28.5 -29.5t30.5 -23.5t36.5 -15t31.5 -22q8 -8 7 -18t-12 -14q-25 -10 -54.5 7t-57 42.5t-51 53.5t-33.5 40q-53 66 -93 137.5t-73 145.5q-25 6 -50.5 16t-41.5 29 q-10 10 -8 24.5t20 14.5q12 2 26.5 -6.5t24.5 -16.5l11 -8q-35 92 -58.5 184t-50.5 189q-141 10 -293 6q-43 -92 -92 -179.5t-100 -175.5q-6 -10 -18.5 -35.5t-28 -52t-32 -43t-30.5 -6.5q-12 4 -5 29.5t21.5 56.5t29.5 59.5t20 36.5q35 74 69.5 150t69.5 154 q-115 -6 -228.5 -26t-224.5 -56q-25 -8 -53.5 -19.5t-56 -26t-51 -34t-35.5 -43.5q39 -16 93 -15.5t95 7.5q-14 -4 -53 -13.5t-79 -14.5t-69.5 2t-25.5 38zM575 569q35 55 67 112t63 112q16 35 33.5 66.5t33.5 62.5h-43q-41 -86 -81 -173t-73 -180zM750 967q12 0 23 1t24 1 l59 139q16 37 31 88q4 23 6 41t29 31q16 8 17 -8.5t-4 -40t-12.5 -46t-7.5 -24.5q-18 -47 -36 -91t-41 -89q66 4 130 2t130 -6q-25 90 -51.5 178t-65.5 174l-86 -19zM915 1339l50 15l-23 45z" />
<glyph unicode="&#xc7;" horiz-adv-x="1587" d="M30 847q7 79 40 159q68 160 199.5 276.5t293.5 167.5q86 29 178.5 39t182.5 -1t173 -48t150 -101q27 -25 49.5 -57.5t31.5 -67t0 -69.5t-46 -66q-12 -10 -38.5 -21t-55.5 -19.5t-58.5 -9.5t-48.5 9q-18 10 -15 27.5t26 19.5q16 0 29.5 -3t29.5 -5q16 0 33.5 2t34.5 8 q47 16 66.5 54.5t2.5 79.5q-29 72 -90 118.5t-136 73.5t-155 36t-147 5q-102 -8 -199.5 -44t-182.5 -93t-153.5 -136t-111.5 -173q-25 -51 -37.5 -107.5t-10 -112t21.5 -107.5t63 -95q39 -41 88 -67.5t103 -44t111.5 -26t110.5 -12.5q111 -8 226.5 1t228 34t220.5 66t206 96 q23 12 53.5 35.5t52.5 23.5q23 0 23 -15t-10 -26q-12 -12 -29.5 -19t-32.5 -16q-90 -47 -180 -85.5t-188 -67.5v4q-76 -23 -158 -40t-168 -28q4 -18 -8.5 -39.5t-18.5 -31.5q-4 -10 -12 -22.5t-8 -24.5l67 32q14 6 36 11.5t40.5 2.5t31.5 -13.5t13 -34.5q0 -37 -18.5 -73 t-46 -68t-59 -59.5t-58.5 -45.5q-10 -6 -28.5 -21.5t-40 -28t-42 -16.5t-32.5 10q-10 12 5 25.5t37.5 25t45 20.5t30.5 15q59 41 105.5 93.5t66.5 122.5l-4 4l-6 6q-12 6 -26.5 3t-24.5 -7t-30.5 -20.5t-42 -31t-42 -22.5t-28.5 4q-12 6 -13.5 19.5t5 27.5t14.5 28.5 t12 20.5q2 2 4 8q2 4 4 9.5t6 15.5q0 6 3.5 20.5t13.5 30.5q-135 -10 -263 5.5t-243 68.5q-84 39 -135 98.5t-72.5 130t-14.5 149.5z" />
<glyph unicode="&#xc8;" horiz-adv-x="978" d="M28 882.5q-3 14.5 13 20.5q12 6 27.5 4t27.5 -6q35 -4 66 -3t65 5q-4 88 -2 174t-4 174l-112 -53q-6 -4 -18.5 -6t-24 -2t-18.5 6t-1 21q6 10 29.5 21t51.5 22.5t54.5 19.5t36.5 12q-2 10 -7 37t-9 54.5t-4 49t12 25.5q16 6 25.5 -12.5t14.5 -45t7 -53t2 -38.5 q82 37 164 74.5t166 70.5t171 56.5t177 31.5q39 4 79 9t81 1q6 0 16 -4t16.5 -10t7.5 -13t-10 -16q-16 -12 -40.5 -8t-43.5 8q-51 4 -106 -3t-109 -17q-150 -29 -288 -92.5t-279 -124.5q6 -47 6 -92l6 -269q86 18 175.5 45t166.5 72q14 8 35 18.5t37 0.5q20 -14 2 -33 q-18 -23 -58 -33t-65 -20q-72 -27 -145.5 -48.5t-147.5 -38.5q4 -66 15.5 -144.5t41 -146t83 -112.5t141.5 -43q100 0 170 51t115 130t69.5 171t36.5 172q2 -72 -6 -143.5t-37 -136.5q-27 -74 -80 -139.5t-122.5 -105.5t-148.5 -44t-155 47q-51 35 -82.5 86t-49 109.5 t-26 121t-10.5 119.5l-53 -8q-31 -2 -66.5 -5t-64.5 9q-14 6 -17 20.5zM209 1841q35 -6 67.5 -16t67.5 -21q72 -29 140.5 -59.5t138.5 -61.5q8 -4 30.5 -9t45 -13t38 -20.5t11.5 -26.5q-4 -18 -22.5 -18.5t-41 9t-43 20.5t-29.5 15q-72 29 -142.5 64t-139.5 74 q-23 14 -49.5 25.5t-51.5 27.5q-6 10 -20 10z" />
<glyph unicode="&#xc9;" horiz-adv-x="978" d="M28 882.5q-3 14.5 13 20.5q12 6 27.5 4t27.5 -6q35 -4 66 -3t65 5q-4 88 -2 174t-4 174l-112 -53q-6 -4 -18.5 -6t-24 -2t-18.5 6t-1 21q6 10 29.5 21t51.5 22.5t54.5 19.5t36.5 12q-2 10 -7 37t-9 54.5t-4 49t12 25.5q16 6 25.5 -12.5t14.5 -45t7 -53t2 -38.5 q82 37 164 74.5t166 70.5t171 56.5t177 31.5q39 4 79 9t81 1q6 0 16 -4t16.5 -10t7.5 -13t-10 -16q-16 -12 -40.5 -8t-43.5 8q-51 4 -106 -3t-109 -17q-150 -29 -288 -92.5t-279 -124.5q6 -47 6 -92l6 -269q86 18 175.5 45t166.5 72q14 8 35 18.5t37 0.5q20 -14 2 -33 q-18 -23 -58 -33t-65 -20q-72 -27 -145.5 -48.5t-147.5 -38.5q4 -66 15.5 -144.5t41 -146t83 -112.5t141.5 -43q100 0 170 51t115 130t69.5 171t36.5 172q2 -72 -6 -143.5t-37 -136.5q-27 -74 -80 -139.5t-122.5 -105.5t-148.5 -44t-155 47q-51 35 -82.5 86t-49 109.5 t-26 121t-10.5 119.5l-53 -8q-31 -2 -66.5 -5t-64.5 9q-14 6 -17 20.5zM410 1588q-4 9 2 21.5t22 20.5q25 10 49.5 18.5t51.5 20.5l106 49l277 133q-25 -23 -51.5 -43t-55.5 -39q-66 -41 -133.5 -78.5t-134.5 -68.5q-23 -10 -43 -22.5t-43 -22.5q-18 -6 -30.5 -2t-16.5 13z " />
<glyph unicode="&#xca;" horiz-adv-x="978" d="M28 882.5q-3 14.5 13 20.5q12 6 27.5 4t27.5 -6q35 -4 66 -3t65 5q-4 88 -2 174t-4 174l-112 -53q-6 -4 -18.5 -6t-24 -2t-18.5 6t-1 21q6 10 29.5 21t51.5 22.5t54.5 19.5t36.5 12q-2 10 -7 37t-9 54.5t-4 49t12 25.5q16 6 25.5 -12.5t14.5 -45t7 -53t2 -38.5 q82 37 164 74.5t166 70.5t171 56.5t177 31.5q39 4 79 9t81 1q6 0 16 -4t16.5 -10t7.5 -13t-10 -16q-16 -12 -40.5 -8t-43.5 8q-51 4 -106 -3t-109 -17q-150 -29 -288 -92.5t-279 -124.5q6 -47 6 -92l6 -269q86 18 175.5 45t166.5 72q14 8 35 18.5t37 0.5q20 -14 2 -33 q-18 -23 -58 -33t-65 -20q-72 -27 -145.5 -48.5t-147.5 -38.5q4 -66 15.5 -144.5t41 -146t83 -112.5t141.5 -43q100 0 170 51t115 130t69.5 171t36.5 172q2 -72 -6 -143.5t-37 -136.5q-27 -74 -80 -139.5t-122.5 -105.5t-148.5 -44t-155 47q-51 35 -82.5 86t-49 109.5 t-26 121t-10.5 119.5l-53 -8q-31 -2 -66.5 -5t-64.5 9q-14 6 -17 20.5zM373 1565q-10 27 5 53.5t25 48.5q16 35 36 68.5t42 68.5q4 8 11.5 25.5t18.5 34t23.5 25.5t26.5 1q14 -4 16.5 -17t-1 -29.5t-7.5 -34t-2 -27.5q2 -25 9.5 -54.5t25.5 -50.5q10 -14 26.5 -33.5 t16.5 -37.5q0 -14 -7 -18.5t-16.5 -2.5t-17.5 8t-12 13q-10 14 -17.5 30.5t-13.5 32.5q-23 49 -33 111q0 6 -2 10t-2 8q-35 -37 -61.5 -91t-38.5 -108q-2 -6 -5 -16t-8 -19.5t-12.5 -13.5t-19.5 2z" />
<glyph unicode="&#xcb;" horiz-adv-x="978" d="M28 882.5q-3 14.5 13 20.5q12 6 27.5 4t27.5 -6q35 -4 66 -3t65 5q-4 88 -2 174t-4 174l-112 -53q-6 -4 -18.5 -6t-24 -2t-18.5 6t-1 21q6 10 29.5 21t51.5 22.5t54.5 19.5t36.5 12q-2 10 -7 37t-9 54.5t-4 49t12 25.5q16 6 25.5 -12.5t14.5 -45t7 -53t2 -38.5 q82 37 164 74.5t166 70.5t171 56.5t177 31.5q39 4 79 9t81 1q6 0 16 -4t16.5 -10t7.5 -13t-10 -16q-16 -12 -40.5 -8t-43.5 8q-51 4 -106 -3t-109 -17q-150 -29 -288 -92.5t-279 -124.5q6 -47 6 -92l6 -269q86 18 175.5 45t166.5 72q14 8 35 18.5t37 0.5q20 -14 2 -33 q-18 -23 -58 -33t-65 -20q-72 -27 -145.5 -48.5t-147.5 -38.5q4 -66 15.5 -144.5t41 -146t83 -112.5t141.5 -43q100 0 170 51t115 130t69.5 171t36.5 172q2 -72 -6 -143.5t-37 -136.5q-27 -74 -80 -139.5t-122.5 -105.5t-148.5 -44t-155 47q-51 35 -82.5 86t-49 109.5 t-26 121t-10.5 119.5l-53 -8q-31 -2 -66.5 -5t-64.5 9q-14 6 -17 20.5zM309 1780q16 -23 31.5 -42.5t32.5 -37.5q23 -23 48 -42.5t38 -37.5q12 -20 5 -34.5t-30 -10.5q-25 6 -37 24.5t-24 36.5q-16 20 -31.5 45t-26.5 54zM503 1745q-3 16 1 27.5t20 7.5q10 -4 16.5 -14.5 t9.5 -22.5t5 -25.5t6 -21.5q8 -23 20.5 -47.5t26.5 -40.5l11.5 -11.5t15.5 -20.5t5 -20.5t-15 -11.5q-16 -2 -27.5 5t-20 19.5t-13.5 26t-11 25.5q-18 45 -24.5 56.5t-8.5 15.5t-8 20.5t-9 32.5z" />
<glyph unicode="&#xcc;" horiz-adv-x="774" d="M31 1427q-4 10 6 19.5t29 11.5q29 4 59.5 2t58.5 -2q111 0 221.5 -13t221.5 -30q39 -6 76.5 -11t76.5 -9q-39 -8 -76.5 -8.5t-78.5 4.5q-82 2 -164 8t-162 10q-29 2 -53.5 4t-52.5 2q-10 0 -36 -4t-53.5 -6t-49 2t-23.5 20zM117 1935q33 -16 60.5 -36.5t53.5 -40.5 q61 -47 118 -98.5t112 -100.5q8 -6 27.5 -18.5t39 -28t30.5 -30.5t3 -30q-10 -16 -27.5 -10t-36 21.5t-35 33t-22.5 23.5q-61 49 -117.5 103.5t-109.5 111.5q-18 20 -40 39.5t-40 42.5q-8 12 -16 18zM150 412.5q6 17.5 26 15.5q27 0 51.5 -8t46.5 -12q49 -2 98.5 3t98.5 11 q-8 23 -11 47.5t-7 46.5q-16 115 -14.5 230.5t1.5 230.5q0 57 -1 112.5t-7 112.5q-4 27 -10 53.5t-16 51.5q-6 16 -17.5 33.5t-11.5 35.5q-4 12 5 19.5t19 3.5q8 0 13 -8q33 -29 40 -80t13 -90q16 -104 14 -210t-2 -212v-107.5t4 -109.5q4 -35 8.5 -76t20.5 -76 q84 16 171 40t161 65q14 10 31.5 21t37.5 1q16 -6 11.5 -19.5t-15.5 -21.5q-25 -23 -61.5 -31t-65.5 -18q-61 -23 -124.5 -40t-129.5 -32q2 -6 6.5 -15t5.5 -18.5t-2 -16.5t-16 -9q-18 -2 -28.5 16.5t-14.5 34.5q-41 -8 -85 -13t-87 -5q-31 0 -72.5 -1t-70.5 15 q-20 12 -14 29.5z" />
<glyph unicode="&#xcd;" horiz-adv-x="774" d="M31 1427q-4 10 6 19.5t29 11.5q29 4 59.5 2t58.5 -2q111 0 221.5 -13t221.5 -30q39 -6 76.5 -11t76.5 -9q-39 -8 -76.5 -8.5t-78.5 4.5q-82 2 -164 8t-162 10q-29 2 -53.5 4t-52.5 2q-10 0 -36 -4t-53.5 -6t-49 2t-23.5 20zM150 412.5q6 17.5 26 15.5q27 0 51.5 -8 t46.5 -12q49 -2 98.5 3t98.5 11q-8 23 -11 47.5t-7 46.5q-16 115 -14.5 230.5t1.5 230.5q0 57 -1 112.5t-7 112.5q-4 27 -10 53.5t-16 51.5q-6 16 -17.5 33.5t-11.5 35.5q-4 12 5 19.5t19 3.5q8 0 13 -8q33 -29 40 -80t13 -90q16 -104 14 -210t-2 -212v-107.5t4 -109.5 q4 -35 8.5 -76t20.5 -76q84 16 171 40t161 65q14 10 31.5 21t37.5 1q16 -6 11.5 -19.5t-15.5 -21.5q-25 -23 -61.5 -31t-65.5 -18q-61 -23 -124.5 -40t-129.5 -32q2 -6 6.5 -15t5.5 -18.5t-2 -16.5t-16 -9q-18 -2 -28.5 16.5t-14.5 34.5q-41 -8 -85 -13t-87 -5 q-31 0 -72.5 -1t-70.5 15q-20 12 -14 29.5zM288 1580q-3 9 3 21.5t22 20.5q25 10 49.5 18.5t49.5 20.5l108 49l277 133q-25 -23 -52.5 -43t-56.5 -41q-131 -84 -268 -145q-23 -10 -43 -22.5t-43 -22.5q-18 -6 -30.5 -2t-15.5 13z" />
<glyph unicode="&#xce;" horiz-adv-x="774" d="M31 1427q-4 10 6 19.5t29 11.5q29 4 59.5 2t58.5 -2q111 0 221.5 -13t221.5 -30q39 -6 76.5 -11t76.5 -9q-39 -8 -76.5 -8.5t-78.5 4.5q-82 2 -164 8t-162 10q-29 2 -53.5 4t-52.5 2q-10 0 -36 -4t-53.5 -6t-49 2t-23.5 20zM150 412.5q6 17.5 26 15.5q27 0 51.5 -8 t46.5 -12q49 -2 98.5 3t98.5 11q-8 23 -11 47.5t-7 46.5q-16 115 -14.5 230.5t1.5 230.5q0 57 -1 112.5t-7 112.5q-4 27 -10 53.5t-16 51.5q-6 16 -17.5 33.5t-11.5 35.5q-4 12 5 19.5t19 3.5q8 0 13 -8q33 -29 40 -80t13 -90q16 -104 14 -210t-2 -212v-107.5t4 -109.5 q4 -35 8.5 -76t20.5 -76q84 16 171 40t161 65q14 10 31.5 21t37.5 1q16 -6 11.5 -19.5t-15.5 -21.5q-25 -23 -61.5 -31t-65.5 -18q-61 -23 -124.5 -40t-129.5 -32q2 -6 6.5 -15t5.5 -18.5t-2 -16.5t-16 -9q-18 -2 -28.5 16.5t-14.5 34.5q-41 -8 -85 -13t-87 -5 q-31 0 -72.5 -1t-70.5 15q-20 12 -14 29.5zM252 1534q-10 27 5 53.5t26 48.5q16 35 35.5 70t39.5 68q4 8 12.5 25.5t19.5 33.5t23.5 25.5t26.5 1.5q12 -4 14.5 -17.5t0.5 -30t-6.5 -34t-4.5 -27.5q4 -25 11.5 -53.5t25.5 -50.5q10 -14 25.5 -34t15.5 -38q0 -14 -6 -18.5 t-15 -2.5t-17.5 8.5t-12.5 12.5q-10 14 -17.5 30.5t-13.5 32.5q-12 29 -21 55.5t-13 55.5q0 6 -1.5 11t-1.5 9q-35 -39 -62.5 -93t-39.5 -107q0 -6 -3 -16.5t-8 -19.5t-13.5 -13t-18.5 2z" />
<glyph unicode="&#xcf;" horiz-adv-x="774" d="M31 1427q-4 10 6 19.5t29 11.5q29 4 59.5 2t58.5 -2q111 0 221.5 -13t221.5 -30q39 -6 76.5 -11t76.5 -9q-39 -8 -76.5 -8.5t-78.5 4.5q-82 2 -164 8t-162 10q-29 2 -53.5 4t-52.5 2q-10 0 -36 -4t-53.5 -6t-49 2t-23.5 20zM150 412.5q6 17.5 26 15.5q27 0 51.5 -8 t46.5 -12q49 -2 98.5 3t98.5 11q-8 23 -11 47.5t-7 46.5q-16 115 -14.5 230.5t1.5 230.5q0 57 -1 112.5t-7 112.5q-4 27 -10 53.5t-16 51.5q-6 16 -17.5 33.5t-11.5 35.5q-4 12 5 19.5t19 3.5q8 0 13 -8q33 -29 40 -80t13 -90q16 -104 14 -210t-2 -212v-107.5t4 -109.5 q4 -35 8.5 -76t20.5 -76q84 16 171 40t161 65q14 10 31.5 21t37.5 1q16 -6 11.5 -19.5t-15.5 -21.5q-25 -23 -61.5 -31t-65.5 -18q-61 -23 -124.5 -40t-129.5 -32q2 -6 6.5 -15t5.5 -18.5t-2 -16.5t-16 -9q-18 -2 -28.5 16.5t-14.5 34.5q-41 -8 -85 -13t-87 -5 q-31 0 -72.5 -1t-70.5 15q-20 12 -14 29.5zM176 1790q16 -20 31.5 -40.5t32.5 -39.5q23 -23 48 -42t38 -38q12 -18 5 -33.5t-30 -11.5q-25 6 -36 24.5t-25 37.5q-16 23 -31.5 47t-26.5 53zM370 1755.5q-3 16.5 1 27.5t22 7q20 -6 24.5 -36t10.5 -46q10 -23 21.5 -47.5 t25.5 -40.5q2 -2 11.5 -12.5t15.5 -21.5t6 -20.5t-16 -9.5q-33 -4 -47.5 24t-24.5 50q-18 47 -24.5 57.5t-8.5 14.5q-2 6 -8 21.5t-9 32z" />
<glyph unicode="&#xd0;" horiz-adv-x="1208" d="M31 1462q0 4 1 8.5t1 8.5q12 27 39.5 40t61.5 17t68 2t58 -4q78 -6 155 -23.5t152 -44.5q139 -47 274.5 -122.5t227.5 -194.5q80 -102 89 -229t-50 -244q-35 -61 -86 -110.5t-113.5 -84.5t-131 -54t-138.5 -21v-3q-25 -2 -53.5 0.5t-55 9.5t-49 20t-37.5 38 q-25 39 -20.5 79t26 77t53.5 69.5t58 57.5q-23 -20 -44 -49t-36.5 -62t-20.5 -67.5t7 -65.5q16 -39 54 -51.5t79 -14.5q86 -4 172 24t156.5 78t121 122.5t62.5 162.5q12 94 -17.5 173t-85 143.5t-130 116t-150.5 88.5q-90 45 -185 77.5t-196 51.5q-25 4 -64.5 12t-80.5 10 t-78 -5t-55 -32q0 -2 -2 -3t-2 -5q-4 -31 11 -65.5t39.5 -68.5t50.5 -64.5t44 -51.5q92 -113 203 -217q53 -47 109.5 -93t115.5 -83q2 -2 19.5 -11t37 -18.5t36 -13.5t18.5 6l2 4q0 10 -2 17q-12 47 -33 91t-37 91q-6 0 -10 -2t-8 -2q-6 0 -27 -10.5t-42.5 -18.5t-38.5 -9 t-17 17q0 27 38.5 42.5t88.5 21.5q-12 35 -22.5 70.5t-16.5 70.5q-2 18 -10.5 49t12.5 47q18 14 27.5 0t14.5 -39.5t7 -52t4 -35.5q6 -29 14 -54t17 -52q35 4 63.5 5t38.5 1q18 0 46 1t42 -17q10 -14 -1 -23.5t-23 -9.5q-25 -4 -51.5 3t-51.5 7q-14 0 -27.5 -1t-25.5 -1 q16 -47 30.5 -90t20.5 -90q4 -16 -1 -34.5t-28 -18.5q-27 2 -54 14t-53 30.5t-50.5 38t-42.5 33.5q-59 43 -114.5 91.5t-106.5 97.5q-53 47 -102.5 97t-92.5 104q-31 41 -65.5 94t-30.5 106z" />
<glyph unicode="&#xd1;" horiz-adv-x="970" d="M30 1431.5q-5 28.5 11 32.5q14 6 24.5 -4t17.5 -27.5t11 -36t8 -26.5q25 -61 52.5 -123.5t56.5 -122.5l43 -88q2 12 4 35t6 43.5t12.5 34.5t24.5 8q12 -4 12 -30.5t-4 -59.5t-10 -62.5t-6 -39.5q47 -88 98 -174t109 -170q53 -72 112.5 -145t132.5 -120q14 -10 36 -21 t38 -1q16 6 24.5 27.5t12.5 47t5 51t1 40.5q4 96 -4 190t-18 191q-10 98 -21.5 193t-27.5 194q-10 86 -20.5 174t-33.5 174q0 6 -4 21.5t-5 32t3 27.5t21 11q14 -2 20 -13.5t8 -25.5t2 -29.5v-23.5q6 -72 17.5 -142.5t21.5 -142.5q20 -156 41 -312.5t33 -313.5 q0 -18 4 -57.5t5 -87.5t-3 -98t-15.5 -90t-34.5 -62.5t-60 -14.5q-45 10 -85 37.5t-75 64.5t-67 77t-58 75q-59 82 -113.5 169t-105.5 177v-14q-2 -49 -3 -101.5t15 -99.5l59 -188q4 -12 9.5 -30t6.5 -36t-6.5 -32.5t-25.5 -20.5t-39 18q-18 27 -29.5 62.5t-16.5 73.5t-7 77 t-4 72q-4 39 -5 75.5t-1 73.5l-50 142q-27 76 -52 148.5t-50 146.5q-4 8 -17.5 39.5t-24.5 66.5t-16 63.5zM125 1221q27 -92 55.5 -184.5t59.5 -186.5q0 23 4 31q0 45 6 86q-35 66 -65.5 127t-59.5 127zM185 1570.5q3 26.5 10.5 52.5t9.5 32q16 43 39.5 69.5t51.5 30.5 t57.5 -17.5t60.5 -74.5q14 -25 33.5 -57.5t41 -54t43 -21.5t39.5 39q10 16 23.5 37.5t36.5 23.5q20 0 19 -17.5t-12 -38t-25.5 -39.5t-18.5 -22q-35 -33 -65.5 -28.5t-57.5 30t-51.5 64.5t-48.5 76q-20 33 -43 43t-42.5 2t-33.5 -34t-21 -69q-2 -16 -2 -41.5t-18 -37.5 q-20 -10 -24.5 8t-1.5 44.5zM287 682q2 -31 4 -66.5t6 -71.5t13 -70t28 -60q8 47 -4.5 106.5t-26.5 106.5q-4 14 -9 27.5t-11 27.5z" />
<glyph unicode="&#xd2;" horiz-adv-x="1083" d="M29.5 744.5q5.5 95.5 40 186.5t94 170t131.5 132q98 74 219 103.5t244 15.5q-37 14 -99.5 32.5t-133 30.5t-142.5 13.5t-129 -16t-92 -59.5t-33 -116q2 -10 7 -24.5t8 -30t2 -28.5t-13 -19q-16 -8 -24.5 3t-13.5 29.5t-7 37t-2 24.5q-4 57 14.5 100t54 72t82 45t97.5 20 q10 4 20.5 4h18.5q109 2 215 -20.5t205 -65.5q43 -18 87 -43.5t82.5 -58.5t65.5 -74t37 -90q8 -47 0 -97t-26.5 -99.5t-45 -94.5t-53.5 -82q-119 -158 -291 -251q-68 -37 -151.5 -62.5t-166.5 -24.5t-155 35.5t-115 120.5q-37 86 -31.5 181.5zM73 720.5q-5 -77.5 29 -142.5 q43 -82 115 -109t154 -18.5t162.5 42t140.5 70.5q84 53 154.5 123t119.5 156q20 37 39 80t28 87t6 87t-28 82q-41 61 -104.5 102t-128.5 68q-135 -10 -258 -46t-228 -133q-131 -129 -178 -305q-18 -66 -23 -143.5zM373 1866q35 -16 61.5 -37t54.5 -41q59 -47 117 -98.5 t113 -100.5q6 -6 26.5 -18t40 -27.5t30.5 -31t3 -29.5q-10 -16 -28.5 -10t-37 21t-33.5 32.5t-24 23.5q-59 49 -115.5 104.5t-109.5 110.5q-20 23 -42 42t-40 42q-4 6 -16 17z" />
<glyph unicode="&#xd3;" horiz-adv-x="1083" d="M29.5 744.5q5.5 95.5 40 186.5t94 170t131.5 132q98 74 219 103.5t244 15.5q-37 14 -99.5 32.5t-133 30.5t-142.5 13.5t-129 -16t-92 -59.5t-33 -116q2 -10 7 -24.5t8 -30t2 -28.5t-13 -19q-16 -8 -24.5 3t-13.5 29.5t-7 37t-2 24.5q-4 57 14.5 100t54 72t82 45t97.5 20 q10 4 20.5 4h18.5q109 2 215 -20.5t205 -65.5q43 -18 87 -43.5t82.5 -58.5t65.5 -74t37 -90q8 -47 0 -97t-26.5 -99.5t-45 -94.5t-53.5 -82q-119 -158 -291 -251q-68 -37 -151.5 -62.5t-166.5 -24.5t-155 35.5t-115 120.5q-37 86 -31.5 181.5zM73 720.5q-5 -77.5 29 -142.5 q43 -82 115 -109t154 -18.5t162.5 42t140.5 70.5q84 53 154.5 123t119.5 156q20 37 39 80t28 87t6 87t-28 82q-41 61 -104.5 102t-128.5 68q-135 -10 -258 -46t-228 -133q-131 -129 -178 -305q-18 -66 -23 -143.5zM543 1557.5q-4 9.5 2 21.5t22 20q25 10 49.5 18.5 t49.5 20.5l108 50l277 133q-25 -23 -52.5 -43.5t-56.5 -38.5q-66 -41 -132.5 -79t-135.5 -69q-23 -10 -42 -22.5t-42 -20.5q-18 -6 -30.5 -3t-16.5 12.5z" />
<glyph unicode="&#xd4;" horiz-adv-x="1083" d="M29.5 744.5q5.5 95.5 40 186.5t94 170t131.5 132q98 74 219 103.5t244 15.5q-37 14 -99.5 32.5t-133 30.5t-142.5 13.5t-129 -16t-92 -59.5t-33 -116q2 -10 7 -24.5t8 -30t2 -28.5t-13 -19q-16 -8 -24.5 3t-13.5 29.5t-7 37t-2 24.5q-4 57 14.5 100t54 72t82 45t97.5 20 q10 4 20.5 4h18.5q109 2 215 -20.5t205 -65.5q43 -18 87 -43.5t82.5 -58.5t65.5 -74t37 -90q8 -47 0 -97t-26.5 -99.5t-45 -94.5t-53.5 -82q-119 -158 -291 -251q-68 -37 -151.5 -62.5t-166.5 -24.5t-155 35.5t-115 120.5q-37 86 -31.5 181.5zM73 720.5q-5 -77.5 29 -142.5 q43 -82 115 -109t154 -18.5t162.5 42t140.5 70.5q84 53 154.5 123t119.5 156q20 37 39 80t28 87t6 87t-28 82q-41 61 -104.5 102t-128.5 68q-135 -10 -258 -46t-228 -133q-131 -129 -178 -305q-18 -66 -23 -143.5zM559 1513q-10 29 5.5 54.5t25.5 48.5q16 35 35.5 69.5 t40.5 69.5q4 6 12 24.5t19.5 35t23.5 25.5t24 1q14 -4 16.5 -18.5t0.5 -30.5t-6 -32.5t-4 -26.5q4 -25 11 -54.5t25 -50.5q10 -16 25.5 -34.5t15.5 -37.5q0 -14 -6 -18t-15 -3t-18.5 8t-13.5 13q-10 14 -16 31t-15 33q-23 49 -32 111q0 6 -1 10t-1 8q-35 -37 -62.5 -91 t-40.5 -108q0 -6 -3 -17t-8 -20.5t-13.5 -13.5t-20.5 4z" />
<glyph unicode="&#xd5;" horiz-adv-x="1083" d="M29.5 744.5q5.5 95.5 40 186.5t94 170t131.5 132q98 74 219 103.5t244 15.5q-37 14 -99.5 32.5t-133 30.5t-142.5 13.5t-129 -16t-92 -59.5t-33 -116q2 -10 7 -24.5t8 -30t2 -28.5t-13 -19q-16 -8 -24.5 3t-13.5 29.5t-7 37t-2 24.5q-4 57 14.5 100t54 72t82 45t97.5 20 q10 4 20.5 4h18.5q109 2 215 -20.5t205 -65.5q43 -18 87 -43.5t82.5 -58.5t65.5 -74t37 -90q8 -47 0 -97t-26.5 -99.5t-45 -94.5t-53.5 -82q-119 -158 -291 -251q-68 -37 -151.5 -62.5t-166.5 -24.5t-155 35.5t-115 120.5q-37 86 -31.5 181.5zM73 720.5q-5 -77.5 29 -142.5 q43 -82 115 -109t154 -18.5t162.5 42t140.5 70.5q84 53 154.5 123t119.5 156q20 37 39 80t28 87t6 87t-28 82q-41 61 -104.5 102t-128.5 68q-135 -10 -258 -46t-228 -133q-131 -129 -178 -305q-18 -66 -23 -143.5zM492.5 1576q3.5 28 10.5 53.5t9 31.5q16 43 39.5 69.5 t51.5 30.5t57.5 -17.5t60.5 -74.5q14 -25 33.5 -57.5t41 -54t43 -21.5t40.5 39q10 14 23 35.5t36 25.5q20 0 19 -17t-12 -37.5t-25.5 -40t-18.5 -21.5q-35 -33 -65.5 -29t-57 29.5t-51.5 64.5t-49 76q-20 33 -43 43t-42.5 2t-33.5 -33.5t-20 -68.5q-2 -16 -2 -43t-21 -39 q-18 -10 -22.5 8t-1 46z" />
</font>
</defs>
</svg>
