<?xml version="1.0" encoding="iso-8859-1"?>
<!-- Generator: Adobe Illustrator 16.0.0, SVG Export Plug-In . SVG Version: 6.00 Build 0)  -->
<!DOCTYPE svg PUBLIC "-//W3C//DTD SVG 1.1//EN" "http://www.w3.org/Graphics/SVG/1.1/DTD/svg11.dtd">
<svg version="1.1" id="&#x56FE;&#x5C42;_1" xmlns="http://www.w3.org/2000/svg" xmlns:xlink="http://www.w3.org/1999/xlink" x="0px"
	 y="0px" width="200px" height="200px" viewBox="0 0 200 200" style="enable-background:new 0 0 200 200;" xml:space="preserve">
<path style="fill:#E6413C;" d="M224.867,100.078c3.838-8.934,5.59-18.917,4.686-29.283c0,0-11.334-53.834-5.299-60.8
	c-5.818,7.149-60.664,5.413-60.664,5.413c-9.504,0.828-18.305,3.799-25.973,8.392c-7.752-4.661-16.662-7.664-26.285-8.468
	c0,0-54.976,2.049-60.819-5.079c6.06,6.944-4.944,60.704-4.944,60.704c-0.803,9.612,0.676,18.886,3.979,27.295
	c-4.183,7.866-6.556,16.841-6.556,26.371c0,31.066,25.184,56.25,56.25,56.25c14.408,0,27.547-5.42,37.5-14.328
	c9.951,8.908,23.092,14.328,37.5,14.328c31.066,0,56.25-25.184,56.25-56.25C230.492,115.823,228.469,107.496,224.867,100.078z"/>
<path style="fill:#A01419;" d="M47.606,117.114h138.966l-0.107,8.701c0,38.314-31.061,69.375-69.375,69.375
	c-38.315,0-69.375-31.061-69.375-69.375L47.606,117.114z"/>
<path style="fill:#5A1E14;" d="M53.582,120.313h127.016l-0.1,7.332c0,32.194-28.389,58.293-63.408,58.293
	s-63.41-26.099-63.41-58.293L53.582,120.313z"/>
<path style="fill:#5A1E14;" d="M121.803,68.945c-3.452,0-6.25-2.798-6.25-6.25c0-3.452,2.798-6.25,6.25-6.25
	c24.164,0,43.822-19.659,43.822-43.823c0-3.452,2.799-6.25,6.25-6.25s6.25,2.798,6.25,6.25c0,15.044-5.858,29.188-16.496,39.826
	C150.99,63.086,136.847,68.945,121.803,68.945z"/>
<path style="fill:#5A1E14;" d="M165.748,46.875c-3.452,0-6.25-2.798-6.25-6.25s2.798-6.25,6.25-6.25
	c11.994,0,21.752-9.758,21.752-21.752c0-3.452,2.799-6.25,6.25-6.25s6.25,2.798,6.25,6.25C200,31.509,184.635,46.875,165.748,46.875
	z"/>
<path style="fill:#5A1E14;" d="M84.375,68.945c-15.044,0-29.188-5.859-39.826-16.497C33.911,41.811,28.052,27.667,28.052,12.623
	c0-3.452,2.798-6.25,6.25-6.25s6.25,2.798,6.25,6.25c0,24.164,19.659,43.823,43.823,43.823c3.452,0,6.25,2.798,6.25,6.25
	C90.625,66.147,87.827,68.945,84.375,68.945z"/>
<path style="fill:#5A1E14;" d="M40.43,46.875c-18.887,0-34.252-15.366-34.252-34.252c0-3.452,2.798-6.25,6.25-6.25
	s6.25,2.798,6.25,6.25c0,11.994,9.758,21.752,21.752,21.752c3.452,0,6.25,2.798,6.25,6.25S43.882,46.875,40.43,46.875z"/>
<path style="fill:#FFE664;" d="M166.362,8.601c-11.236,0-21.576,3.954-29.793,10.587c-8.184-6.531-18.443-10.419-29.582-10.419
	c-26.752,0-48.438,22.408-48.438,50.049c0,27.641,21.686,50.049,48.438,50.049c11.234,0,21.576-3.953,29.793-10.586
	c8.184,6.53,18.441,10.418,29.582,10.418c26.752,0,48.438-22.408,48.438-50.049C214.8,31.009,193.114,8.601,166.362,8.601z"/>
<path style="fill:#FFFA64;" d="M153.555,59.342c-1.266,0-2.52,0.053-3.76,0.151c-7.736-4.006-16.518-6.271-25.83-6.271
	c-9.297,0-18.066,2.257-25.793,6.251c-1.328-0.112-2.659-0.169-3.992-0.169c-26.751,0-48.437,22.408-48.437,50.049
	c0,27.642,21.686,50.049,48.437,50.049c1.211,0,2.41-0.049,3.6-0.139c7.821,4.122,16.73,6.459,26.186,6.459
	c9.422,0,18.301-2.32,26.102-6.414c1.16,0.086,2.324,0.13,3.488,0.131c26.752,0,48.438-22.408,48.438-50.049
	C201.992,81.749,180.307,59.342,153.555,59.342z"/>
<path style="fill:#419646;" d="M24.413,74.306c2.93,3.125,31.201,0.146,31.201,0.146c17.231,0,31.201,13.97,31.201,31.201
	s-13.97,31.201-31.201,31.201c-17.232,0-31.201-13.969-31.201-31.201C24.413,105.653,27.538,77.431,24.413,74.306z"/>
<path style="fill:#FFE664;" d="M156.51,109.473l0.039-24.836c0-13.898,11.188-25.164,24.987-25.164s24.987,11.266,24.987,25.164
	l0.039,24.836H156.51z"/>
<path style="fill:#FFA000;" d="M169.471,125.082c-7.695,0-15.416-1.352-22.867-4.066c-0.809-0.301-1.221-1.2-0.92-2.009
	c0.297-0.802,1.184-1.215,1.99-0.927c15.943,5.809,33.182,5.066,48.541-2.09s27.016-19.877,32.824-35.82
	c0.301-0.809,1.201-1.221,2.01-0.92c0.801,0.298,1.215,1.185,0.928,1.99c-6.096,16.728-18.326,30.074-34.443,37.583
	C188.598,122.986,179.053,125.082,169.471,125.082L169.471,125.082z M103.878,125.082c-9.583,0-19.125-2.095-28.063-6.259
	c-16.116-7.509-28.348-20.856-34.442-37.583c-0.29-0.813,0.134-1.707,0.946-1.997c0.805-0.288,1.692,0.125,1.99,0.927
	c5.809,15.943,17.466,28.664,32.825,35.82c15.359,7.156,32.598,7.898,48.542,2.089c0.816-0.281,1.705,0.151,1.986,0.968
	c0.275,0.796-0.131,1.667-0.916,1.969C119.295,123.73,111.573,125.082,103.878,125.082L103.878,125.082z"/>
<path style="fill:#FFFFFF;" d="M64.769,83.705c0,12.081,9.794,21.875,21.875,21.875s21.875-9.794,21.875-21.875
	S98.725,61.83,86.644,61.83S64.769,71.624,64.769,83.705z"/>
<path style="fill:#FFB432;" d="M138.598,134.277c0-8.787-6.908-15.959-15.588-16.386c-3.859-3.415-8.932-5.489-14.49-5.489
	s-10.631,2.074-14.491,5.489c-8.681,0.427-15.588,7.599-15.588,16.386s6.907,15.959,15.588,16.386
	c3.859,3.415,8.932,5.489,14.491,5.489s10.631-2.074,14.49-5.489C131.689,150.236,138.598,143.064,138.598,134.277z"/>
<path style="fill:#E6A02D;" d="M81.396,145.361c0,4.287,3.476,7.764,7.764,7.764s7.764-3.477,7.764-7.764s-3.476-7.764-7.764-7.764
	S81.396,141.074,81.396,145.361z"/>
<path style="fill:#E6A02D;" d="M109.326,145.361c0,4.287,3.477,7.764,7.764,7.764s7.764-3.477,7.764-7.764s-3.477-7.764-7.764-7.764
	S109.326,141.074,109.326,145.361z"/>
<path style="fill:#5A1E14;" d="M77.171,83.705c0,5.231,4.241,9.473,9.473,9.473s9.473-4.241,9.473-9.473s-4.241-9.473-9.473-9.473
	S77.171,78.474,77.171,83.705L77.171,83.705z"/>
<path style="fill:#419646;" d="M140.601,49.854c-3.126,2.93-0.147,31.201-0.147,31.201c0,17.232-13.969,31.201-31.201,31.201
	c-17.231,0-31.201-13.969-31.201-31.201c0-17.232,13.97-31.201,31.201-31.201C109.252,49.854,137.475,52.979,140.601,49.854z"/>
<path style="fill:#FFFFFF;" d="M124.964,46.875c0,12.081,9.794,21.875,21.875,21.875s21.875-9.794,21.875-21.875
	S158.92,25,146.839,25S124.964,34.794,124.964,46.875z"/>
<path onclick="alert(212122)" style="fill:#5A1E14;" d="M128.178,75c0,5.231,4.241,9.473,9.473,9.473s9.473-4.241,9.473-9.473
	s-4.241-9.473-9.473-9.473S128.178,69.769,128.178,75L128.178,75z"/>
<path style="fill:#FFB432;" d="M123.867,54.355c0,11.401-9.242,20.645-20.645,20.645c-11.402,0-20.645-9.243-20.645-20.645
	c0-11.402,20.645-29.453,20.645-29.453S123.867,42.954,123.867,54.355z"/>
<path style="fill:#E6A02D;" d="M119.076,42.468c0.192,0.865,0.299,1.706,0.299,2.513c0,11.401-9.242,20.645-20.645,20.645
	c-6.327,0-11.988-2.847-15.775-7.329C84.795,67.813,93.169,75,103.223,75c11.402,0,20.645-9.243,20.645-20.645
	C123.867,50.791,121.85,46.577,119.076,42.468z"/>
</svg>
