<?xml version="1.0" standalone="no"?><!DOCTYPE svg PUBLIC "-//W3C//DTD SVG 1.1//EN" "http://www.w3.org/Graphics/SVG/1.1/DTD/svg11.dtd"><svg t="1570852471802" class="icon" viewBox="0 0 1024 1024" version="1.1" xmlns="http://www.w3.org/2000/svg" p-id="1101" xmlns:xlink="http://www.w3.org/1999/xlink" width="200" height="200"><defs><style type="text/css"></style></defs><path d="M979.199 547.332c19.652-45.744 28.618-96.86 23.993-149.93 0 0-58.029-275.629-27.131-311.298-29.786 36.603-310.601 27.716-310.601 27.716-48.657 4.241-93.72 19.45-132.983 42.965-39.685-23.865-85.306-39.24-134.574-43.354 0 0-281.476 10.488-311.394-26.007 31.027 35.557-25.312 310.807-25.312 310.807-4.11 49.211 3.461 96.697 20.371 139.751C60.152 578.255 48 624.205 48 673c0 159.058 128.942 288 288 288 73.768 0 141.046-27.748 192-73.358C578.954 933.252 646.232 961 720 961c159.058 0 288-128.942 288-288 0-45.056-10.355-87.691-28.801-125.668z" fill="#E6413C" p-id="1102"></path><path d="M172.247 608h711.506l-0.555 44.552c0 196.17-159.028 355.198-355.198 355.198S172.802 848.723 172.802 652.552L172.247 608z" fill="#A01419" p-id="1103"></path><path d="M202.839 608h650.323l-0.507 37.541C852.654 810.375 707.301 944 528 944S203.346 810.375 203.346 645.541L202.839 608z" fill="#5A1E14" p-id="1104"></path><path d="M623.628 352.999c-17.673 0-32-14.327-32-32s14.327-32 32-32C747.347 288.999 848 188.346 848 64.627c0-17.673 14.327-32 32-32s32 14.327 32 32c0 77.027-29.996 149.443-84.462 203.91-54.466 54.466-126.883 84.462-203.91 84.462z" fill="#5A1E14" p-id="1105"></path><path d="M848.627 240c-17.673 0-32-14.327-32-32s14.327-32 32-32C910.038 176 960 126.038 960 64.627c0-17.673 14.327-32 32-32s32 14.327 32 32C1024 161.328 945.328 240 848.627 240z" fill="#5A1E14" p-id="1106"></path><path d="M432 352.999c-77.027 0-149.443-29.996-203.91-84.462-54.466-54.467-84.462-126.883-84.462-203.91 0-17.673 14.327-32 32-32s32 14.327 32 32c0 123.719 100.653 224.372 224.372 224.372 17.673 0 32 14.327 32 32s-14.327 32-32 32z" fill="#5A1E14" p-id="1107"></path><path d="M207.001 240C110.3 240 31.628 161.328 31.628 64.627c0-17.673 14.327-32 32-32s32 14.327 32 32C95.628 126.038 145.59 176 207.001 176c17.673 0 32 14.327 32 32s-14.327 32-32 32z" fill="#5A1E14" p-id="1108"></path><path d="M680 367.641c-57.525 0-110.471 20.243-152.542 54.203C485.562 388.406 433.034 368.5 376 368.5c-136.967 0-248 114.727-248 256.25S239.033 881 376 881c57.525 0 110.471-20.243 152.542-54.203 41.896 33.438 94.424 53.344 151.458 53.344 136.967 0 248-114.727 248-256.25s-111.033-256.25-248-256.25z" fill="#FFE664" p-id="1109"></path><path d="M680 239.83c-6.481 0-12.9 0.27-19.255 0.775C621.141 220.096 576.177 208.5 528.5 208.5c-47.603 0-92.502 11.558-132.061 32.007a243.347 243.347 0 0 0-20.439-0.866c-136.967 0-248 114.727-248 256.25s111.033 256.25 248 256.25c6.199 0 12.341-0.249 18.425-0.711 40.047 21.105 85.66 33.07 134.075 33.07 48.238 0 93.695-11.877 133.636-32.839a243.45 243.45 0 0 0 17.864 0.668c136.967 0 248-114.727 248-256.25S816.967 239.83 680 239.83z" fill="#FFFA64" p-id="1110"></path><path d="M112.628 304.124c15 16.004 159.75 0.752 159.75 0.752 88.227 0 159.75 71.523 159.75 159.75s-71.523 159.75-159.75 159.75-159.75-71.522-159.75-159.75c0 0 16-144.498 0-160.502z" fill="#419646" p-id="1111"></path><path d="M400 736l0.2-127.162C400.2 537.683 457.478 480 528.135 480S656.07 537.683 656.07 608.838l0.2 127.162H400z" fill="#FFE664" p-id="1112"></path><path d="M695.571 675.347c-39.404 0-78.933-6.917-117.081-20.816a8 8 0 0 1 5.477-15.033c81.631 29.742 169.894 25.942 248.531-10.696 78.639-36.639 138.325-101.771 168.066-183.4a8 8 0 0 1 15.033 5.477c-31.204 85.646-93.83 153.983-176.343 192.427-45.757 21.317-94.624 32.041-143.683 32.041zM359.738 675.347c-49.064 0-97.92-10.721-143.684-32.043C133.542 604.86 70.916 536.522 39.712 450.877a8 8 0 0 1 15.033-5.477c29.741 81.629 89.428 146.762 168.066 183.4s166.899 40.438 248.531 10.696a8.001 8.001 0 0 1 5.477 15.033c-38.143 13.899-77.681 20.818-117.081 20.818z" fill="#FFA000" p-id="1113"></path><path d="M271.5 463.5m-112 0a112 112 0 1 0 224 0 112 112 0 1 0-224 0Z" fill="#FFFFFF" p-id="1114"></path><path d="M682.5 736c0-44.987-35.365-81.713-79.811-83.896C582.932 634.62 556.958 624 528.5 624s-54.432 10.62-74.189 28.104C409.865 654.287 374.5 691.013 374.5 736s35.365 81.713 79.811 83.896C474.068 837.38 500.042 848 528.5 848s54.432-10.62 74.189-28.104C647.135 817.713 682.5 780.987 682.5 736z" fill="#FFB432" p-id="1115"></path><path d="M456.5 744.25m-39.75 0a39.75 39.75 0 1 0 79.5 0 39.75 39.75 0 1 0-79.5 0Z" fill="#E6A02D" p-id="1116"></path><path d="M599.5 744.25m-39.75 0a39.75 39.75 0 1 0 79.5 0 39.75 39.75 0 1 0-79.5 0Z" fill="#E6A02D" p-id="1117"></path><path d="M271.5 463.5m-48.5 0a48.5 48.5 0 1 0 97 0 48.5 48.5 0 1 0-97 0Z" fill="#5A1E14" p-id="1118"></path><path d="M944.504 304.5c-16.004 15-0.752 159.75-0.752 159.75 0 88.227-71.523 159.75-159.75 159.75s-159.75-71.523-159.75-159.75 71.523-159.75 159.75-159.75c0 0 144.498 16 160.502 0z" fill="#419646" p-id="1119"></path><path d="M784.5 463.5m-112 0a112 112 0 1 0 224 0 112 112 0 1 0-224 0Z" fill="#FFFFFF" p-id="1120"></path><path d="M783.5 463.5m-48.5 0a48.5 48.5 0 1 0 97 0 48.5 48.5 0 1 0-97 0Z" fill="#5A1E14" p-id="1121"></path><path d="M634.201 278.299C634.201 336.676 586.877 384 528.5 384s-105.701-47.324-105.701-105.701S528.5 127.5 528.5 127.5s105.701 92.423 105.701 150.799z" fill="#FFB432" p-id="1122"></path><path d="M609.671 217.436c0.984 4.427 1.529 8.733 1.529 12.863C611.201 288.676 563.877 336 505.5 336c-32.395 0-61.38-14.578-80.769-37.525C434.149 347.2 477.024 384 528.5 384c58.377 0 105.701-47.324 105.701-105.701 0-18.248-10.33-39.824-24.53-60.863z" fill="#E6A02D" p-id="1123"></path></svg>